<?xml version="1.0" standalone="no"?>
 <!DOCTYPE svg PUBLIC "-//W3C//DTD SVG 1.1//EN" 
 "http://www.w3.org/Graphics/SVG/1.1/DTD/svg11.dtd"> 
<svg
  xmlns:svg="http://www.w3.org/2000/svg"
  xmlns="http://www.w3.org/2000/svg"
  xmlns:xlink="http://www.w3.org/1999/xlink"
  xmlns:inkscape="http://www.inkscape.org/namespaces/inkscape"
  version="1.1"
  width="76.2000mm" height="50.8000mm" viewBox="0.0000 0.0000 76.2000 50.8000">
<title>SVG Image created as lightsystem.svg date 2026-04-01T22:14:10 </title>
  <desc>Image generated by Eeschema-SVG </desc>
<g style="fill:#000000; fill-opacity:1.0000;stroke:#000000; stroke-opacity:1.0000;
stroke-linecap:round; stroke-linejoin:round;"
 transform="translate(0 0) scale(1 1)">
</g>
<g style="fill:#000000; fill-opacity:1.0000; 
stroke:#000000; stroke-width:0.0001; stroke-opacity:1; 
stroke-linecap:round; stroke-linejoin:round;">
<rect x="0.000000" y="0.000000" width="76.200000" height="50.800000" rx="0.000000" />
</g>
<g style="fill:none; 
stroke:#FCFCFC; stroke-width:0.1524; stroke-opacity:1; 
stroke-linecap:round; stroke-linejoin:round;">
<rect x="18.897600" y="31.038800" width="13.004800" height="6.502400" rx="0.000000" />
<path d="M21.5900 31.7500
L21.5900 29.2100
" />
<g transform="rotate(-90.000000 21.5900 32.2580)">
<text x="21.5900" y="32.5755"
textLength="2.1445" font-size="0.8466" lengthAdjust="spacingAndGlyphs"
text-anchor="end" opacity="0" stroke-opacity="0">VCC</text>
</g>
<g class="stroked-text"><desc>VCC</desc>
<path d="M21.2408 34.1120
L21.8758 33.9003
" />
<path d="M21.8758 33.9003
L21.2408 33.6886
" />
<path d="M21.8153 33.1141
L21.8456 33.1443
" />
<path d="M21.8456 33.1443
L21.8758 33.2351
" />
<path d="M21.8758 33.2351
L21.8758 33.2955
" />
<path d="M21.8758 33.2955
L21.8456 33.3862
" />
<path d="M21.8456 33.3862
L21.7851 33.4467
" />
<path d="M21.7851 33.4467
L21.7246 33.4770
" />
<path d="M21.7246 33.4770
L21.6036 33.5072
" />
<path d="M21.6036 33.5072
L21.5129 33.5072
" />
<path d="M21.5129 33.5072
L21.3920 33.4770
" />
<path d="M21.3920 33.4770
L21.3315 33.4467
" />
<path d="M21.3315 33.4467
L21.2710 33.3862
" />
<path d="M21.2710 33.3862
L21.2408 33.2955
" />
<path d="M21.2408 33.2955
L21.2408 33.2351
" />
<path d="M21.2408 33.2351
L21.2710 33.1443
" />
<path d="M21.2710 33.1443
L21.3013 33.1141
" />
<path d="M21.8153 32.4791
L21.8456 32.5093
" />
<path d="M21.8456 32.5093
L21.8758 32.6001
" />
<path d="M21.8758 32.6001
L21.8758 32.6605
" />
<path d="M21.8758 32.6605
L21.8456 32.7512
" />
<path d="M21.8456 32.7512
L21.7851 32.8117
" />
<path d="M21.7851 32.8117
L21.7246 32.8420
" />
<path d="M21.7246 32.8420
L21.6036 32.8722
" />
<path d="M21.6036 32.8722
L21.5129 32.8722
" />
<path d="M21.5129 32.8722
L21.3920 32.8420
" />
<path d="M21.3920 32.8420
L21.3315 32.8117
" />
<path d="M21.3315 32.8117
L21.2710 32.7512
" />
<path d="M21.2710 32.7512
L21.2408 32.6605
" />
<path d="M21.2408 32.6605
L21.2408 32.6001
" />
<path d="M21.2408 32.6001
L21.2710 32.5093
" />
<path d="M21.2710 32.5093
L21.3013 32.4791
" />
</g><path d="M24.1300 31.7500
L24.1300 29.2100
" />
<g transform="rotate(-90.000000 24.1300 32.2580)">
<text x="24.1300" y="32.5755"
textLength="2.2654" font-size="0.8466" lengthAdjust="spacingAndGlyphs"
text-anchor="end" opacity="0" stroke-opacity="0">GND</text>
</g>
<g class="stroked-text"><desc>GND</desc>
<path d="M23.8110 33.8095
L23.7808 33.8700
" />
<path d="M23.7808 33.8700
L23.7808 33.9607
" />
<path d="M23.7808 33.9607
L23.8110 34.0514
" />
<path d="M23.8110 34.0514
L23.8715 34.1119
" />
<path d="M23.8715 34.1119
L23.9320 34.1422
" />
<path d="M23.9320 34.1422
L24.0529 34.1724
" />
<path d="M24.0529 34.1724
L24.1436 34.1724
" />
<path d="M24.1436 34.1724
L24.2646 34.1422
" />
<path d="M24.2646 34.1422
L24.3251 34.1119
" />
<path d="M24.3251 34.1119
L24.3856 34.0514
" />
<path d="M24.3856 34.0514
L24.4158 33.9607
" />
<path d="M24.4158 33.9607
L24.4158 33.9003
" />
<path d="M24.4158 33.9003
L24.3856 33.8095
" />
<path d="M24.3856 33.8095
L24.3553 33.7793
" />
<path d="M24.3553 33.7793
L24.1436 33.7793
" />
<path d="M24.1436 33.7793
L24.1436 33.9003
" />
<path d="M24.4158 33.5072
L23.7808 33.5072
" />
<path d="M23.7808 33.5072
L24.4158 33.1443
" />
<path d="M24.4158 33.1443
L23.7808 33.1443
" />
<path d="M24.4158 32.8420
L23.7808 32.8420
" />
<path d="M23.7808 32.8420
L23.7808 32.6908
" />
<path d="M23.7808 32.6908
L23.8110 32.6001
" />
<path d="M23.8110 32.6001
L23.8715 32.5396
" />
<path d="M23.8715 32.5396
L23.9320 32.5093
" />
<path d="M23.9320 32.5093
L24.0529 32.4791
" />
<path d="M24.0529 32.4791
L24.1436 32.4791
" />
<path d="M24.1436 32.4791
L24.2646 32.5093
" />
<path d="M24.2646 32.5093
L24.3251 32.5396
" />
<path d="M24.3251 32.5396
L24.3856 32.6001
" />
<path d="M24.3856 32.6001
L24.4158 32.6908
" />
<path d="M24.4158 32.6908
L24.4158 32.8420
" />
</g><path d="M26.6700 31.7500
L26.6700 29.2100
" />
<g transform="rotate(-90.000000 26.6700 32.2580)">
<text x="26.6700" y="32.5755"
textLength="2.0840" font-size="0.8466" lengthAdjust="spacingAndGlyphs"
text-anchor="end" opacity="0" stroke-opacity="0">SCL</text>
</g>
<g class="stroked-text"><desc>SCL</desc>
<path d="M26.9256 33.9910
L26.9558 33.9003
" />
<path d="M26.9558 33.9003
L26.9558 33.7491
" />
<path d="M26.9558 33.7491
L26.9256 33.6886
" />
<path d="M26.9256 33.6886
L26.8953 33.6584
" />
<path d="M26.8953 33.6584
L26.8348 33.6281
" />
<path d="M26.8348 33.6281
L26.7744 33.6281
" />
<path d="M26.7744 33.6281
L26.7139 33.6584
" />
<path d="M26.7139 33.6584
L26.6836 33.6886
" />
<path d="M26.6836 33.6886
L26.6534 33.7491
" />
<path d="M26.6534 33.7491
L26.6232 33.8700
" />
<path d="M26.6232 33.8700
L26.5929 33.9305
" />
<path d="M26.5929 33.9305
L26.5627 33.9608
" />
<path d="M26.5627 33.9608
L26.5022 33.9910
" />
<path d="M26.5022 33.9910
L26.4417 33.9910
" />
<path d="M26.4417 33.9910
L26.3813 33.9608
" />
<path d="M26.3813 33.9608
L26.3510 33.9305
" />
<path d="M26.3510 33.9305
L26.3208 33.8700
" />
<path d="M26.3208 33.8700
L26.3208 33.7189
" />
<path d="M26.3208 33.7189
L26.3510 33.6281
" />
<path d="M26.8953 32.9931
L26.9256 33.0233
" />
<path d="M26.9256 33.0233
L26.9558 33.1141
" />
<path d="M26.9558 33.1141
L26.9558 33.1745
" />
<path d="M26.9558 33.1745
L26.9256 33.2652
" />
<path d="M26.9256 33.2652
L26.8651 33.3257
" />
<path d="M26.8651 33.3257
L26.8046 33.3560
" />
<path d="M26.8046 33.3560
L26.6836 33.3862
" />
<path d="M26.6836 33.3862
L26.5929 33.3862
" />
<path d="M26.5929 33.3862
L26.4720 33.3560
" />
<path d="M26.4720 33.3560
L26.4115 33.3257
" />
<path d="M26.4115 33.3257
L26.3510 33.2652
" />
<path d="M26.3510 33.2652
L26.3208 33.1745
" />
<path d="M26.3208 33.1745
L26.3208 33.1141
" />
<path d="M26.3208 33.1141
L26.3510 33.0233
" />
<path d="M26.3510 33.0233
L26.3813 32.9931
" />
<path d="M26.9558 32.4186
L26.9558 32.7210
" />
<path d="M26.9558 32.7210
L26.3208 32.7210
" />
</g><path d="M29.2100 31.7500
L29.2100 29.2100
" />
<g transform="rotate(-90.000000 29.2100 32.2580)">
<text x="29.2100" y="32.5755"
textLength="2.1143" font-size="0.8466" lengthAdjust="spacingAndGlyphs"
text-anchor="end" opacity="0" stroke-opacity="0">SDA</text>
</g>
<g class="stroked-text"><desc>SDA</desc>
<path d="M29.4656 34.0213
L29.4958 33.9306
" />
<path d="M29.4958 33.9306
L29.4958 33.7794
" />
<path d="M29.4958 33.7794
L29.4656 33.7189
" />
<path d="M29.4656 33.7189
L29.4353 33.6887
" />
<path d="M29.4353 33.6887
L29.3748 33.6584
" />
<path d="M29.3748 33.6584
L29.3144 33.6584
" />
<path d="M29.3144 33.6584
L29.2539 33.6887
" />
<path d="M29.2539 33.6887
L29.2236 33.7189
" />
<path d="M29.2236 33.7189
L29.1934 33.7794
" />
<path d="M29.1934 33.7794
L29.1632 33.9003
" />
<path d="M29.1632 33.9003
L29.1329 33.9608
" />
<path d="M29.1329 33.9608
L29.1027 33.9911
" />
<path d="M29.1027 33.9911
L29.0422 34.0213
" />
<path d="M29.0422 34.0213
L28.9817 34.0213
" />
<path d="M28.9817 34.0213
L28.9213 33.9911
" />
<path d="M28.9213 33.9911
L28.8910 33.9608
" />
<path d="M28.8910 33.9608
L28.8608 33.9003
" />
<path d="M28.8608 33.9003
L28.8608 33.7492
" />
<path d="M28.8608 33.7492
L28.8910 33.6584
" />
<path d="M29.4958 33.3863
L28.8608 33.3863
" />
<path d="M28.8608 33.3863
L28.8608 33.2351
" />
<path d="M28.8608 33.2351
L28.8910 33.1444
" />
<path d="M28.8910 33.1444
L28.9515 33.0839
" />
<path d="M28.9515 33.0839
L29.0120 33.0536
" />
<path d="M29.0120 33.0536
L29.1329 33.0234
" />
<path d="M29.1329 33.0234
L29.2236 33.0234
" />
<path d="M29.2236 33.0234
L29.3446 33.0536
" />
<path d="M29.3446 33.0536
L29.4051 33.0839
" />
<path d="M29.4051 33.0839
L29.4656 33.1444
" />
<path d="M29.4656 33.1444
L29.4958 33.2351
" />
<path d="M29.4958 33.2351
L29.4958 33.3863
" />
<path d="M29.3144 32.7815
L29.3144 32.4791
" />
<path d="M29.4958 32.8420
L28.8608 32.6303
" />
<path d="M28.8608 32.6303
L29.4958 32.4186
" />
</g></g>
<g style="fill:none; 
stroke:#FCFCFC; stroke-width:0.1270; stroke-opacity:1; 
stroke-linecap:round; stroke-linejoin:round;">
<text x="25.4000" y="35.8140"
textLength="5.7706" font-size="0.6773" lengthAdjust="spacingAndGlyphs"
text-anchor="middle" opacity="0" stroke-opacity="0">OLED(128X64)</text>
<g class="stroked-text"><desc>OLED(128X64)</desc>
<path d="M22.8721 35.2803
L22.9688 35.2803
" />
<path d="M22.9688 35.2803
L23.0172 35.3045
" />
<path d="M23.0172 35.3045
L23.0656 35.3529
" />
<path d="M23.0656 35.3529
L23.0898 35.4497
" />
<path d="M23.0898 35.4497
L23.0898 35.6190
" />
<path d="M23.0898 35.6190
L23.0656 35.7158
" />
<path d="M23.0656 35.7158
L23.0172 35.7642
" />
<path d="M23.0172 35.7642
L22.9688 35.7883
" />
<path d="M22.9688 35.7883
L22.8721 35.7883
" />
<path d="M22.8721 35.7883
L22.8237 35.7642
" />
<path d="M22.8237 35.7642
L22.7753 35.7158
" />
<path d="M22.7753 35.7158
L22.7511 35.6190
" />
<path d="M22.7511 35.6190
L22.7511 35.4497
" />
<path d="M22.7511 35.4497
L22.7753 35.3529
" />
<path d="M22.7753 35.3529
L22.8237 35.3045
" />
<path d="M22.8237 35.3045
L22.8721 35.2803
" />
<path d="M23.5494 35.7883
L23.3075 35.7883
" />
<path d="M23.3075 35.7883
L23.3075 35.2803
" />
<path d="M23.7187 35.5222
L23.8880 35.5222
" />
<path d="M23.9606 35.7883
L23.7187 35.7883
" />
<path d="M23.7187 35.7883
L23.7187 35.2803
" />
<path d="M23.7187 35.2803
L23.9606 35.2803
" />
<path d="M24.1783 35.7883
L24.1783 35.2803
" />
<path d="M24.1783 35.2803
L24.2993 35.2803
" />
<path d="M24.2993 35.2803
L24.3718 35.3045
" />
<path d="M24.3718 35.3045
L24.4202 35.3529
" />
<path d="M24.4202 35.3529
L24.4444 35.4013
" />
<path d="M24.4444 35.4013
L24.4686 35.4981
" />
<path d="M24.4686 35.4981
L24.4686 35.5706
" />
<path d="M24.4686 35.5706
L24.4444 35.6674
" />
<path d="M24.4444 35.6674
L24.4202 35.7158
" />
<path d="M24.4202 35.7158
L24.3718 35.7642
" />
<path d="M24.3718 35.7642
L24.2993 35.7883
" />
<path d="M24.2993 35.7883
L24.1783 35.7883
" />
<path d="M24.8314 35.9819
L24.8073 35.9577
" />
<path d="M24.8073 35.9577
L24.7589 35.8851
" />
<path d="M24.7589 35.8851
L24.7347 35.8367
" />
<path d="M24.7347 35.8367
L24.7105 35.7642
" />
<path d="M24.7105 35.7642
L24.6863 35.6432
" />
<path d="M24.6863 35.6432
L24.6863 35.5464
" />
<path d="M24.6863 35.5464
L24.7105 35.4255
" />
<path d="M24.7105 35.4255
L24.7347 35.3529
" />
<path d="M24.7347 35.3529
L24.7589 35.3045
" />
<path d="M24.7589 35.3045
L24.8073 35.2320
" />
<path d="M24.8073 35.2320
L24.8314 35.2078
" />
<path d="M25.2911 35.7883
L25.0008 35.7883
" />
<path d="M25.1460 35.7883
L25.1460 35.2803
" />
<path d="M25.1460 35.2803
L25.0976 35.3529
" />
<path d="M25.0976 35.3529
L25.0492 35.4013
" />
<path d="M25.0492 35.4013
L25.0008 35.4255
" />
<path d="M25.4846 35.3287
L25.5088 35.3045
" />
<path d="M25.5088 35.3045
L25.5572 35.2803
" />
<path d="M25.5572 35.2803
L25.6781 35.2803
" />
<path d="M25.6781 35.2803
L25.7265 35.3045
" />
<path d="M25.7265 35.3045
L25.7507 35.3287
" />
<path d="M25.7507 35.3287
L25.7749 35.3771
" />
<path d="M25.7749 35.3771
L25.7749 35.4255
" />
<path d="M25.7749 35.4255
L25.7507 35.4981
" />
<path d="M25.7507 35.4981
L25.4604 35.7883
" />
<path d="M25.4604 35.7883
L25.7749 35.7883
" />
<path d="M26.0652 35.4981
L26.0168 35.4739
" />
<path d="M26.0168 35.4739
L25.9926 35.4497
" />
<path d="M25.9926 35.4497
L25.9684 35.4013
" />
<path d="M25.9684 35.4013
L25.9684 35.3771
" />
<path d="M25.9684 35.3771
L25.9926 35.3287
" />
<path d="M25.9926 35.3287
L26.0168 35.3045
" />
<path d="M26.0168 35.3045
L26.0652 35.2803
" />
<path d="M26.0652 35.2803
L26.1619 35.2803
" />
<path d="M26.1619 35.2803
L26.2103 35.3045
" />
<path d="M26.2103 35.3045
L26.2345 35.3287
" />
<path d="M26.2345 35.3287
L26.2587 35.3771
" />
<path d="M26.2587 35.3771
L26.2587 35.4013
" />
<path d="M26.2587 35.4013
L26.2345 35.4497
" />
<path d="M26.2345 35.4497
L26.2103 35.4739
" />
<path d="M26.2103 35.4739
L26.1619 35.4981
" />
<path d="M26.1619 35.4981
L26.0652 35.4981
" />
<path d="M26.0652 35.4981
L26.0168 35.5222
" />
<path d="M26.0168 35.5222
L25.9926 35.5464
" />
<path d="M25.9926 35.5464
L25.9684 35.5948
" />
<path d="M25.9684 35.5948
L25.9684 35.6916
" />
<path d="M25.9684 35.6916
L25.9926 35.7400
" />
<path d="M25.9926 35.7400
L26.0168 35.7642
" />
<path d="M26.0168 35.7642
L26.0652 35.7883
" />
<path d="M26.0652 35.7883
L26.1619 35.7883
" />
<path d="M26.1619 35.7883
L26.2103 35.7642
" />
<path d="M26.2103 35.7642
L26.2345 35.7400
" />
<path d="M26.2345 35.7400
L26.2587 35.6916
" />
<path d="M26.2587 35.6916
L26.2587 35.5948
" />
<path d="M26.2587 35.5948
L26.2345 35.5464
" />
<path d="M26.2345 35.5464
L26.2103 35.5222
" />
<path d="M26.2103 35.5222
L26.1619 35.4981
" />
<path d="M26.4280 35.2803
L26.7667 35.7883
" />
<path d="M26.7667 35.2803
L26.4280 35.7883
" />
<path d="M27.1779 35.2803
L27.0812 35.2803
" />
<path d="M27.0812 35.2803
L27.0328 35.3045
" />
<path d="M27.0328 35.3045
L27.0086 35.3287
" />
<path d="M27.0086 35.3287
L26.9602 35.4013
" />
<path d="M26.9602 35.4013
L26.9360 35.4981
" />
<path d="M26.9360 35.4981
L26.9360 35.6916
" />
<path d="M26.9360 35.6916
L26.9602 35.7400
" />
<path d="M26.9602 35.7400
L26.9844 35.7642
" />
<path d="M26.9844 35.7642
L27.0328 35.7883
" />
<path d="M27.0328 35.7883
L27.1295 35.7883
" />
<path d="M27.1295 35.7883
L27.1779 35.7642
" />
<path d="M27.1779 35.7642
L27.2021 35.7400
" />
<path d="M27.2021 35.7400
L27.2263 35.6916
" />
<path d="M27.2263 35.6916
L27.2263 35.5706
" />
<path d="M27.2263 35.5706
L27.2021 35.5222
" />
<path d="M27.2021 35.5222
L27.1779 35.4981
" />
<path d="M27.1779 35.4981
L27.1295 35.4739
" />
<path d="M27.1295 35.4739
L27.0328 35.4739
" />
<path d="M27.0328 35.4739
L26.9844 35.4981
" />
<path d="M26.9844 35.4981
L26.9602 35.5222
" />
<path d="M26.9602 35.5222
L26.9360 35.5706
" />
<path d="M27.6617 35.4497
L27.6617 35.7883
" />
<path d="M27.5408 35.2562
L27.4198 35.6190
" />
<path d="M27.4198 35.6190
L27.7343 35.6190
" />
<path d="M27.8794 35.9819
L27.9036 35.9577
" />
<path d="M27.9036 35.9577
L27.9520 35.8851
" />
<path d="M27.9520 35.8851
L27.9762 35.8367
" />
<path d="M27.9762 35.8367
L28.0004 35.7642
" />
<path d="M28.0004 35.7642
L28.0246 35.6432
" />
<path d="M28.0246 35.6432
L28.0246 35.5464
" />
<path d="M28.0246 35.5464
L28.0004 35.4255
" />
<path d="M28.0004 35.4255
L27.9762 35.3529
" />
<path d="M27.9762 35.3529
L27.9520 35.3045
" />
<path d="M27.9520 35.3045
L27.9036 35.2320
" />
<path d="M27.9036 35.2320
L27.8794 35.2078
" />
</g></g>
<g style="fill:none; 
stroke:#FCFCFC; stroke-width:0.2540; stroke-opacity:1; 
stroke-linecap:round; stroke-linejoin:round;">
<rect x="40.640000" y="13.970000" width="15.240000" height="25.400000" rx="0.000000" />
</g>
<g style="fill:none; 
stroke:#FCFCFC; stroke-width:0.1524; stroke-opacity:1; 
stroke-linecap:round; stroke-linejoin:round;">
<path d="M40.6400 19.0500
L38.1000 19.0500
" />
<text x="41.1480" y="19.3675"
textLength="2.0841" font-size="0.8466" lengthAdjust="spacingAndGlyphs"
text-anchor="start" opacity="0" stroke-opacity="0">3V3</text>
<g class="stroked-text"><desc>3V3</desc>
<path d="M41.3389 18.7008
L41.7320 18.7008
" />
<path d="M41.7320 18.7008
L41.5203 18.9427
" />
<path d="M41.5203 18.9427
L41.6110 18.9427
" />
<path d="M41.6110 18.9427
L41.6715 18.9729
" />
<path d="M41.6715 18.9729
L41.7017 19.0032
" />
<path d="M41.7017 19.0032
L41.7320 19.0636
" />
<path d="M41.7320 19.0636
L41.7320 19.2148
" />
<path d="M41.7320 19.2148
L41.7017 19.2753
" />
<path d="M41.7017 19.2753
L41.6715 19.3056
" />
<path d="M41.6715 19.3056
L41.6110 19.3358
" />
<path d="M41.6110 19.3358
L41.4296 19.3358
" />
<path d="M41.4296 19.3358
L41.3691 19.3056
" />
<path d="M41.3691 19.3056
L41.3389 19.2753
" />
<path d="M41.9134 18.7008
L42.1251 19.3358
" />
<path d="M42.1251 19.3358
L42.3368 18.7008
" />
<path d="M42.4880 18.7008
L42.8811 18.7008
" />
<path d="M42.8811 18.7008
L42.6694 18.9427
" />
<path d="M42.6694 18.9427
L42.7601 18.9427
" />
<path d="M42.7601 18.9427
L42.8206 18.9729
" />
<path d="M42.8206 18.9729
L42.8508 19.0032
" />
<path d="M42.8508 19.0032
L42.8811 19.0636
" />
<path d="M42.8811 19.0636
L42.8811 19.2148
" />
<path d="M42.8811 19.2148
L42.8508 19.2753
" />
<path d="M42.8508 19.2753
L42.8206 19.3056
" />
<path d="M42.8206 19.3056
L42.7601 19.3358
" />
<path d="M42.7601 19.3358
L42.5787 19.3358
" />
<path d="M42.5787 19.3358
L42.5182 19.3056
" />
<path d="M42.5182 19.3056
L42.4880 19.2753
" />
</g><path d="M40.6400 20.3200
L38.1000 20.3200
" />
<text x="41.1480" y="20.6375"
textLength="2.2654" font-size="0.8466" lengthAdjust="spacingAndGlyphs"
text-anchor="start" opacity="0" stroke-opacity="0">GND</text>
<g class="stroked-text"><desc>GND</desc>
<path d="M41.7320 20.0010
L41.6715 19.9708
" />
<path d="M41.6715 19.9708
L41.5808 19.9708
" />
<path d="M41.5808 19.9708
L41.4901 20.0010
" />
<path d="M41.4901 20.0010
L41.4296 20.0615
" />
<path d="M41.4296 20.0615
L41.3993 20.1220
" />
<path d="M41.3993 20.1220
L41.3691 20.2429
" />
<path d="M41.3691 20.2429
L41.3691 20.3336
" />
<path d="M41.3691 20.3336
L41.3993 20.4546
" />
<path d="M41.3993 20.4546
L41.4296 20.5151
" />
<path d="M41.4296 20.5151
L41.4901 20.5756
" />
<path d="M41.4901 20.5756
L41.5808 20.6058
" />
<path d="M41.5808 20.6058
L41.6412 20.6058
" />
<path d="M41.6412 20.6058
L41.7320 20.5756
" />
<path d="M41.7320 20.5756
L41.7622 20.5453
" />
<path d="M41.7622 20.5453
L41.7622 20.3336
" />
<path d="M41.7622 20.3336
L41.6412 20.3336
" />
<path d="M42.0343 20.6058
L42.0343 19.9708
" />
<path d="M42.0343 19.9708
L42.3972 20.6058
" />
<path d="M42.3972 20.6058
L42.3972 19.9708
" />
<path d="M42.6995 20.6058
L42.6995 19.9708
" />
<path d="M42.6995 19.9708
L42.8507 19.9708
" />
<path d="M42.8507 19.9708
L42.9414 20.0010
" />
<path d="M42.9414 20.0010
L43.0019 20.0615
" />
<path d="M43.0019 20.0615
L43.0322 20.1220
" />
<path d="M43.0322 20.1220
L43.0624 20.2429
" />
<path d="M43.0624 20.2429
L43.0624 20.3336
" />
<path d="M43.0624 20.3336
L43.0322 20.4546
" />
<path d="M43.0322 20.4546
L43.0019 20.5151
" />
<path d="M43.0019 20.5151
L42.9414 20.5756
" />
<path d="M42.9414 20.5756
L42.8507 20.6058
" />
<path d="M42.8507 20.6058
L42.6995 20.6058
" />
</g><path d="M40.6400 21.5900
L38.1000 21.5900
" />
<text x="41.1480" y="21.9075"
textLength="2.1748" font-size="0.8466" lengthAdjust="spacingAndGlyphs"
text-anchor="start" opacity="0" stroke-opacity="0">D15</text>
<g class="stroked-text"><desc>D15</desc>
<path d="M41.3993 21.8758
L41.3993 21.2408
" />
<path d="M41.3993 21.2408
L41.5505 21.2408
" />
<path d="M41.5505 21.2408
L41.6412 21.2710
" />
<path d="M41.6412 21.2710
L41.7017 21.3315
" />
<path d="M41.7017 21.3315
L41.7320 21.3920
" />
<path d="M41.7320 21.3920
L41.7622 21.5129
" />
<path d="M41.7622 21.5129
L41.7622 21.6036
" />
<path d="M41.7622 21.6036
L41.7320 21.7246
" />
<path d="M41.7320 21.7246
L41.7017 21.7851
" />
<path d="M41.7017 21.7851
L41.6412 21.8456
" />
<path d="M41.6412 21.8456
L41.5505 21.8758
" />
<path d="M41.5505 21.8758
L41.3993 21.8758
" />
<path d="M42.3670 21.8758
L42.0041 21.8758
" />
<path d="M42.1855 21.8758
L42.1855 21.2408
" />
<path d="M42.1855 21.2408
L42.1251 21.3315
" />
<path d="M42.1251 21.3315
L42.0646 21.3920
" />
<path d="M42.0646 21.3920
L42.0041 21.4222
" />
<path d="M42.9415 21.2408
L42.6391 21.2408
" />
<path d="M42.6391 21.2408
L42.6089 21.5432
" />
<path d="M42.6089 21.5432
L42.6391 21.5129
" />
<path d="M42.6391 21.5129
L42.6996 21.4827
" />
<path d="M42.6996 21.4827
L42.8508 21.4827
" />
<path d="M42.8508 21.4827
L42.9113 21.5129
" />
<path d="M42.9113 21.5129
L42.9415 21.5432
" />
<path d="M42.9415 21.5432
L42.9718 21.6036
" />
<path d="M42.9718 21.6036
L42.9718 21.7548
" />
<path d="M42.9718 21.7548
L42.9415 21.8153
" />
<path d="M42.9415 21.8153
L42.9113 21.8456
" />
<path d="M42.9113 21.8456
L42.8508 21.8758
" />
<path d="M42.8508 21.8758
L42.6996 21.8758
" />
<path d="M42.6996 21.8758
L42.6391 21.8456
" />
<path d="M42.6391 21.8456
L42.6089 21.8153
" />
</g><path d="M40.6400 21.5900
L38.1000 21.5900
" />
<text x="41.1480" y="21.9075"
textLength="2.1748" font-size="0.8466" lengthAdjust="spacingAndGlyphs"
text-anchor="start" opacity="0" stroke-opacity="0">D15</text>
<g class="stroked-text"><desc>D15</desc>
<path d="M41.3993 21.8758
L41.3993 21.2408
" />
<path d="M41.3993 21.2408
L41.5505 21.2408
" />
<path d="M41.5505 21.2408
L41.6412 21.2710
" />
<path d="M41.6412 21.2710
L41.7017 21.3315
" />
<path d="M41.7017 21.3315
L41.7320 21.3920
" />
<path d="M41.7320 21.3920
L41.7622 21.5129
" />
<path d="M41.7622 21.5129
L41.7622 21.6036
" />
<path d="M41.7622 21.6036
L41.7320 21.7246
" />
<path d="M41.7320 21.7246
L41.7017 21.7851
" />
<path d="M41.7017 21.7851
L41.6412 21.8456
" />
<path d="M41.6412 21.8456
L41.5505 21.8758
" />
<path d="M41.5505 21.8758
L41.3993 21.8758
" />
<path d="M42.3670 21.8758
L42.0041 21.8758
" />
<path d="M42.1855 21.8758
L42.1855 21.2408
" />
<path d="M42.1855 21.2408
L42.1251 21.3315
" />
<path d="M42.1251 21.3315
L42.0646 21.3920
" />
<path d="M42.0646 21.3920
L42.0041 21.4222
" />
<path d="M42.9415 21.2408
L42.6391 21.2408
" />
<path d="M42.6391 21.2408
L42.6089 21.5432
" />
<path d="M42.6089 21.5432
L42.6391 21.5129
" />
<path d="M42.6391 21.5129
L42.6996 21.4827
" />
<path d="M42.6996 21.4827
L42.8508 21.4827
" />
<path d="M42.8508 21.4827
L42.9113 21.5129
" />
<path d="M42.9113 21.5129
L42.9415 21.5432
" />
<path d="M42.9415 21.5432
L42.9718 21.6036
" />
<path d="M42.9718 21.6036
L42.9718 21.7548
" />
<path d="M42.9718 21.7548
L42.9415 21.8153
" />
<path d="M42.9415 21.8153
L42.9113 21.8456
" />
<path d="M42.9113 21.8456
L42.8508 21.8758
" />
<path d="M42.8508 21.8758
L42.6996 21.8758
" />
<path d="M42.6996 21.8758
L42.6391 21.8456
" />
<path d="M42.6391 21.8456
L42.6089 21.8153
" />
</g><path d="M40.6400 22.8600
L38.1000 22.8600
" />
<text x="41.1480" y="23.1775"
textLength="1.5700" font-size="0.8466" lengthAdjust="spacingAndGlyphs"
text-anchor="start" opacity="0" stroke-opacity="0">D2</text>
<g class="stroked-text"><desc>D2</desc>
<path d="M41.3993 23.1458
L41.3993 22.5108
" />
<path d="M41.3993 22.5108
L41.5505 22.5108
" />
<path d="M41.5505 22.5108
L41.6412 22.5410
" />
<path d="M41.6412 22.5410
L41.7017 22.6015
" />
<path d="M41.7017 22.6015
L41.7320 22.6620
" />
<path d="M41.7320 22.6620
L41.7622 22.7829
" />
<path d="M41.7622 22.7829
L41.7622 22.8736
" />
<path d="M41.7622 22.8736
L41.7320 22.9946
" />
<path d="M41.7320 22.9946
L41.7017 23.0551
" />
<path d="M41.7017 23.0551
L41.6412 23.1156
" />
<path d="M41.6412 23.1156
L41.5505 23.1458
" />
<path d="M41.5505 23.1458
L41.3993 23.1458
" />
<path d="M42.0041 22.5713
L42.0343 22.5410
" />
<path d="M42.0343 22.5410
L42.0948 22.5108
" />
<path d="M42.0948 22.5108
L42.2460 22.5108
" />
<path d="M42.2460 22.5108
L42.3065 22.5410
" />
<path d="M42.3065 22.5410
L42.3367 22.5713
" />
<path d="M42.3367 22.5713
L42.3670 22.6317
" />
<path d="M42.3670 22.6317
L42.3670 22.6922
" />
<path d="M42.3670 22.6922
L42.3367 22.7829
" />
<path d="M42.3367 22.7829
L41.9739 23.1458
" />
<path d="M41.9739 23.1458
L42.3670 23.1458
" />
</g><path d="M40.6400 24.1300
L38.1000 24.1300
" />
<text x="41.1480" y="24.4475"
textLength="1.5700" font-size="0.8466" lengthAdjust="spacingAndGlyphs"
text-anchor="start" opacity="0" stroke-opacity="0">D4</text>
<g class="stroked-text"><desc>D4</desc>
<path d="M41.3993 24.4158
L41.3993 23.7808
" />
<path d="M41.3993 23.7808
L41.5505 23.7808
" />
<path d="M41.5505 23.7808
L41.6412 23.8110
" />
<path d="M41.6412 23.8110
L41.7017 23.8715
" />
<path d="M41.7017 23.8715
L41.7320 23.9320
" />
<path d="M41.7320 23.9320
L41.7622 24.0529
" />
<path d="M41.7622 24.0529
L41.7622 24.1436
" />
<path d="M41.7622 24.1436
L41.7320 24.2646
" />
<path d="M41.7320 24.2646
L41.7017 24.3251
" />
<path d="M41.7017 24.3251
L41.6412 24.3856
" />
<path d="M41.6412 24.3856
L41.5505 24.4158
" />
<path d="M41.5505 24.4158
L41.3993 24.4158
" />
<path d="M42.3065 23.9925
L42.3065 24.4158
" />
<path d="M42.1553 23.7506
L42.0041 24.2041
" />
<path d="M42.0041 24.2041
L42.3972 24.2041
" />
</g><path d="M40.6400 25.4000
L38.1000 25.4000
" />
<text x="41.1480" y="25.7175"
textLength="2.1748" font-size="0.8466" lengthAdjust="spacingAndGlyphs"
text-anchor="start" opacity="0" stroke-opacity="0">RX2</text>
<g class="stroked-text"><desc>RX2</desc>
<path d="M41.7622 25.6858
L41.5505 25.3834
" />
<path d="M41.3993 25.6858
L41.3993 25.0508
" />
<path d="M41.3993 25.0508
L41.6412 25.0508
" />
<path d="M41.6412 25.0508
L41.7017 25.0810
" />
<path d="M41.7017 25.0810
L41.7320 25.1113
" />
<path d="M41.7320 25.1113
L41.7622 25.1717
" />
<path d="M41.7622 25.1717
L41.7622 25.2625
" />
<path d="M41.7622 25.2625
L41.7320 25.3229
" />
<path d="M41.7320 25.3229
L41.7017 25.3532
" />
<path d="M41.7017 25.3532
L41.6412 25.3834
" />
<path d="M41.6412 25.3834
L41.3993 25.3834
" />
<path d="M41.9739 25.0508
L42.3972 25.6858
" />
<path d="M42.3972 25.0508
L41.9739 25.6858
" />
<path d="M42.6089 25.1113
L42.6391 25.0810
" />
<path d="M42.6391 25.0810
L42.6996 25.0508
" />
<path d="M42.6996 25.0508
L42.8508 25.0508
" />
<path d="M42.8508 25.0508
L42.9113 25.0810
" />
<path d="M42.9113 25.0810
L42.9415 25.1113
" />
<path d="M42.9415 25.1113
L42.9718 25.1717
" />
<path d="M42.9718 25.1717
L42.9718 25.2322
" />
<path d="M42.9718 25.2322
L42.9415 25.3229
" />
<path d="M42.9415 25.3229
L42.5787 25.6858
" />
<path d="M42.5787 25.6858
L42.9718 25.6858
" />
</g><path d="M40.6400 26.6700
L38.1000 26.6700
" />
<text x="41.1480" y="26.9875"
textLength="2.0236" font-size="0.8466" lengthAdjust="spacingAndGlyphs"
text-anchor="start" opacity="0" stroke-opacity="0">TX2</text>
<g class="stroked-text"><desc>TX2</desc>
<path d="M41.3086 26.3208
L41.6715 26.3208
" />
<path d="M41.4901 26.9558
L41.4901 26.3208
" />
<path d="M41.8227 26.3208
L42.2460 26.9558
" />
<path d="M42.2460 26.3208
L41.8227 26.9558
" />
<path d="M42.4577 26.3813
L42.4879 26.3510
" />
<path d="M42.4879 26.3510
L42.5484 26.3208
" />
<path d="M42.5484 26.3208
L42.6996 26.3208
" />
<path d="M42.6996 26.3208
L42.7601 26.3510
" />
<path d="M42.7601 26.3510
L42.7903 26.3813
" />
<path d="M42.7903 26.3813
L42.8206 26.4417
" />
<path d="M42.8206 26.4417
L42.8206 26.5022
" />
<path d="M42.8206 26.5022
L42.7903 26.5929
" />
<path d="M42.7903 26.5929
L42.4275 26.9558
" />
<path d="M42.4275 26.9558
L42.8206 26.9558
" />
</g><path d="M40.6400 27.9400
L38.1000 27.9400
" />
<text x="41.1480" y="28.2575"
textLength="1.5700" font-size="0.8466" lengthAdjust="spacingAndGlyphs"
text-anchor="start" opacity="0" stroke-opacity="0">D5</text>
<g class="stroked-text"><desc>D5</desc>
<path d="M41.3993 28.2258
L41.3993 27.5908
" />
<path d="M41.3993 27.5908
L41.5505 27.5908
" />
<path d="M41.5505 27.5908
L41.6412 27.6210
" />
<path d="M41.6412 27.6210
L41.7017 27.6815
" />
<path d="M41.7017 27.6815
L41.7320 27.7420
" />
<path d="M41.7320 27.7420
L41.7622 27.8629
" />
<path d="M41.7622 27.8629
L41.7622 27.9536
" />
<path d="M41.7622 27.9536
L41.7320 28.0746
" />
<path d="M41.7320 28.0746
L41.7017 28.1351
" />
<path d="M41.7017 28.1351
L41.6412 28.1956
" />
<path d="M41.6412 28.1956
L41.5505 28.2258
" />
<path d="M41.5505 28.2258
L41.3993 28.2258
" />
<path d="M42.3367 27.5908
L42.0343 27.5908
" />
<path d="M42.0343 27.5908
L42.0041 27.8932
" />
<path d="M42.0041 27.8932
L42.0343 27.8629
" />
<path d="M42.0343 27.8629
L42.0948 27.8327
" />
<path d="M42.0948 27.8327
L42.2460 27.8327
" />
<path d="M42.2460 27.8327
L42.3065 27.8629
" />
<path d="M42.3065 27.8629
L42.3367 27.8932
" />
<path d="M42.3367 27.8932
L42.3670 27.9536
" />
<path d="M42.3670 27.9536
L42.3670 28.1048
" />
<path d="M42.3670 28.1048
L42.3367 28.1653
" />
<path d="M42.3367 28.1653
L42.3065 28.1956
" />
<path d="M42.3065 28.1956
L42.2460 28.2258
" />
<path d="M42.2460 28.2258
L42.0948 28.2258
" />
<path d="M42.0948 28.2258
L42.0343 28.1956
" />
<path d="M42.0343 28.1956
L42.0041 28.1653
" />
</g><path d="M40.6400 29.2100
L38.1000 29.2100
" />
<text x="41.1480" y="29.5275"
textLength="2.1748" font-size="0.8466" lengthAdjust="spacingAndGlyphs"
text-anchor="start" opacity="0" stroke-opacity="0">D18</text>
<g class="stroked-text"><desc>D18</desc>
<path d="M41.3993 29.4958
L41.3993 28.8608
" />
<path d="M41.3993 28.8608
L41.5505 28.8608
" />
<path d="M41.5505 28.8608
L41.6412 28.8910
" />
<path d="M41.6412 28.8910
L41.7017 28.9515
" />
<path d="M41.7017 28.9515
L41.7320 29.0120
" />
<path d="M41.7320 29.0120
L41.7622 29.1329
" />
<path d="M41.7622 29.1329
L41.7622 29.2236
" />
<path d="M41.7622 29.2236
L41.7320 29.3446
" />
<path d="M41.7320 29.3446
L41.7017 29.4051
" />
<path d="M41.7017 29.4051
L41.6412 29.4656
" />
<path d="M41.6412 29.4656
L41.5505 29.4958
" />
<path d="M41.5505 29.4958
L41.3993 29.4958
" />
<path d="M42.3670 29.4958
L42.0041 29.4958
" />
<path d="M42.1855 29.4958
L42.1855 28.8608
" />
<path d="M42.1855 28.8608
L42.1251 28.9515
" />
<path d="M42.1251 28.9515
L42.0646 29.0120
" />
<path d="M42.0646 29.0120
L42.0041 29.0422
" />
<path d="M42.7299 29.1329
L42.6694 29.1027
" />
<path d="M42.6694 29.1027
L42.6391 29.0725
" />
<path d="M42.6391 29.0725
L42.6089 29.0120
" />
<path d="M42.6089 29.0120
L42.6089 28.9817
" />
<path d="M42.6089 28.9817
L42.6391 28.9213
" />
<path d="M42.6391 28.9213
L42.6694 28.8910
" />
<path d="M42.6694 28.8910
L42.7299 28.8608
" />
<path d="M42.7299 28.8608
L42.8508 28.8608
" />
<path d="M42.8508 28.8608
L42.9113 28.8910
" />
<path d="M42.9113 28.8910
L42.9415 28.9213
" />
<path d="M42.9415 28.9213
L42.9718 28.9817
" />
<path d="M42.9718 28.9817
L42.9718 29.0120
" />
<path d="M42.9718 29.0120
L42.9415 29.0725
" />
<path d="M42.9415 29.0725
L42.9113 29.1027
" />
<path d="M42.9113 29.1027
L42.8508 29.1329
" />
<path d="M42.8508 29.1329
L42.7299 29.1329
" />
<path d="M42.7299 29.1329
L42.6694 29.1632
" />
<path d="M42.6694 29.1632
L42.6391 29.1934
" />
<path d="M42.6391 29.1934
L42.6089 29.2539
" />
<path d="M42.6089 29.2539
L42.6089 29.3748
" />
<path d="M42.6089 29.3748
L42.6391 29.4353
" />
<path d="M42.6391 29.4353
L42.6694 29.4656
" />
<path d="M42.6694 29.4656
L42.7299 29.4958
" />
<path d="M42.7299 29.4958
L42.8508 29.4958
" />
<path d="M42.8508 29.4958
L42.9113 29.4656
" />
<path d="M42.9113 29.4656
L42.9415 29.4353
" />
<path d="M42.9415 29.4353
L42.9718 29.3748
" />
<path d="M42.9718 29.3748
L42.9718 29.2539
" />
<path d="M42.9718 29.2539
L42.9415 29.1934
" />
<path d="M42.9415 29.1934
L42.9113 29.1632
" />
<path d="M42.9113 29.1632
L42.8508 29.1329
" />
</g><path d="M40.6400 30.4800
L38.1000 30.4800
" />
<text x="41.1480" y="30.7975"
textLength="2.1748" font-size="0.8466" lengthAdjust="spacingAndGlyphs"
text-anchor="start" opacity="0" stroke-opacity="0">D19</text>
<g class="stroked-text"><desc>D19</desc>
<path d="M41.3993 30.7658
L41.3993 30.1308
" />
<path d="M41.3993 30.1308
L41.5505 30.1308
" />
<path d="M41.5505 30.1308
L41.6412 30.1610
" />
<path d="M41.6412 30.1610
L41.7017 30.2215
" />
<path d="M41.7017 30.2215
L41.7320 30.2820
" />
<path d="M41.7320 30.2820
L41.7622 30.4029
" />
<path d="M41.7622 30.4029
L41.7622 30.4936
" />
<path d="M41.7622 30.4936
L41.7320 30.6146
" />
<path d="M41.7320 30.6146
L41.7017 30.6751
" />
<path d="M41.7017 30.6751
L41.6412 30.7356
" />
<path d="M41.6412 30.7356
L41.5505 30.7658
" />
<path d="M41.5505 30.7658
L41.3993 30.7658
" />
<path d="M42.3670 30.7658
L42.0041 30.7658
" />
<path d="M42.1855 30.7658
L42.1855 30.1308
" />
<path d="M42.1855 30.1308
L42.1251 30.2215
" />
<path d="M42.1251 30.2215
L42.0646 30.2820
" />
<path d="M42.0646 30.2820
L42.0041 30.3122
" />
<path d="M42.6694 30.7658
L42.7903 30.7658
" />
<path d="M42.7903 30.7658
L42.8508 30.7356
" />
<path d="M42.8508 30.7356
L42.8810 30.7053
" />
<path d="M42.8810 30.7053
L42.9415 30.6146
" />
<path d="M42.9415 30.6146
L42.9718 30.4936
" />
<path d="M42.9718 30.4936
L42.9718 30.2517
" />
<path d="M42.9718 30.2517
L42.9415 30.1913
" />
<path d="M42.9415 30.1913
L42.9113 30.1610
" />
<path d="M42.9113 30.1610
L42.8508 30.1308
" />
<path d="M42.8508 30.1308
L42.7299 30.1308
" />
<path d="M42.7299 30.1308
L42.6694 30.1610
" />
<path d="M42.6694 30.1610
L42.6391 30.1913
" />
<path d="M42.6391 30.1913
L42.6089 30.2517
" />
<path d="M42.6089 30.2517
L42.6089 30.4029
" />
<path d="M42.6089 30.4029
L42.6391 30.4634
" />
<path d="M42.6391 30.4634
L42.6694 30.4936
" />
<path d="M42.6694 30.4936
L42.7299 30.5239
" />
<path d="M42.7299 30.5239
L42.8508 30.5239
" />
<path d="M42.8508 30.5239
L42.9113 30.4936
" />
<path d="M42.9113 30.4936
L42.9415 30.4634
" />
<path d="M42.9415 30.4634
L42.9718 30.4029
" />
</g><path d="M40.6400 31.7500
L38.1000 31.7500
" />
<text x="41.1480" y="32.0675"
textLength="2.1748" font-size="0.8466" lengthAdjust="spacingAndGlyphs"
text-anchor="start" opacity="0" stroke-opacity="0">D21</text>
<g class="stroked-text"><desc>D21</desc>
<path d="M41.3993 32.0358
L41.3993 31.4008
" />
<path d="M41.3993 31.4008
L41.5505 31.4008
" />
<path d="M41.5505 31.4008
L41.6412 31.4310
" />
<path d="M41.6412 31.4310
L41.7017 31.4915
" />
<path d="M41.7017 31.4915
L41.7320 31.5520
" />
<path d="M41.7320 31.5520
L41.7622 31.6729
" />
<path d="M41.7622 31.6729
L41.7622 31.7636
" />
<path d="M41.7622 31.7636
L41.7320 31.8846
" />
<path d="M41.7320 31.8846
L41.7017 31.9451
" />
<path d="M41.7017 31.9451
L41.6412 32.0056
" />
<path d="M41.6412 32.0056
L41.5505 32.0358
" />
<path d="M41.5505 32.0358
L41.3993 32.0358
" />
<path d="M42.0041 31.4613
L42.0343 31.4310
" />
<path d="M42.0343 31.4310
L42.0948 31.4008
" />
<path d="M42.0948 31.4008
L42.2460 31.4008
" />
<path d="M42.2460 31.4008
L42.3065 31.4310
" />
<path d="M42.3065 31.4310
L42.3367 31.4613
" />
<path d="M42.3367 31.4613
L42.3670 31.5217
" />
<path d="M42.3670 31.5217
L42.3670 31.5822
" />
<path d="M42.3670 31.5822
L42.3367 31.6729
" />
<path d="M42.3367 31.6729
L41.9739 32.0358
" />
<path d="M41.9739 32.0358
L42.3670 32.0358
" />
<path d="M42.9718 32.0358
L42.6089 32.0358
" />
<path d="M42.7903 32.0358
L42.7903 31.4008
" />
<path d="M42.7903 31.4008
L42.7299 31.4915
" />
<path d="M42.7299 31.4915
L42.6694 31.5520
" />
<path d="M42.6694 31.5520
L42.6089 31.5822
" />
</g><path d="M40.6400 33.0200
L38.1000 33.0200
" />
<text x="41.1480" y="33.3375"
textLength="2.1748" font-size="0.8466" lengthAdjust="spacingAndGlyphs"
text-anchor="start" opacity="0" stroke-opacity="0">RX0</text>
<g class="stroked-text"><desc>RX0</desc>
<path d="M41.7622 33.3058
L41.5505 33.0034
" />
<path d="M41.3993 33.3058
L41.3993 32.6708
" />
<path d="M41.3993 32.6708
L41.6412 32.6708
" />
<path d="M41.6412 32.6708
L41.7017 32.7010
" />
<path d="M41.7017 32.7010
L41.7320 32.7313
" />
<path d="M41.7320 32.7313
L41.7622 32.7917
" />
<path d="M41.7622 32.7917
L41.7622 32.8825
" />
<path d="M41.7622 32.8825
L41.7320 32.9429
" />
<path d="M41.7320 32.9429
L41.7017 32.9732
" />
<path d="M41.7017 32.9732
L41.6412 33.0034
" />
<path d="M41.6412 33.0034
L41.3993 33.0034
" />
<path d="M41.9739 32.6708
L42.3972 33.3058
" />
<path d="M42.3972 32.6708
L41.9739 33.3058
" />
<path d="M42.7601 32.6708
L42.8206 32.6708
" />
<path d="M42.8206 32.6708
L42.8810 32.7010
" />
<path d="M42.8810 32.7010
L42.9113 32.7313
" />
<path d="M42.9113 32.7313
L42.9415 32.7917
" />
<path d="M42.9415 32.7917
L42.9718 32.9127
" />
<path d="M42.9718 32.9127
L42.9718 33.0639
" />
<path d="M42.9718 33.0639
L42.9415 33.1848
" />
<path d="M42.9415 33.1848
L42.9113 33.2453
" />
<path d="M42.9113 33.2453
L42.8810 33.2756
" />
<path d="M42.8810 33.2756
L42.8206 33.3058
" />
<path d="M42.8206 33.3058
L42.7601 33.3058
" />
<path d="M42.7601 33.3058
L42.6996 33.2756
" />
<path d="M42.6996 33.2756
L42.6694 33.2453
" />
<path d="M42.6694 33.2453
L42.6391 33.1848
" />
<path d="M42.6391 33.1848
L42.6089 33.0639
" />
<path d="M42.6089 33.0639
L42.6089 32.9127
" />
<path d="M42.6089 32.9127
L42.6391 32.7917
" />
<path d="M42.6391 32.7917
L42.6694 32.7313
" />
<path d="M42.6694 32.7313
L42.6996 32.7010
" />
<path d="M42.6996 32.7010
L42.7601 32.6708
" />
</g><path d="M40.6400 34.2900
L38.1000 34.2900
" />
<text x="41.1480" y="34.6075"
textLength="2.0236" font-size="0.8466" lengthAdjust="spacingAndGlyphs"
text-anchor="start" opacity="0" stroke-opacity="0">TX0</text>
<g class="stroked-text"><desc>TX0</desc>
<path d="M41.3086 33.9408
L41.6715 33.9408
" />
<path d="M41.4901 34.5758
L41.4901 33.9408
" />
<path d="M41.8227 33.9408
L42.2460 34.5758
" />
<path d="M42.2460 33.9408
L41.8227 34.5758
" />
<path d="M42.6089 33.9408
L42.6694 33.9408
" />
<path d="M42.6694 33.9408
L42.7298 33.9710
" />
<path d="M42.7298 33.9710
L42.7601 34.0013
" />
<path d="M42.7601 34.0013
L42.7903 34.0617
" />
<path d="M42.7903 34.0617
L42.8206 34.1827
" />
<path d="M42.8206 34.1827
L42.8206 34.3339
" />
<path d="M42.8206 34.3339
L42.7903 34.4548
" />
<path d="M42.7903 34.4548
L42.7601 34.5153
" />
<path d="M42.7601 34.5153
L42.7298 34.5456
" />
<path d="M42.7298 34.5456
L42.6694 34.5758
" />
<path d="M42.6694 34.5758
L42.6089 34.5758
" />
<path d="M42.6089 34.5758
L42.5484 34.5456
" />
<path d="M42.5484 34.5456
L42.5182 34.5153
" />
<path d="M42.5182 34.5153
L42.4879 34.4548
" />
<path d="M42.4879 34.4548
L42.4577 34.3339
" />
<path d="M42.4577 34.3339
L42.4577 34.1827
" />
<path d="M42.4577 34.1827
L42.4879 34.0617
" />
<path d="M42.4879 34.0617
L42.5182 34.0013
" />
<path d="M42.5182 34.0013
L42.5484 33.9710
" />
<path d="M42.5484 33.9710
L42.6089 33.9408
" />
</g><path d="M40.6400 35.5600
L38.1000 35.5600
" />
<text x="41.1480" y="35.8775"
textLength="2.1748" font-size="0.8466" lengthAdjust="spacingAndGlyphs"
text-anchor="start" opacity="0" stroke-opacity="0">D22</text>
<g class="stroked-text"><desc>D22</desc>
<path d="M41.3993 35.8458
L41.3993 35.2108
" />
<path d="M41.3993 35.2108
L41.5505 35.2108
" />
<path d="M41.5505 35.2108
L41.6412 35.2410
" />
<path d="M41.6412 35.2410
L41.7017 35.3015
" />
<path d="M41.7017 35.3015
L41.7320 35.3620
" />
<path d="M41.7320 35.3620
L41.7622 35.4829
" />
<path d="M41.7622 35.4829
L41.7622 35.5736
" />
<path d="M41.7622 35.5736
L41.7320 35.6946
" />
<path d="M41.7320 35.6946
L41.7017 35.7551
" />
<path d="M41.7017 35.7551
L41.6412 35.8156
" />
<path d="M41.6412 35.8156
L41.5505 35.8458
" />
<path d="M41.5505 35.8458
L41.3993 35.8458
" />
<path d="M42.0041 35.2713
L42.0343 35.2410
" />
<path d="M42.0343 35.2410
L42.0948 35.2108
" />
<path d="M42.0948 35.2108
L42.2460 35.2108
" />
<path d="M42.2460 35.2108
L42.3065 35.2410
" />
<path d="M42.3065 35.2410
L42.3367 35.2713
" />
<path d="M42.3367 35.2713
L42.3670 35.3317
" />
<path d="M42.3670 35.3317
L42.3670 35.3922
" />
<path d="M42.3670 35.3922
L42.3367 35.4829
" />
<path d="M42.3367 35.4829
L41.9739 35.8458
" />
<path d="M41.9739 35.8458
L42.3670 35.8458
" />
<path d="M42.6089 35.2713
L42.6391 35.2410
" />
<path d="M42.6391 35.2410
L42.6996 35.2108
" />
<path d="M42.6996 35.2108
L42.8508 35.2108
" />
<path d="M42.8508 35.2108
L42.9113 35.2410
" />
<path d="M42.9113 35.2410
L42.9415 35.2713
" />
<path d="M42.9415 35.2713
L42.9718 35.3317
" />
<path d="M42.9718 35.3317
L42.9718 35.3922
" />
<path d="M42.9718 35.3922
L42.9415 35.4829
" />
<path d="M42.9415 35.4829
L42.5787 35.8458
" />
<path d="M42.5787 35.8458
L42.9718 35.8458
" />
</g><path d="M40.6400 36.8300
L38.1000 36.8300
" />
<text x="41.1480" y="37.1475"
textLength="2.1748" font-size="0.8466" lengthAdjust="spacingAndGlyphs"
text-anchor="start" opacity="0" stroke-opacity="0">D23</text>
<g class="stroked-text"><desc>D23</desc>
<path d="M41.3993 37.1158
L41.3993 36.4808
" />
<path d="M41.3993 36.4808
L41.5505 36.4808
" />
<path d="M41.5505 36.4808
L41.6412 36.5110
" />
<path d="M41.6412 36.5110
L41.7017 36.5715
" />
<path d="M41.7017 36.5715
L41.7320 36.6320
" />
<path d="M41.7320 36.6320
L41.7622 36.7529
" />
<path d="M41.7622 36.7529
L41.7622 36.8436
" />
<path d="M41.7622 36.8436
L41.7320 36.9646
" />
<path d="M41.7320 36.9646
L41.7017 37.0251
" />
<path d="M41.7017 37.0251
L41.6412 37.0856
" />
<path d="M41.6412 37.0856
L41.5505 37.1158
" />
<path d="M41.5505 37.1158
L41.3993 37.1158
" />
<path d="M42.0041 36.5413
L42.0343 36.5110
" />
<path d="M42.0343 36.5110
L42.0948 36.4808
" />
<path d="M42.0948 36.4808
L42.2460 36.4808
" />
<path d="M42.2460 36.4808
L42.3065 36.5110
" />
<path d="M42.3065 36.5110
L42.3367 36.5413
" />
<path d="M42.3367 36.5413
L42.3670 36.6017
" />
<path d="M42.3670 36.6017
L42.3670 36.6622
" />
<path d="M42.3670 36.6622
L42.3367 36.7529
" />
<path d="M42.3367 36.7529
L41.9739 37.1158
" />
<path d="M41.9739 37.1158
L42.3670 37.1158
" />
<path d="M42.5787 36.4808
L42.9718 36.4808
" />
<path d="M42.9718 36.4808
L42.7601 36.7227
" />
<path d="M42.7601 36.7227
L42.8508 36.7227
" />
<path d="M42.8508 36.7227
L42.9113 36.7529
" />
<path d="M42.9113 36.7529
L42.9415 36.7832
" />
<path d="M42.9415 36.7832
L42.9718 36.8436
" />
<path d="M42.9718 36.8436
L42.9718 36.9948
" />
<path d="M42.9718 36.9948
L42.9415 37.0553
" />
<path d="M42.9415 37.0553
L42.9113 37.0856
" />
<path d="M42.9113 37.0856
L42.8508 37.1158
" />
<path d="M42.8508 37.1158
L42.6694 37.1158
" />
<path d="M42.6694 37.1158
L42.6089 37.0856
" />
<path d="M42.6089 37.0856
L42.5787 37.0553
" />
</g><path d="M55.8800 19.0500
L58.4200 19.0500
" />
<text x="55.3720" y="19.3675"
textLength="1.4793" font-size="0.8466" lengthAdjust="spacingAndGlyphs"
text-anchor="end" opacity="0" stroke-opacity="0">5V</text>
<g class="stroked-text"><desc>5V</desc>
<path d="M54.5762 18.7008
L54.2738 18.7008
" />
<path d="M54.2738 18.7008
L54.2436 19.0032
" />
<path d="M54.2436 19.0032
L54.2738 18.9729
" />
<path d="M54.2738 18.9729
L54.3343 18.9427
" />
<path d="M54.3343 18.9427
L54.4855 18.9427
" />
<path d="M54.4855 18.9427
L54.5460 18.9729
" />
<path d="M54.5460 18.9729
L54.5762 19.0032
" />
<path d="M54.5762 19.0032
L54.6065 19.0636
" />
<path d="M54.6065 19.0636
L54.6065 19.2148
" />
<path d="M54.6065 19.2148
L54.5762 19.2753
" />
<path d="M54.5762 19.2753
L54.5460 19.3056
" />
<path d="M54.5460 19.3056
L54.4855 19.3358
" />
<path d="M54.4855 19.3358
L54.3343 19.3358
" />
<path d="M54.3343 19.3358
L54.2738 19.3056
" />
<path d="M54.2738 19.3056
L54.2436 19.2753
" />
<path d="M54.7879 18.7008
L54.9996 19.3358
" />
<path d="M54.9996 19.3358
L55.2113 18.7008
" />
</g><path d="M55.8800 20.3200
L58.4200 20.3200
" />
<text x="55.3720" y="20.6375"
textLength="2.2654" font-size="0.8466" lengthAdjust="spacingAndGlyphs"
text-anchor="end" opacity="0" stroke-opacity="0">GND</text>
<g class="stroked-text"><desc>GND</desc>
<path d="M53.8204 20.0010
L53.7599 19.9708
" />
<path d="M53.7599 19.9708
L53.6692 19.9708
" />
<path d="M53.6692 19.9708
L53.5785 20.0010
" />
<path d="M53.5785 20.0010
L53.5180 20.0615
" />
<path d="M53.5180 20.0615
L53.4877 20.1220
" />
<path d="M53.4877 20.1220
L53.4575 20.2429
" />
<path d="M53.4575 20.2429
L53.4575 20.3336
" />
<path d="M53.4575 20.3336
L53.4877 20.4546
" />
<path d="M53.4877 20.4546
L53.5180 20.5151
" />
<path d="M53.5180 20.5151
L53.5785 20.5756
" />
<path d="M53.5785 20.5756
L53.6692 20.6058
" />
<path d="M53.6692 20.6058
L53.7296 20.6058
" />
<path d="M53.7296 20.6058
L53.8204 20.5756
" />
<path d="M53.8204 20.5756
L53.8506 20.5453
" />
<path d="M53.8506 20.5453
L53.8506 20.3336
" />
<path d="M53.8506 20.3336
L53.7296 20.3336
" />
<path d="M54.1227 20.6058
L54.1227 19.9708
" />
<path d="M54.1227 19.9708
L54.4856 20.6058
" />
<path d="M54.4856 20.6058
L54.4856 19.9708
" />
<path d="M54.7879 20.6058
L54.7879 19.9708
" />
<path d="M54.7879 19.9708
L54.9391 19.9708
" />
<path d="M54.9391 19.9708
L55.0298 20.0010
" />
<path d="M55.0298 20.0010
L55.0903 20.0615
" />
<path d="M55.0903 20.0615
L55.1206 20.1220
" />
<path d="M55.1206 20.1220
L55.1508 20.2429
" />
<path d="M55.1508 20.2429
L55.1508 20.3336
" />
<path d="M55.1508 20.3336
L55.1206 20.4546
" />
<path d="M55.1206 20.4546
L55.0903 20.5151
" />
<path d="M55.0903 20.5151
L55.0298 20.5756
" />
<path d="M55.0298 20.5756
L54.9391 20.6058
" />
<path d="M54.9391 20.6058
L54.7879 20.6058
" />
</g><path d="M55.8800 21.5900
L58.4200 21.5900
" />
<text x="55.3720" y="21.9075"
textLength="2.1748" font-size="0.8466" lengthAdjust="spacingAndGlyphs"
text-anchor="end" opacity="0" stroke-opacity="0">D13</text>
<g class="stroked-text"><desc>D13</desc>
<path d="M53.5783 21.8758
L53.5783 21.2408
" />
<path d="M53.5783 21.2408
L53.7295 21.2408
" />
<path d="M53.7295 21.2408
L53.8202 21.2710
" />
<path d="M53.8202 21.2710
L53.8807 21.3315
" />
<path d="M53.8807 21.3315
L53.9110 21.3920
" />
<path d="M53.9110 21.3920
L53.9412 21.5129
" />
<path d="M53.9412 21.5129
L53.9412 21.6036
" />
<path d="M53.9412 21.6036
L53.9110 21.7246
" />
<path d="M53.9110 21.7246
L53.8807 21.7851
" />
<path d="M53.8807 21.7851
L53.8202 21.8456
" />
<path d="M53.8202 21.8456
L53.7295 21.8758
" />
<path d="M53.7295 21.8758
L53.5783 21.8758
" />
<path d="M54.5460 21.8758
L54.1831 21.8758
" />
<path d="M54.3645 21.8758
L54.3645 21.2408
" />
<path d="M54.3645 21.2408
L54.3041 21.3315
" />
<path d="M54.3041 21.3315
L54.2436 21.3920
" />
<path d="M54.2436 21.3920
L54.1831 21.4222
" />
<path d="M54.7577 21.2408
L55.1508 21.2408
" />
<path d="M55.1508 21.2408
L54.9391 21.4827
" />
<path d="M54.9391 21.4827
L55.0298 21.4827
" />
<path d="M55.0298 21.4827
L55.0903 21.5129
" />
<path d="M55.0903 21.5129
L55.1205 21.5432
" />
<path d="M55.1205 21.5432
L55.1508 21.6036
" />
<path d="M55.1508 21.6036
L55.1508 21.7548
" />
<path d="M55.1508 21.7548
L55.1205 21.8153
" />
<path d="M55.1205 21.8153
L55.0903 21.8456
" />
<path d="M55.0903 21.8456
L55.0298 21.8758
" />
<path d="M55.0298 21.8758
L54.8484 21.8758
" />
<path d="M54.8484 21.8758
L54.7879 21.8456
" />
<path d="M54.7879 21.8456
L54.7577 21.8153
" />
</g><path d="M55.8800 22.8600
L58.4200 22.8600
" />
<text x="55.3720" y="23.1775"
textLength="2.1748" font-size="0.8466" lengthAdjust="spacingAndGlyphs"
text-anchor="end" opacity="0" stroke-opacity="0">D12</text>
<g class="stroked-text"><desc>D12</desc>
<path d="M53.5783 23.1458
L53.5783 22.5108
" />
<path d="M53.5783 22.5108
L53.7295 22.5108
" />
<path d="M53.7295 22.5108
L53.8202 22.5410
" />
<path d="M53.8202 22.5410
L53.8807 22.6015
" />
<path d="M53.8807 22.6015
L53.9110 22.6620
" />
<path d="M53.9110 22.6620
L53.9412 22.7829
" />
<path d="M53.9412 22.7829
L53.9412 22.8736
" />
<path d="M53.9412 22.8736
L53.9110 22.9946
" />
<path d="M53.9110 22.9946
L53.8807 23.0551
" />
<path d="M53.8807 23.0551
L53.8202 23.1156
" />
<path d="M53.8202 23.1156
L53.7295 23.1458
" />
<path d="M53.7295 23.1458
L53.5783 23.1458
" />
<path d="M54.5460 23.1458
L54.1831 23.1458
" />
<path d="M54.3645 23.1458
L54.3645 22.5108
" />
<path d="M54.3645 22.5108
L54.3041 22.6015
" />
<path d="M54.3041 22.6015
L54.2436 22.6620
" />
<path d="M54.2436 22.6620
L54.1831 22.6922
" />
<path d="M54.7879 22.5713
L54.8181 22.5410
" />
<path d="M54.8181 22.5410
L54.8786 22.5108
" />
<path d="M54.8786 22.5108
L55.0298 22.5108
" />
<path d="M55.0298 22.5108
L55.0903 22.5410
" />
<path d="M55.0903 22.5410
L55.1205 22.5713
" />
<path d="M55.1205 22.5713
L55.1508 22.6317
" />
<path d="M55.1508 22.6317
L55.1508 22.6922
" />
<path d="M55.1508 22.6922
L55.1205 22.7829
" />
<path d="M55.1205 22.7829
L54.7577 23.1458
" />
<path d="M54.7577 23.1458
L55.1508 23.1458
" />
</g><path d="M55.8800 24.1300
L58.4200 24.1300
" />
<text x="55.3720" y="24.4475"
textLength="2.1748" font-size="0.8466" lengthAdjust="spacingAndGlyphs"
text-anchor="end" opacity="0" stroke-opacity="0">D14</text>
<g class="stroked-text"><desc>D14</desc>
<path d="M53.5783 24.4158
L53.5783 23.7808
" />
<path d="M53.5783 23.7808
L53.7295 23.7808
" />
<path d="M53.7295 23.7808
L53.8202 23.8110
" />
<path d="M53.8202 23.8110
L53.8807 23.8715
" />
<path d="M53.8807 23.8715
L53.9110 23.9320
" />
<path d="M53.9110 23.9320
L53.9412 24.0529
" />
<path d="M53.9412 24.0529
L53.9412 24.1436
" />
<path d="M53.9412 24.1436
L53.9110 24.2646
" />
<path d="M53.9110 24.2646
L53.8807 24.3251
" />
<path d="M53.8807 24.3251
L53.8202 24.3856
" />
<path d="M53.8202 24.3856
L53.7295 24.4158
" />
<path d="M53.7295 24.4158
L53.5783 24.4158
" />
<path d="M54.5460 24.4158
L54.1831 24.4158
" />
<path d="M54.3645 24.4158
L54.3645 23.7808
" />
<path d="M54.3645 23.7808
L54.3041 23.8715
" />
<path d="M54.3041 23.8715
L54.2436 23.9320
" />
<path d="M54.2436 23.9320
L54.1831 23.9622
" />
<path d="M55.0903 23.9925
L55.0903 24.4158
" />
<path d="M54.9391 23.7506
L54.7879 24.2041
" />
<path d="M54.7879 24.2041
L55.1810 24.2041
" />
</g><path d="M55.8800 25.4000
L58.4200 25.4000
" />
<text x="55.3720" y="25.7175"
textLength="2.1748" font-size="0.8466" lengthAdjust="spacingAndGlyphs"
text-anchor="end" opacity="0" stroke-opacity="0">D27</text>
<g class="stroked-text"><desc>D27</desc>
<path d="M53.5783 25.6858
L53.5783 25.0508
" />
<path d="M53.5783 25.0508
L53.7295 25.0508
" />
<path d="M53.7295 25.0508
L53.8202 25.0810
" />
<path d="M53.8202 25.0810
L53.8807 25.1415
" />
<path d="M53.8807 25.1415
L53.9110 25.2020
" />
<path d="M53.9110 25.2020
L53.9412 25.3229
" />
<path d="M53.9412 25.3229
L53.9412 25.4136
" />
<path d="M53.9412 25.4136
L53.9110 25.5346
" />
<path d="M53.9110 25.5346
L53.8807 25.5951
" />
<path d="M53.8807 25.5951
L53.8202 25.6556
" />
<path d="M53.8202 25.6556
L53.7295 25.6858
" />
<path d="M53.7295 25.6858
L53.5783 25.6858
" />
<path d="M54.1831 25.1113
L54.2133 25.0810
" />
<path d="M54.2133 25.0810
L54.2738 25.0508
" />
<path d="M54.2738 25.0508
L54.4250 25.0508
" />
<path d="M54.4250 25.0508
L54.4855 25.0810
" />
<path d="M54.4855 25.0810
L54.5157 25.1113
" />
<path d="M54.5157 25.1113
L54.5460 25.1717
" />
<path d="M54.5460 25.1717
L54.5460 25.2322
" />
<path d="M54.5460 25.2322
L54.5157 25.3229
" />
<path d="M54.5157 25.3229
L54.1529 25.6858
" />
<path d="M54.1529 25.6858
L54.5460 25.6858
" />
<path d="M54.7577 25.0508
L55.1810 25.0508
" />
<path d="M55.1810 25.0508
L54.9089 25.6858
" />
</g><path d="M55.8800 26.6700
L58.4200 26.6700
" />
<text x="55.3720" y="26.9875"
textLength="2.1748" font-size="0.8466" lengthAdjust="spacingAndGlyphs"
text-anchor="end" opacity="0" stroke-opacity="0">D26</text>
<g class="stroked-text"><desc>D26</desc>
<path d="M53.5783 26.9558
L53.5783 26.3208
" />
<path d="M53.5783 26.3208
L53.7295 26.3208
" />
<path d="M53.7295 26.3208
L53.8202 26.3510
" />
<path d="M53.8202 26.3510
L53.8807 26.4115
" />
<path d="M53.8807 26.4115
L53.9110 26.4720
" />
<path d="M53.9110 26.4720
L53.9412 26.5929
" />
<path d="M53.9412 26.5929
L53.9412 26.6836
" />
<path d="M53.9412 26.6836
L53.9110 26.8046
" />
<path d="M53.9110 26.8046
L53.8807 26.8651
" />
<path d="M53.8807 26.8651
L53.8202 26.9256
" />
<path d="M53.8202 26.9256
L53.7295 26.9558
" />
<path d="M53.7295 26.9558
L53.5783 26.9558
" />
<path d="M54.1831 26.3813
L54.2133 26.3510
" />
<path d="M54.2133 26.3510
L54.2738 26.3208
" />
<path d="M54.2738 26.3208
L54.4250 26.3208
" />
<path d="M54.4250 26.3208
L54.4855 26.3510
" />
<path d="M54.4855 26.3510
L54.5157 26.3813
" />
<path d="M54.5157 26.3813
L54.5460 26.4417
" />
<path d="M54.5460 26.4417
L54.5460 26.5022
" />
<path d="M54.5460 26.5022
L54.5157 26.5929
" />
<path d="M54.5157 26.5929
L54.1529 26.9558
" />
<path d="M54.1529 26.9558
L54.5460 26.9558
" />
<path d="M55.0903 26.3208
L54.9693 26.3208
" />
<path d="M54.9693 26.3208
L54.9089 26.3510
" />
<path d="M54.9089 26.3510
L54.8786 26.3813
" />
<path d="M54.8786 26.3813
L54.8181 26.4720
" />
<path d="M54.8181 26.4720
L54.7879 26.5929
" />
<path d="M54.7879 26.5929
L54.7879 26.8348
" />
<path d="M54.7879 26.8348
L54.8181 26.8953
" />
<path d="M54.8181 26.8953
L54.8484 26.9256
" />
<path d="M54.8484 26.9256
L54.9089 26.9558
" />
<path d="M54.9089 26.9558
L55.0298 26.9558
" />
<path d="M55.0298 26.9558
L55.0903 26.9256
" />
<path d="M55.0903 26.9256
L55.1205 26.8953
" />
<path d="M55.1205 26.8953
L55.1508 26.8348
" />
<path d="M55.1508 26.8348
L55.1508 26.6836
" />
<path d="M55.1508 26.6836
L55.1205 26.6232
" />
<path d="M55.1205 26.6232
L55.0903 26.5929
" />
<path d="M55.0903 26.5929
L55.0298 26.5627
" />
<path d="M55.0298 26.5627
L54.9089 26.5627
" />
<path d="M54.9089 26.5627
L54.8484 26.5929
" />
<path d="M54.8484 26.5929
L54.8181 26.6232
" />
<path d="M54.8181 26.6232
L54.7879 26.6836
" />
</g><path d="M55.8800 27.9400
L58.4200 27.9400
" />
<text x="55.3720" y="28.2575"
textLength="2.1748" font-size="0.8466" lengthAdjust="spacingAndGlyphs"
text-anchor="end" opacity="0" stroke-opacity="0">D25</text>
<g class="stroked-text"><desc>D25</desc>
<path d="M53.5783 28.2258
L53.5783 27.5908
" />
<path d="M53.5783 27.5908
L53.7295 27.5908
" />
<path d="M53.7295 27.5908
L53.8202 27.6210
" />
<path d="M53.8202 27.6210
L53.8807 27.6815
" />
<path d="M53.8807 27.6815
L53.9110 27.7420
" />
<path d="M53.9110 27.7420
L53.9412 27.8629
" />
<path d="M53.9412 27.8629
L53.9412 27.9536
" />
<path d="M53.9412 27.9536
L53.9110 28.0746
" />
<path d="M53.9110 28.0746
L53.8807 28.1351
" />
<path d="M53.8807 28.1351
L53.8202 28.1956
" />
<path d="M53.8202 28.1956
L53.7295 28.2258
" />
<path d="M53.7295 28.2258
L53.5783 28.2258
" />
<path d="M54.1831 27.6513
L54.2133 27.6210
" />
<path d="M54.2133 27.6210
L54.2738 27.5908
" />
<path d="M54.2738 27.5908
L54.4250 27.5908
" />
<path d="M54.4250 27.5908
L54.4855 27.6210
" />
<path d="M54.4855 27.6210
L54.5157 27.6513
" />
<path d="M54.5157 27.6513
L54.5460 27.7117
" />
<path d="M54.5460 27.7117
L54.5460 27.7722
" />
<path d="M54.5460 27.7722
L54.5157 27.8629
" />
<path d="M54.5157 27.8629
L54.1529 28.2258
" />
<path d="M54.1529 28.2258
L54.5460 28.2258
" />
<path d="M55.1205 27.5908
L54.8181 27.5908
" />
<path d="M54.8181 27.5908
L54.7879 27.8932
" />
<path d="M54.7879 27.8932
L54.8181 27.8629
" />
<path d="M54.8181 27.8629
L54.8786 27.8327
" />
<path d="M54.8786 27.8327
L55.0298 27.8327
" />
<path d="M55.0298 27.8327
L55.0903 27.8629
" />
<path d="M55.0903 27.8629
L55.1205 27.8932
" />
<path d="M55.1205 27.8932
L55.1508 27.9536
" />
<path d="M55.1508 27.9536
L55.1508 28.1048
" />
<path d="M55.1508 28.1048
L55.1205 28.1653
" />
<path d="M55.1205 28.1653
L55.0903 28.1956
" />
<path d="M55.0903 28.1956
L55.0298 28.2258
" />
<path d="M55.0298 28.2258
L54.8786 28.2258
" />
<path d="M54.8786 28.2258
L54.8181 28.1956
" />
<path d="M54.8181 28.1956
L54.7879 28.1653
" />
</g><path d="M55.8800 29.2100
L58.4200 29.2100
" />
<text x="55.3720" y="29.5275"
textLength="2.1748" font-size="0.8466" lengthAdjust="spacingAndGlyphs"
text-anchor="end" opacity="0" stroke-opacity="0">D33</text>
<g class="stroked-text"><desc>D33</desc>
<path d="M53.5783 29.4958
L53.5783 28.8608
" />
<path d="M53.5783 28.8608
L53.7295 28.8608
" />
<path d="M53.7295 28.8608
L53.8202 28.8910
" />
<path d="M53.8202 28.8910
L53.8807 28.9515
" />
<path d="M53.8807 28.9515
L53.9110 29.0120
" />
<path d="M53.9110 29.0120
L53.9412 29.1329
" />
<path d="M53.9412 29.1329
L53.9412 29.2236
" />
<path d="M53.9412 29.2236
L53.9110 29.3446
" />
<path d="M53.9110 29.3446
L53.8807 29.4051
" />
<path d="M53.8807 29.4051
L53.8202 29.4656
" />
<path d="M53.8202 29.4656
L53.7295 29.4958
" />
<path d="M53.7295 29.4958
L53.5783 29.4958
" />
<path d="M54.1529 28.8608
L54.5460 28.8608
" />
<path d="M54.5460 28.8608
L54.3343 29.1027
" />
<path d="M54.3343 29.1027
L54.4250 29.1027
" />
<path d="M54.4250 29.1027
L54.4855 29.1329
" />
<path d="M54.4855 29.1329
L54.5157 29.1632
" />
<path d="M54.5157 29.1632
L54.5460 29.2236
" />
<path d="M54.5460 29.2236
L54.5460 29.3748
" />
<path d="M54.5460 29.3748
L54.5157 29.4353
" />
<path d="M54.5157 29.4353
L54.4855 29.4656
" />
<path d="M54.4855 29.4656
L54.4250 29.4958
" />
<path d="M54.4250 29.4958
L54.2436 29.4958
" />
<path d="M54.2436 29.4958
L54.1831 29.4656
" />
<path d="M54.1831 29.4656
L54.1529 29.4353
" />
<path d="M54.7577 28.8608
L55.1508 28.8608
" />
<path d="M55.1508 28.8608
L54.9391 29.1027
" />
<path d="M54.9391 29.1027
L55.0298 29.1027
" />
<path d="M55.0298 29.1027
L55.0903 29.1329
" />
<path d="M55.0903 29.1329
L55.1205 29.1632
" />
<path d="M55.1205 29.1632
L55.1508 29.2236
" />
<path d="M55.1508 29.2236
L55.1508 29.3748
" />
<path d="M55.1508 29.3748
L55.1205 29.4353
" />
<path d="M55.1205 29.4353
L55.0903 29.4656
" />
<path d="M55.0903 29.4656
L55.0298 29.4958
" />
<path d="M55.0298 29.4958
L54.8484 29.4958
" />
<path d="M54.8484 29.4958
L54.7879 29.4656
" />
<path d="M54.7879 29.4656
L54.7577 29.4353
" />
</g><path d="M55.8800 30.4800
L58.4200 30.4800
" />
<text x="55.3720" y="30.7975"
textLength="2.1748" font-size="0.8466" lengthAdjust="spacingAndGlyphs"
text-anchor="end" opacity="0" stroke-opacity="0">D32</text>
<g class="stroked-text"><desc>D32</desc>
<path d="M53.5783 30.7658
L53.5783 30.1308
" />
<path d="M53.5783 30.1308
L53.7295 30.1308
" />
<path d="M53.7295 30.1308
L53.8202 30.1610
" />
<path d="M53.8202 30.1610
L53.8807 30.2215
" />
<path d="M53.8807 30.2215
L53.9110 30.2820
" />
<path d="M53.9110 30.2820
L53.9412 30.4029
" />
<path d="M53.9412 30.4029
L53.9412 30.4936
" />
<path d="M53.9412 30.4936
L53.9110 30.6146
" />
<path d="M53.9110 30.6146
L53.8807 30.6751
" />
<path d="M53.8807 30.6751
L53.8202 30.7356
" />
<path d="M53.8202 30.7356
L53.7295 30.7658
" />
<path d="M53.7295 30.7658
L53.5783 30.7658
" />
<path d="M54.1529 30.1308
L54.5460 30.1308
" />
<path d="M54.5460 30.1308
L54.3343 30.3727
" />
<path d="M54.3343 30.3727
L54.4250 30.3727
" />
<path d="M54.4250 30.3727
L54.4855 30.4029
" />
<path d="M54.4855 30.4029
L54.5157 30.4332
" />
<path d="M54.5157 30.4332
L54.5460 30.4936
" />
<path d="M54.5460 30.4936
L54.5460 30.6448
" />
<path d="M54.5460 30.6448
L54.5157 30.7053
" />
<path d="M54.5157 30.7053
L54.4855 30.7356
" />
<path d="M54.4855 30.7356
L54.4250 30.7658
" />
<path d="M54.4250 30.7658
L54.2436 30.7658
" />
<path d="M54.2436 30.7658
L54.1831 30.7356
" />
<path d="M54.1831 30.7356
L54.1529 30.7053
" />
<path d="M54.7879 30.1913
L54.8181 30.1610
" />
<path d="M54.8181 30.1610
L54.8786 30.1308
" />
<path d="M54.8786 30.1308
L55.0298 30.1308
" />
<path d="M55.0298 30.1308
L55.0903 30.1610
" />
<path d="M55.0903 30.1610
L55.1205 30.1913
" />
<path d="M55.1205 30.1913
L55.1508 30.2517
" />
<path d="M55.1508 30.2517
L55.1508 30.3122
" />
<path d="M55.1508 30.3122
L55.1205 30.4029
" />
<path d="M55.1205 30.4029
L54.7577 30.7658
" />
<path d="M54.7577 30.7658
L55.1508 30.7658
" />
</g><path d="M55.8800 31.7500
L58.4200 31.7500
" />
<text x="55.3720" y="32.0675"
textLength="2.1748" font-size="0.8466" lengthAdjust="spacingAndGlyphs"
text-anchor="end" opacity="0" stroke-opacity="0">D35</text>
<g class="stroked-text"><desc>D35</desc>
<path d="M53.5783 32.0358
L53.5783 31.4008
" />
<path d="M53.5783 31.4008
L53.7295 31.4008
" />
<path d="M53.7295 31.4008
L53.8202 31.4310
" />
<path d="M53.8202 31.4310
L53.8807 31.4915
" />
<path d="M53.8807 31.4915
L53.9110 31.5520
" />
<path d="M53.9110 31.5520
L53.9412 31.6729
" />
<path d="M53.9412 31.6729
L53.9412 31.7636
" />
<path d="M53.9412 31.7636
L53.9110 31.8846
" />
<path d="M53.9110 31.8846
L53.8807 31.9451
" />
<path d="M53.8807 31.9451
L53.8202 32.0056
" />
<path d="M53.8202 32.0056
L53.7295 32.0358
" />
<path d="M53.7295 32.0358
L53.5783 32.0358
" />
<path d="M54.1529 31.4008
L54.5460 31.4008
" />
<path d="M54.5460 31.4008
L54.3343 31.6427
" />
<path d="M54.3343 31.6427
L54.4250 31.6427
" />
<path d="M54.4250 31.6427
L54.4855 31.6729
" />
<path d="M54.4855 31.6729
L54.5157 31.7032
" />
<path d="M54.5157 31.7032
L54.5460 31.7636
" />
<path d="M54.5460 31.7636
L54.5460 31.9148
" />
<path d="M54.5460 31.9148
L54.5157 31.9753
" />
<path d="M54.5157 31.9753
L54.4855 32.0056
" />
<path d="M54.4855 32.0056
L54.4250 32.0358
" />
<path d="M54.4250 32.0358
L54.2436 32.0358
" />
<path d="M54.2436 32.0358
L54.1831 32.0056
" />
<path d="M54.1831 32.0056
L54.1529 31.9753
" />
<path d="M55.1205 31.4008
L54.8181 31.4008
" />
<path d="M54.8181 31.4008
L54.7879 31.7032
" />
<path d="M54.7879 31.7032
L54.8181 31.6729
" />
<path d="M54.8181 31.6729
L54.8786 31.6427
" />
<path d="M54.8786 31.6427
L55.0298 31.6427
" />
<path d="M55.0298 31.6427
L55.0903 31.6729
" />
<path d="M55.0903 31.6729
L55.1205 31.7032
" />
<path d="M55.1205 31.7032
L55.1508 31.7636
" />
<path d="M55.1508 31.7636
L55.1508 31.9148
" />
<path d="M55.1508 31.9148
L55.1205 31.9753
" />
<path d="M55.1205 31.9753
L55.0903 32.0056
" />
<path d="M55.0903 32.0056
L55.0298 32.0358
" />
<path d="M55.0298 32.0358
L54.8786 32.0358
" />
<path d="M54.8786 32.0358
L54.8181 32.0056
" />
<path d="M54.8181 32.0056
L54.7879 31.9753
" />
</g><path d="M55.8800 33.0200
L58.4200 33.0200
" />
<text x="55.3720" y="33.3375"
textLength="2.1748" font-size="0.8466" lengthAdjust="spacingAndGlyphs"
text-anchor="end" opacity="0" stroke-opacity="0">D34</text>
<g class="stroked-text"><desc>D34</desc>
<path d="M53.5783 33.3058
L53.5783 32.6708
" />
<path d="M53.5783 32.6708
L53.7295 32.6708
" />
<path d="M53.7295 32.6708
L53.8202 32.7010
" />
<path d="M53.8202 32.7010
L53.8807 32.7615
" />
<path d="M53.8807 32.7615
L53.9110 32.8220
" />
<path d="M53.9110 32.8220
L53.9412 32.9429
" />
<path d="M53.9412 32.9429
L53.9412 33.0336
" />
<path d="M53.9412 33.0336
L53.9110 33.1546
" />
<path d="M53.9110 33.1546
L53.8807 33.2151
" />
<path d="M53.8807 33.2151
L53.8202 33.2756
" />
<path d="M53.8202 33.2756
L53.7295 33.3058
" />
<path d="M53.7295 33.3058
L53.5783 33.3058
" />
<path d="M54.1529 32.6708
L54.5460 32.6708
" />
<path d="M54.5460 32.6708
L54.3343 32.9127
" />
<path d="M54.3343 32.9127
L54.4250 32.9127
" />
<path d="M54.4250 32.9127
L54.4855 32.9429
" />
<path d="M54.4855 32.9429
L54.5157 32.9732
" />
<path d="M54.5157 32.9732
L54.5460 33.0336
" />
<path d="M54.5460 33.0336
L54.5460 33.1848
" />
<path d="M54.5460 33.1848
L54.5157 33.2453
" />
<path d="M54.5157 33.2453
L54.4855 33.2756
" />
<path d="M54.4855 33.2756
L54.4250 33.3058
" />
<path d="M54.4250 33.3058
L54.2436 33.3058
" />
<path d="M54.2436 33.3058
L54.1831 33.2756
" />
<path d="M54.1831 33.2756
L54.1529 33.2453
" />
<path d="M55.0903 32.8825
L55.0903 33.3058
" />
<path d="M54.9391 32.6406
L54.7879 33.0941
" />
<path d="M54.7879 33.0941
L55.1810 33.0941
" />
</g><path d="M55.8800 34.2900
L58.4200 34.2900
" />
<text x="55.3720" y="34.6075"
textLength="1.5397" font-size="0.8466" lengthAdjust="spacingAndGlyphs"
text-anchor="end" opacity="0" stroke-opacity="0">VN</text>
<g class="stroked-text"><desc>VN</desc>
<path d="M54.1227 33.9408
L54.3344 34.5758
" />
<path d="M54.3344 34.5758
L54.5461 33.9408
" />
<path d="M54.7577 34.5758
L54.7577 33.9408
" />
<path d="M54.7577 33.9408
L55.1206 34.5758
" />
<path d="M55.1206 34.5758
L55.1206 33.9408
" />
</g><path d="M55.8800 35.5600
L58.4200 35.5600
" />
<text x="55.3720" y="35.8775"
textLength="1.5095" font-size="0.8466" lengthAdjust="spacingAndGlyphs"
text-anchor="end" opacity="0" stroke-opacity="0">VP</text>
<g class="stroked-text"><desc>VP</desc>
<path d="M54.1529 35.2108
L54.3646 35.8458
" />
<path d="M54.3646 35.8458
L54.5763 35.2108
" />
<path d="M54.7879 35.8458
L54.7879 35.2108
" />
<path d="M54.7879 35.2108
L55.0298 35.2108
" />
<path d="M55.0298 35.2108
L55.0903 35.2410
" />
<path d="M55.0903 35.2410
L55.1206 35.2713
" />
<path d="M55.1206 35.2713
L55.1508 35.3317
" />
<path d="M55.1508 35.3317
L55.1508 35.4225
" />
<path d="M55.1508 35.4225
L55.1206 35.4829
" />
<path d="M55.1206 35.4829
L55.0903 35.5132
" />
<path d="M55.0903 35.5132
L55.0298 35.5434
" />
<path d="M55.0298 35.5434
L54.7879 35.5434
" />
</g><path d="M55.8800 36.8300
L58.4200 36.8300
" />
<text x="55.3720" y="37.1475"
textLength="1.5699" font-size="0.8466" lengthAdjust="spacingAndGlyphs"
text-anchor="end" opacity="0" stroke-opacity="0">EN</text>
<g class="stroked-text"><desc>EN</desc>
<path d="M54.1832 36.7832
L54.3949 36.7832
" />
<path d="M54.4856 37.1158
L54.1832 37.1158
" />
<path d="M54.1832 37.1158
L54.1832 36.4808
" />
<path d="M54.1832 36.4808
L54.4856 36.4808
" />
<path d="M54.7577 37.1158
L54.7577 36.4808
" />
<path d="M54.7577 36.4808
L55.1206 37.1158
" />
<path d="M55.1206 37.1158
L55.1206 36.4808
" />
</g><text x="48.2600" y="28.2575"
textLength="3.2028" font-size="0.8466" lengthAdjust="spacingAndGlyphs"
text-anchor="middle" opacity="0" stroke-opacity="0">Esp32</text>
<g class="stroked-text"><desc>Esp32</desc>
<path d="M46.9748 27.8932
L47.1865 27.8932
" />
<path d="M47.2772 28.2258
L46.9748 28.2258
" />
<path d="M46.9748 28.2258
L46.9748 27.5908
" />
<path d="M46.9748 27.5908
L47.2772 27.5908
" />
<path d="M47.5191 28.1956
L47.5796 28.2258
" />
<path d="M47.5796 28.2258
L47.7005 28.2258
" />
<path d="M47.7005 28.2258
L47.7610 28.1956
" />
<path d="M47.7610 28.1956
L47.7912 28.1351
" />
<path d="M47.7912 28.1351
L47.7912 28.1048
" />
<path d="M47.7912 28.1048
L47.7610 28.0444
" />
<path d="M47.7610 28.0444
L47.7005 28.0141
" />
<path d="M47.7005 28.0141
L47.6098 28.0141
" />
<path d="M47.6098 28.0141
L47.5493 27.9839
" />
<path d="M47.5493 27.9839
L47.5191 27.9234
" />
<path d="M47.5191 27.9234
L47.5191 27.8932
" />
<path d="M47.5191 27.8932
L47.5493 27.8327
" />
<path d="M47.5493 27.8327
L47.6098 27.8025
" />
<path d="M47.6098 27.8025
L47.7005 27.8025
" />
<path d="M47.7005 27.8025
L47.7610 27.8327
" />
<path d="M48.0633 27.8025
L48.0633 28.4375
" />
<path d="M48.0633 27.8327
L48.1238 27.8025
" />
<path d="M48.1238 27.8025
L48.2448 27.8025
" />
<path d="M48.2448 27.8025
L48.3052 27.8327
" />
<path d="M48.3052 27.8327
L48.3355 27.8629
" />
<path d="M48.3355 27.8629
L48.3657 27.9234
" />
<path d="M48.3657 27.9234
L48.3657 28.1048
" />
<path d="M48.3657 28.1048
L48.3355 28.1653
" />
<path d="M48.3355 28.1653
L48.3052 28.1956
" />
<path d="M48.3052 28.1956
L48.2448 28.2258
" />
<path d="M48.2448 28.2258
L48.1238 28.2258
" />
<path d="M48.1238 28.2258
L48.0633 28.1956
" />
<path d="M48.5774 27.5908
L48.9705 27.5908
" />
<path d="M48.9705 27.5908
L48.7588 27.8327
" />
<path d="M48.7588 27.8327
L48.8495 27.8327
" />
<path d="M48.8495 27.8327
L48.9100 27.8629
" />
<path d="M48.9100 27.8629
L48.9402 27.8932
" />
<path d="M48.9402 27.8932
L48.9705 27.9536
" />
<path d="M48.9705 27.9536
L48.9705 28.1048
" />
<path d="M48.9705 28.1048
L48.9402 28.1653
" />
<path d="M48.9402 28.1653
L48.9100 28.1956
" />
<path d="M48.9100 28.1956
L48.8495 28.2258
" />
<path d="M48.8495 28.2258
L48.6681 28.2258
" />
<path d="M48.6681 28.2258
L48.6076 28.1956
" />
<path d="M48.6076 28.1956
L48.5774 28.1653
" />
<path d="M49.2124 27.6513
L49.2426 27.6210
" />
<path d="M49.2426 27.6210
L49.3031 27.5908
" />
<path d="M49.3031 27.5908
L49.4543 27.5908
" />
<path d="M49.4543 27.5908
L49.5148 27.6210
" />
<path d="M49.5148 27.6210
L49.5450 27.6513
" />
<path d="M49.5450 27.6513
L49.5753 27.7117
" />
<path d="M49.5753 27.7117
L49.5753 27.7722
" />
<path d="M49.5753 27.7722
L49.5450 27.8629
" />
<path d="M49.5450 27.8629
L49.1822 28.2258
" />
<path d="M49.1822 28.2258
L49.5753 28.2258
" />
</g></g>
<g style="fill:#FCFCFC; fill-opacity:1.0000; 
stroke:#FCFCFC; stroke-width:0.1524; stroke-opacity:1; 
stroke-linecap:round; stroke-linejoin:round;">
<rect x="13.970000" y="18.923000" width="0.863600" height="0.254000" rx="0.000000" />
<rect x="13.970000" y="21.463000" width="0.863600" height="0.254000" rx="0.000000" />
<rect x="13.970000" y="24.003000" width="0.863600" height="0.254000" rx="0.000000" />
<path style="fill:none; 
stroke:#FCFCFC; stroke-width:0.1524; stroke-opacity:1; 
stroke-linecap:round; stroke-linejoin:round;fill:none"
d="M 15.2400,19.0500
14.8336,19.0500
" /> 
<path style="fill:none; 
stroke:#FCFCFC; stroke-width:0.1524; stroke-opacity:1; 
stroke-linecap:round; stroke-linejoin:round;fill:none"
d="M 15.2400,21.5900
14.8336,21.5900
" /> 
<path style="fill:none; 
stroke:#FCFCFC; stroke-width:0.1524; stroke-opacity:1; 
stroke-linecap:round; stroke-linejoin:round;fill:none"
d="M 15.2400,24.1300
14.8336,24.1300
" /> 
</g>
<g style="fill:none; 
stroke:#FCFCFC; stroke-width:0.1524; stroke-opacity:1; 
stroke-linecap:round; stroke-linejoin:round;">
<path d="M15.2400 19.0500
L19.0500 19.0500
" />
<text x="17.1450" y="18.7960"
textLength="1.4127" font-size="1.6933" lengthAdjust="spacingAndGlyphs"
text-anchor="middle" opacity="0" stroke-opacity="0">1</text>
<g class="stroked-text"><desc>1</desc>
<path d="M17.5079 18.6325
L16.7822 18.6325
" />
<path d="M17.1450 18.6325
L17.1450 17.3625
" />
<path d="M17.1450 17.3625
L17.0241 17.5440
" />
<path d="M17.0241 17.5440
L16.9031 17.6649
" />
<path d="M16.9031 17.6649
L16.7822 17.7254
" />
</g><path d="M15.2400 21.5900
L19.0500 21.5900
" />
<text x="17.1450" y="21.3360"
textLength="1.4127" font-size="1.6933" lengthAdjust="spacingAndGlyphs"
text-anchor="middle" opacity="0" stroke-opacity="0">2</text>
<g class="stroked-text"><desc>2</desc>
<path d="M16.7822 20.0235
L16.8426 19.9630
" />
<path d="M16.8426 19.9630
L16.9636 19.9025
" />
<path d="M16.9636 19.9025
L17.2660 19.9025
" />
<path d="M17.2660 19.9025
L17.3869 19.9630
" />
<path d="M17.3869 19.9630
L17.4474 20.0235
" />
<path d="M17.4474 20.0235
L17.5079 20.1444
" />
<path d="M17.5079 20.1444
L17.5079 20.2654
" />
<path d="M17.5079 20.2654
L17.4474 20.4468
" />
<path d="M17.4474 20.4468
L16.7217 21.1725
" />
<path d="M16.7217 21.1725
L17.5079 21.1725
" />
</g><path d="M15.2400 24.1300
L19.0500 24.1300
" />
<text x="17.1450" y="23.8760"
textLength="1.4127" font-size="1.6933" lengthAdjust="spacingAndGlyphs"
text-anchor="middle" opacity="0" stroke-opacity="0">3</text>
<g class="stroked-text"><desc>3</desc>
<path d="M16.7217 22.4425
L17.5079 22.4425
" />
<path d="M17.5079 22.4425
L17.0845 22.9263
" />
<path d="M17.0845 22.9263
L17.2660 22.9263
" />
<path d="M17.2660 22.9263
L17.3869 22.9868
" />
<path d="M17.3869 22.9868
L17.4474 23.0473
" />
<path d="M17.4474 23.0473
L17.5079 23.1682
" />
<path d="M17.5079 23.1682
L17.5079 23.4706
" />
<path d="M17.5079 23.4706
L17.4474 23.5916
" />
<path d="M17.4474 23.5916
L17.3869 23.6521
" />
<path d="M17.3869 23.6521
L17.2660 23.7125
" />
<path d="M17.2660 23.7125
L16.9031 23.7125
" />
<path d="M16.9031 23.7125
L16.7822 23.6521
" />
<path d="M16.7822 23.6521
L16.7217 23.5916
" />
</g><text x="14.6050" y="16.8275"
textLength="2.9004" font-size="0.8466" lengthAdjust="spacingAndGlyphs"
text-anchor="middle" opacity="0" stroke-opacity="0">Relay</text>
<g class="stroked-text"><desc>Relay</desc>
<path d="M13.8339 16.7958
L13.6222 16.4934
" />
<path d="M13.4710 16.7958
L13.4710 16.1608
" />
<path d="M13.4710 16.1608
L13.7129 16.1608
" />
<path d="M13.7129 16.1608
L13.7734 16.1910
" />
<path d="M13.7734 16.1910
L13.8037 16.2213
" />
<path d="M13.8037 16.2213
L13.8339 16.2817
" />
<path d="M13.8339 16.2817
L13.8339 16.3725
" />
<path d="M13.8339 16.3725
L13.8037 16.4329
" />
<path d="M13.8037 16.4329
L13.7734 16.4632
" />
<path d="M13.7734 16.4632
L13.7129 16.4934
" />
<path d="M13.7129 16.4934
L13.4710 16.4934
" />
<path d="M14.3479 16.7656
L14.2875 16.7958
" />
<path d="M14.2875 16.7958
L14.1665 16.7958
" />
<path d="M14.1665 16.7958
L14.1060 16.7656
" />
<path d="M14.1060 16.7656
L14.0758 16.7051
" />
<path d="M14.0758 16.7051
L14.0758 16.4632
" />
<path d="M14.0758 16.4632
L14.1060 16.4027
" />
<path d="M14.1060 16.4027
L14.1665 16.3725
" />
<path d="M14.1665 16.3725
L14.2875 16.3725
" />
<path d="M14.2875 16.3725
L14.3479 16.4027
" />
<path d="M14.3479 16.4027
L14.3782 16.4632
" />
<path d="M14.3782 16.4632
L14.3782 16.5236
" />
<path d="M14.3782 16.5236
L14.0758 16.5841
" />
<path d="M14.7411 16.7958
L14.6806 16.7656
" />
<path d="M14.6806 16.7656
L14.6503 16.7051
" />
<path d="M14.6503 16.7051
L14.6503 16.1608
" />
<path d="M15.2551 16.7958
L15.2551 16.4632
" />
<path d="M15.2551 16.4632
L15.2248 16.4027
" />
<path d="M15.2248 16.4027
L15.1644 16.3725
" />
<path d="M15.1644 16.3725
L15.0434 16.3725
" />
<path d="M15.0434 16.3725
L14.9829 16.4027
" />
<path d="M15.2551 16.7656
L15.1946 16.7958
" />
<path d="M15.1946 16.7958
L15.0434 16.7958
" />
<path d="M15.0434 16.7958
L14.9829 16.7656
" />
<path d="M14.9829 16.7656
L14.9527 16.7051
" />
<path d="M14.9527 16.7051
L14.9527 16.6446
" />
<path d="M14.9527 16.6446
L14.9829 16.5841
" />
<path d="M14.9829 16.5841
L15.0434 16.5539
" />
<path d="M15.0434 16.5539
L15.1946 16.5539
" />
<path d="M15.1946 16.5539
L15.2551 16.5236
" />
<path d="M15.4970 16.3725
L15.6482 16.7958
" />
<path d="M15.7993 16.3725
L15.6482 16.7958
" />
<path d="M15.6482 16.7958
L15.5877 16.9470
" />
<path d="M15.5877 16.9470
L15.5574 16.9772
" />
<path d="M15.5574 16.9772
L15.4970 17.0075
" />
</g></g>
<g style="fill:none; 
stroke:#FCFCFC; stroke-width:0.1524; stroke-opacity:1; 
stroke-linecap:round; stroke-linejoin:round;">
<text x="19.0500" y="18.8753"
textLength="2.1445" font-size="0.8466" lengthAdjust="spacingAndGlyphs"
text-anchor="start" opacity="0" stroke-opacity="0">VCC</text>
<g class="stroked-text"><desc>VCC</desc>
<path d="M19.2106 18.1546
L19.4223 18.7896
" />
<path d="M19.4223 18.7896
L19.6340 18.1546
" />
<path d="M20.2085 18.7291
L20.1783 18.7594
" />
<path d="M20.1783 18.7594
L20.0875 18.7896
" />
<path d="M20.0875 18.7896
L20.0271 18.7896
" />
<path d="M20.0271 18.7896
L19.9364 18.7594
" />
<path d="M19.9364 18.7594
L19.8759 18.6989
" />
<path d="M19.8759 18.6989
L19.8456 18.6384
" />
<path d="M19.8456 18.6384
L19.8154 18.5174
" />
<path d="M19.8154 18.5174
L19.8154 18.4267
" />
<path d="M19.8154 18.4267
L19.8456 18.3058
" />
<path d="M19.8456 18.3058
L19.8759 18.2453
" />
<path d="M19.8759 18.2453
L19.9364 18.1848
" />
<path d="M19.9364 18.1848
L20.0271 18.1546
" />
<path d="M20.0271 18.1546
L20.0875 18.1546
" />
<path d="M20.0875 18.1546
L20.1783 18.1848
" />
<path d="M20.1783 18.1848
L20.2085 18.2151
" />
<path d="M20.8435 18.7291
L20.8133 18.7594
" />
<path d="M20.8133 18.7594
L20.7225 18.7896
" />
<path d="M20.7225 18.7896
L20.6621 18.7896
" />
<path d="M20.6621 18.7896
L20.5714 18.7594
" />
<path d="M20.5714 18.7594
L20.5109 18.6989
" />
<path d="M20.5109 18.6989
L20.4806 18.6384
" />
<path d="M20.4806 18.6384
L20.4504 18.5174
" />
<path d="M20.4504 18.5174
L20.4504 18.4267
" />
<path d="M20.4504 18.4267
L20.4806 18.3058
" />
<path d="M20.4806 18.3058
L20.5109 18.2453
" />
<path d="M20.5109 18.2453
L20.5714 18.1848
" />
<path d="M20.5714 18.1848
L20.6621 18.1546
" />
<path d="M20.6621 18.1546
L20.7225 18.1546
" />
<path d="M20.7225 18.1546
L20.8133 18.1848
" />
<path d="M20.8133 18.1848
L20.8435 18.2151
" />
</g></g>
<g style="fill:none; 
stroke:#FCFCFC; stroke-width:0.1524; stroke-opacity:1; 
stroke-linecap:round; stroke-linejoin:round;">
<text x="19.0500" y="23.9553"
textLength="1.2978" font-size="0.8466" lengthAdjust="spacingAndGlyphs"
text-anchor="start" opacity="0" stroke-opacity="0">IN</text>
<g class="stroked-text"><desc>IN</desc>
<path d="M19.3013 23.8696
L19.3013 23.2346
" />
<path d="M19.6037 23.8696
L19.6037 23.2346
" />
<path d="M19.6037 23.2346
L19.9666 23.8696
" />
<path d="M19.9666 23.8696
L19.9666 23.2346
" />
</g></g>
<g style="fill:none; 
stroke:#FCFCFC; stroke-width:0.1524; stroke-opacity:1; 
stroke-linecap:round; stroke-linejoin:round;">
<text x="19.0500" y="21.4153"
textLength="2.2654" font-size="0.8466" lengthAdjust="spacingAndGlyphs"
text-anchor="start" opacity="0" stroke-opacity="0">GND</text>
<g class="stroked-text"><desc>GND</desc>
<path d="M19.6340 20.7248
L19.5735 20.6946
" />
<path d="M19.5735 20.6946
L19.4828 20.6946
" />
<path d="M19.4828 20.6946
L19.3921 20.7248
" />
<path d="M19.3921 20.7248
L19.3316 20.7853
" />
<path d="M19.3316 20.7853
L19.3013 20.8458
" />
<path d="M19.3013 20.8458
L19.2711 20.9667
" />
<path d="M19.2711 20.9667
L19.2711 21.0574
" />
<path d="M19.2711 21.0574
L19.3013 21.1784
" />
<path d="M19.3013 21.1784
L19.3316 21.2389
" />
<path d="M19.3316 21.2389
L19.3921 21.2994
" />
<path d="M19.3921 21.2994
L19.4828 21.3296
" />
<path d="M19.4828 21.3296
L19.5432 21.3296
" />
<path d="M19.5432 21.3296
L19.6340 21.2994
" />
<path d="M19.6340 21.2994
L19.6642 21.2691
" />
<path d="M19.6642 21.2691
L19.6642 21.0574
" />
<path d="M19.6642 21.0574
L19.5432 21.0574
" />
<path d="M19.9363 21.3296
L19.9363 20.6946
" />
<path d="M19.9363 20.6946
L20.2992 21.3296
" />
<path d="M20.2992 21.3296
L20.2992 20.6946
" />
<path d="M20.6015 21.3296
L20.6015 20.6946
" />
<path d="M20.6015 20.6946
L20.7527 20.6946
" />
<path d="M20.7527 20.6946
L20.8434 20.7248
" />
<path d="M20.8434 20.7248
L20.9039 20.7853
" />
<path d="M20.9039 20.7853
L20.9342 20.8458
" />
<path d="M20.9342 20.8458
L20.9644 20.9667
" />
<path d="M20.9644 20.9667
L20.9644 21.0574
" />
<path d="M20.9644 21.0574
L20.9342 21.1784
" />
<path d="M20.9342 21.1784
L20.9039 21.2389
" />
<path d="M20.9039 21.2389
L20.8434 21.2994
" />
<path d="M20.8434 21.2994
L20.7527 21.3296
" />
<path d="M20.7527 21.3296
L20.6015 21.3296
" />
</g><path d="M35.5600 29.2100
L38.1000 31.7500
" />
<path d="M29.2100 29.2100
L35.5600 29.2100
" />
<path d="M27.9400 27.9400
L30.4800 27.9400
" />
<path d="M25.4000 19.0500
L38.1000 19.0500
" />
<path d="M26.6700 29.2100
L27.9400 27.9400
" />
<path d="M24.1300 29.2100
L24.1300 24.1300
" />
<path d="M21.5900 29.2100
L21.5900 22.8600
" />
<path d="M21.5900 22.8600
L25.4000 19.0500
" />
<path d="M30.4800 27.9400
L38.1000 35.5600
" />
<path d="M20.3200 20.3200
L19.0500 21.5900
" />
<path d="M27.9400 20.3200
L38.1000 20.3200
" />
<path d="M20.3200 20.3200
L27.9400 20.3200
" />
<path d="M24.1300 24.1300
L27.9400 20.3200
" />
<path d="M38.1000 21.5900
L21.5900 21.5900
" />
<path d="M21.5900 21.5900
L19.0500 24.1300
" />
<path d="M19.0500 19.0500
L25.4000 19.0500
" />
</g>
<g style="fill:#808080; fill-opacity:1.0000; stroke:none;">
<circle cx="25.4000" cy="19.0500" r="0.4572" /> 
</g>
<g style="fill:#808080; fill-opacity:1.0000; stroke:none;">
<circle cx="27.9400" cy="20.3200" r="0.4572" /> 
</g> 
</svg>
