<svg id="schematic" width="889.6042713584154" height="654.7615274568868" viewBox="299.8401794433594 581.411865234375 889.6042713584154 654.7615274568868" xmlns="http://www.w3.org/2000/svg">
        <rect id="svg-bg" width="100%" height="100%" fill="black" style="--darkreader-inline-fill: var(--darkreader-background-000000, #000000);" data-darkreader-inline-fill=""/>
        <g id="wires-layer"><path d="M 1083 902 V 771.411865234375 H 1086.1763305664062 V 791.411865234375" stroke="white" fill="none" stroke-width="1.2" opacity="0.8" style="cursor: pointer;"/><path d="M 1039 902 V 759.411865234375 H 1042.1763305664062 V 791.411865234375" stroke="white" fill="none" stroke-width="1.2" opacity="0.8" style="cursor: pointer;"/><path d="M 1061 902 V 747.411865234375 H 1064.1763305664062 V 791.411865234375" stroke="white" fill="none" stroke-width="1.2" opacity="0.8" style="cursor: pointer;"/><path d="M 1083 902 V 882 H 598.9851684570312 V 918.6893310546875" stroke="white" fill="none" stroke-width="1.2" opacity="0.8" style="cursor: pointer;"/><path d="M 1061 902 V 870 H 620.9851684570312 V 918.6893310546875" stroke="white" fill="none" stroke-width="1.2" opacity="0.8" style="cursor: pointer;"/><path d="M 863 902 V 858 H 664.9851684570312 V 918.6893310546875" stroke="white" fill="none" stroke-width="1.2" opacity="0.8" style="cursor: pointer;"/><path d="M 797 902 V 846 H 642.9851684570312 V 918.6893310546875" stroke="white" fill="none" stroke-width="1.2" opacity="0.8" style="cursor: pointer;"/><path d="M 1083 902 V 834.294189453125 H 456.8401794433594 V 854.294189453125" stroke="white" fill="none" stroke-width="1.2" opacity="0.8" style="cursor: pointer;"/><path d="M 1061 902 V 822.294189453125 H 434.8401794433594 V 854.294189453125" stroke="white" fill="none" stroke-width="1.2" opacity="0.8" style="cursor: pointer;"/><path d="M 929 902 V 810.294189453125 H 544.8401794433594 V 854.294189453125" stroke="white" fill="none" stroke-width="1.2" opacity="0.8" style="cursor: pointer;"/><path d="M 775 902 V 798.294189453125 H 500.8401794433594 V 854.294189453125" stroke="white" fill="none" stroke-width="1.2" opacity="0.8" style="cursor: pointer;"/><path d="M 907 902 V 786.294189453125 H 522.8401794433594 V 854.294189453125" stroke="white" fill="none" stroke-width="1.2" opacity="0.8" style="cursor: pointer;"/><path d="M 885 902 V 774.294189453125 H 478.8401794433594 V 854.294189453125" stroke="white" fill="none" stroke-width="1.2" opacity="0.8" style="cursor: pointer;"/></g>
        <g id="comps-layer"><g transform="translate(850,800) rotate(90, 78, 180)"><rect width="156" height="360" fill="black" stroke="white" stroke-width="2"/><text x="78" y="-10" fill="white" text-anchor="middle" font-size="12" font-weight="bold">ESP32</text><circle cx="0" cy="25" r="2" fill="white"/><text x="6" y="28" fill="white" font-size="8" text-anchor="start">3V3</text><circle cx="0" cy="47" r="2" fill="white"/><text x="6" y="50" fill="white" font-size="8" text-anchor="start">GND</text><circle cx="0" cy="69" r="2" fill="white"/><text x="6" y="72" fill="white" font-size="8" text-anchor="start">D15</text><circle cx="0" cy="91" r="2" fill="white"/><text x="6" y="94" fill="white" font-size="8" text-anchor="start">D2</text><circle cx="0" cy="113" r="2" fill="white"/><text x="6" y="116" fill="white" font-size="8" text-anchor="start">D4</text><circle cx="0" cy="135" r="2" fill="white"/><text x="6" y="138" fill="white" font-size="8" text-anchor="start">RX2</text><circle cx="0" cy="157" r="2" fill="white"/><text x="6" y="160" fill="white" font-size="8" text-anchor="start">TX2</text><circle cx="0" cy="179" r="2" fill="white"/><text x="6" y="182" fill="white" font-size="8" text-anchor="start">D5</text><circle cx="0" cy="201" r="2" fill="white"/><text x="6" y="204" fill="white" font-size="8" text-anchor="start">D18</text><circle cx="0" cy="223" r="2" fill="white"/><text x="6" y="226" fill="white" font-size="8" text-anchor="start">D19</text><circle cx="0" cy="245" r="2" fill="white"/><text x="6" y="248" fill="white" font-size="8" text-anchor="start">D21</text><circle cx="0" cy="267" r="2" fill="white"/><text x="6" y="270" fill="white" font-size="8" text-anchor="start">RX0</text><circle cx="0" cy="289" r="2" fill="white"/><text x="6" y="292" fill="white" font-size="8" text-anchor="start">TX0</text><circle cx="0" cy="311" r="2" fill="white"/><text x="6" y="314" fill="white" font-size="8" text-anchor="start">D22</text><circle cx="0" cy="333" r="2" fill="white"/><text x="6" y="336" fill="white" font-size="8" text-anchor="start">D23</text><circle cx="156" cy="25" r="2" fill="white"/><text x="150" y="28" fill="white" font-size="8" text-anchor="end">5V</text><circle cx="156" cy="47" r="2" fill="white"/><text x="150" y="50" fill="white" font-size="8" text-anchor="end">GND</text><circle cx="156" cy="69" r="2" fill="white"/><text x="150" y="72" fill="white" font-size="8" text-anchor="end">D13</text><circle cx="156" cy="91" r="2" fill="white"/><text x="150" y="94" fill="white" font-size="8" text-anchor="end">D12</text><circle cx="156" cy="113" r="2" fill="white"/><text x="150" y="116" fill="white" font-size="8" text-anchor="end">D14</text><circle cx="156" cy="135" r="2" fill="white"/><text x="150" y="138" fill="white" font-size="8" text-anchor="end">D27</text><circle cx="156" cy="157" r="2" fill="white"/><text x="150" y="160" fill="white" font-size="8" text-anchor="end">D26</text><circle cx="156" cy="179" r="2" fill="white"/><text x="150" y="182" fill="white" font-size="8" text-anchor="end">D25</text><circle cx="156" cy="201" r="2" fill="white"/><text x="150" y="204" fill="white" font-size="8" text-anchor="end">D33</text><circle cx="156" cy="223" r="2" fill="white"/><text x="150" y="226" fill="white" font-size="8" text-anchor="end">D32</text><circle cx="156" cy="245" r="2" fill="white"/><text x="150" y="248" fill="white" font-size="8" text-anchor="end">D35</text><circle cx="156" cy="267" r="2" fill="white"/><text x="150" y="270" fill="white" font-size="8" text-anchor="end">D34</text><circle cx="156" cy="289" r="2" fill="white"/><text x="150" y="292" fill="white" font-size="8" text-anchor="end">VN</text><circle cx="156" cy="311" r="2" fill="white"/><text x="150" y="314" fill="white" font-size="8" text-anchor="end">VP</text><circle cx="156" cy="333" r="2" fill="white"/><text x="150" y="336" fill="white" font-size="8" text-anchor="end">EN</text></g><g transform="translate(1017.1763305664062,691.411865234375) rotate(0, 45, 50)"><rect width="90" height="100" fill="black" stroke="white" stroke-width="2"/><text x="45" y="-10" fill="white" text-anchor="middle" font-size="12" font-weight="bold">Relay</text><circle cx="25" cy="0" r="2" fill="white"/><text x="25" y="10" fill="white" font-size="8" text-anchor="middle">NC</text><circle cx="47" cy="0" r="2" fill="white"/><text x="47" y="10" fill="white" font-size="8" text-anchor="middle">COM</text><circle cx="69" cy="0" r="2" fill="white"/><text x="69" y="10" fill="white" font-size="8" text-anchor="middle">NO</text><circle cx="25" cy="100" r="2" fill="white"/><text x="25" y="94" fill="white" font-size="8" text-anchor="middle">IN</text><circle cx="47" cy="100" r="2" fill="white"/><text x="47" y="94" fill="white" font-size="8" text-anchor="middle">GND</text><circle cx="69" cy="100" r="2" fill="white"/><text x="69" y="94" fill="white" font-size="8" text-anchor="middle">VCC</text></g><g transform="translate(573.9851684570312,918.6893310546875) rotate(0, 76.8, 32)"><rect width="153.6" height="64" fill="black" stroke="white" stroke-width="2"/><text x="76.8" y="-10" fill="white" text-anchor="middle" font-size="12" font-weight="bold">OLED (128x64)</text><circle cx="25" cy="0" r="2" fill="white"/><text x="25" y="10" fill="white" font-size="8" text-anchor="middle">VCC</text><circle cx="47" cy="0" r="2" fill="white"/><text x="47" y="10" fill="white" font-size="8" text-anchor="middle">GND</text><circle cx="69" cy="0" r="2" fill="white"/><text x="69" y="10" fill="white" font-size="8" text-anchor="middle">SCL</text><circle cx="91" cy="0" r="2" fill="white"/><text x="91" y="10" fill="white" font-size="8" text-anchor="middle">SDA</text></g><g transform="translate(409.8401794433594,854.294189453125) rotate(0, 75, 100)"><rect width="150" height="200" fill="black" stroke="white" stroke-width="2"/><text x="75" y="-10" fill="white" text-anchor="middle" font-size="12" font-weight="bold">SD Card Module</text><circle cx="25" cy="0" r="2" fill="white"/><text x="25" y="10" fill="white" font-size="8" text-anchor="middle">GND</text><circle cx="47" cy="0" r="2" fill="white"/><text x="47" y="10" fill="white" font-size="8" text-anchor="middle">VCC</text><circle cx="69" cy="0" r="2" fill="white"/><text x="69" y="10" fill="white" font-size="8" text-anchor="middle">MISO</text><circle cx="91" cy="0" r="2" fill="white"/><text x="91" y="10" fill="white" font-size="8" text-anchor="middle">MOSI</text><circle cx="113" cy="0" r="2" fill="white"/><text x="113" y="10" fill="white" font-size="8" text-anchor="middle">SCK</text><circle cx="135" cy="0" r="2" fill="white"/><text x="135" y="10" fill="white" font-size="8" text-anchor="middle">CS</text></g></g>
        <g id="junctions-layer"><circle cx="1083" cy="902" r="4" fill="white"/><circle cx="1061" cy="902" r="4" fill="white"/><circle cx="1083" cy="902" r="4" fill="white"/><circle cx="1061" cy="902" r="4" fill="white"/><circle cx="1083" cy="902" r="4" fill="white"/><circle cx="1061" cy="902" r="4" fill="white"/></g>
    </svg>