<?xml version="1.0" encoding="UTF-8"?>
<svg
   width="256"
   height="256"
   viewBox="0 0 256 256"
   version="1.1"
   id="svg1"
   xml:space="preserve"
   xmlns="http://www.w3.org/2000/svg"
   xmlns:svg="http://www.w3.org/2000/svg"><defs
     id="defs1"><g
       id="pcb-lobe"
       fill="none"
       stroke="#000000"
       stroke-linecap="square"
       stroke-linejoin="round"><!-- 1. Center Main Line --><path
         d="m 0,-50 v -70"
         stroke-width="6"
         id="path8" /><circle
         cx="0"
         cy="-122"
         r="6"
         fill="#000000"
         stroke="none"
         id="circle9" /><!-- 2. Primary Parallel Bus (45-degree bends) --><g
         stroke-width="2.5"
         id="g11"><!-- Right side --><path
           d="m 10,-50 v -30 l 12,-12 v -23"
           id="path9" /><circle
           cx="22"
           cy="-118"
           r="4"
           fill="#000000"
           stroke="none"
           id="circle10" /><!-- Left side --><path
           d="m -10,-50 v -30 l -12,-12 v -23"
           id="path10" /><circle
           cx="-22"
           cy="-118"
           r="4"
           fill="#000000"
           stroke="none"
           id="circle11" /></g><!-- 3. Secondary Wide Bus (Double-stepped bends) --><g
         stroke-width="2"
         id="g13"><!-- Right --><path
           d="m 18,-50 v -15 l 17,-17 v -13 l 10,-10 v -7"
           id="path11" /><circle
           cx="45"
           cy="-115"
           r="3.5"
           fill="#000000"
           stroke="none"
           id="circle12" /><!-- Left --><path
           d="m -18,-50 v -15 l -17,-17 v -13 l -10,-10 v -7"
           id="path12" /><circle
           cx="-45"
           cy="-115"
           r="3.5"
           fill="#000000"
           stroke="none"
           id="circle13" /></g><!-- 4. Ultra-Dense Outer Fillers (Zig-zag PCB style) --><g
         stroke-width="1.2"
         id="g17"><!-- Right --><path
           d="m 26,-50 v -10 l 29,-29 v -16"
           id="path13" /><circle
           cx="55"
           cy="-108"
           r="2.5"
           fill="#000000"
           stroke="none"
           id="circle14" /><path
           d="m 34,-50 v -5 l 34,-34 v -9"
           id="path14" /><circle
           cx="68"
           cy="-101"
           r="2"
           fill="#000000"
           stroke="none"
           id="circle15" /><!-- Left --><path
           d="m -26,-50 v -10 l -29,-29 v -16"
           id="path15" /><circle
           cx="-55"
           cy="-108"
           r="2.5"
           fill="#000000"
           stroke="none"
           id="circle16" /><path
           d="m -34,-50 v -5 l -34,-34 v -9"
           id="path16" /><circle
           cx="-68"
           cy="-101"
           r="2"
           fill="#000000"
           stroke="none"
           id="circle17" /></g><!-- 5. Fine Detail Signal Lines (Inner) --><g
         stroke-width="0.8"
         id="g19"><path
           d="m 5,-50 v -25 l 7,-7 v -13"
           id="path17" /><circle
           cx="12"
           cy="-97"
           r="1.2"
           fill="#000000"
           stroke="none"
           id="circle18" /><path
           d="m -5,-50 v -25 l -7,-7 v -13"
           id="path18" /><circle
           cx="-12"
           cy="-97"
           r="1.2"
           fill="#000000"
           stroke="none"
           id="circle19" /></g></g></defs><g
     id="layer1"><!-- Background --><g
      transform="translate(128,128) scale(1)"
       id="g27"><!-- HIGH-PRECISION CONCENTRIC CORE --><circle
         cx="0"
         cy="0"
         r="50"
         fill="none"
         stroke="#000000"
         stroke-width="1.5"
         id="circle1" /><circle
         cx="0"
         cy="0"
         r="46"
         fill="#000000"
         id="circle2" /><circle
         cx="0"
         cy="0"
         r="42"
         fill="#ffffff"
         id="circle3" /><circle
         cx="0"
         cy="0"
         r="34"
         fill="none"
         stroke="#000000"
         stroke-width="3"
         id="circle4" /><circle
         cx="0"
         cy="0"
         r="28"
         fill="#000000"
         id="circle5" /><circle
         cx="0"
         cy="0"
         r="22"
         fill="#ffffff"
         id="circle6" /><circle
         cx="0"
         cy="0"
         r="14"
         fill="#000000"
         id="circle7" /><circle
         cx="0"
         cy="0"
         r="6"
         fill="#ffffff"
         id="circle8" /><!-- DEFINE PCB-STYLE DENSE LOBE --><defs
         id="defs19" /><!-- APPLY PCB LOBES AT 120 DEGREE INTERVALS --><use
         href="#pcb-lobe"
         id="use19" /><use
         href="#pcb-lobe"
         transform="rotate(120)"
         id="use20" /><use
         href="#pcb-lobe"
         transform="rotate(-120)"
         id="use21" /><!-- SMALL PCB 'VIA' PADS IN GAPS (Maintains symmetry without clutter) --><g
         fill="#000000"
         id="g26"><circle
           cx="0"
           cy="-65"
           r="2"
           transform="rotate(60)"
           id="circle21" /><circle
           cx="0"
           cy="-80"
           r="1.5"
           transform="rotate(60)"
           id="circle22" /><circle
           cx="0"
           cy="-65"
           r="2"
           transform="scale(-1)"
           id="circle23" /><circle
           cx="0"
           cy="-80"
           r="1.5"
           transform="scale(-1)"
           id="circle24" /><circle
           cx="0"
           cy="-65"
           r="2"
           transform="rotate(-60)"
           id="circle25" /><circle
           cx="0"
           cy="-80"
           r="1.5"
           transform="rotate(-60)"
           id="circle26" /></g></g></g></svg>
