<?xml version="1.0" standalone="no"?>
 <!DOCTYPE svg PUBLIC "-//W3C//DTD SVG 1.1//EN" 
 "http://www.w3.org/Graphics/SVG/1.1/DTD/svg11.dtd"> 
<svg
  xmlns:svg="http://www.w3.org/2000/svg"
  xmlns="http://www.w3.org/2000/svg"
  xmlns:xlink="http://www.w3.org/1999/xlink"
  xmlns:inkscape="http://www.inkscape.org/namespaces/inkscape"
  version="1.1"
  width="76.2000mm" height="76.2000mm" viewBox="0.0000 0.0000 76.2000 76.2000">
<title>SVG Image created as lightsystem.svg date 2026-04-01T21:22:38 </title>
  <desc>Image generated by Eeschema-SVG </desc>
<g style="fill:#000000; fill-opacity:1.0000;stroke:#000000; stroke-opacity:1.0000;
stroke-linecap:round; stroke-linejoin:round;"
 transform="translate(0 0) scale(1 1)">
</g>
<g style="fill:#000000; fill-opacity:1.0000; 
stroke:#000000; stroke-width:0.0001; stroke-opacity:1; 
stroke-linecap:round; stroke-linejoin:round;">
<rect x="0.000000" y="0.000000" width="76.200000" height="76.200000" rx="0.000000" />
</g>
<g style="fill:none; 
stroke:#FCFCFC; stroke-width:0.0254; stroke-opacity:1; 
stroke-linecap:round; stroke-linejoin:round;">
<rect x="36.830000" y="20.320000" width="15.240000" height="25.400000" rx="0.000000" />
</g>
<g style="fill:none; 
stroke:#FCFCFC; stroke-width:0.1524; stroke-opacity:1; 
stroke-linecap:round; stroke-linejoin:round;">
<path d="M34.2900 25.4000
L36.8300 25.4000
" />
<text x="33.7820" y="26.0350"
textLength="3.7108" font-size="1.6933" lengthAdjust="spacingAndGlyphs"
text-anchor="end" opacity="0" stroke-opacity="0">3V3</text>
<g class="stroked-text"><desc>3V3</desc>
<path d="M30.3556 24.7095
L31.1418 24.7095
" />
<path d="M31.1418 24.7095
L30.7184 25.1933
" />
<path d="M30.7184 25.1933
L30.8999 25.1933
" />
<path d="M30.8999 25.1933
L31.0208 25.2538
" />
<path d="M31.0208 25.2538
L31.0813 25.3143
" />
<path d="M31.0813 25.3143
L31.1418 25.4352
" />
<path d="M31.1418 25.4352
L31.1418 25.7376
" />
<path d="M31.1418 25.7376
L31.0813 25.8586
" />
<path d="M31.0813 25.8586
L31.0208 25.9191
" />
<path d="M31.0208 25.9191
L30.8999 25.9795
" />
<path d="M30.8999 25.9795
L30.5370 25.9795
" />
<path d="M30.5370 25.9795
L30.4161 25.9191
" />
<path d="M30.4161 25.9191
L30.3556 25.8586
" />
<path d="M31.5046 24.7095
L31.9279 25.9795
" />
<path d="M31.9279 25.9795
L32.3513 24.7095
" />
<path d="M32.6537 24.7095
L33.4399 24.7095
" />
<path d="M33.4399 24.7095
L33.0165 25.1933
" />
<path d="M33.0165 25.1933
L33.1980 25.1933
" />
<path d="M33.1980 25.1933
L33.3189 25.2538
" />
<path d="M33.3189 25.2538
L33.3794 25.3143
" />
<path d="M33.3794 25.3143
L33.4399 25.4352
" />
<path d="M33.4399 25.4352
L33.4399 25.7376
" />
<path d="M33.4399 25.7376
L33.3794 25.8586
" />
<path d="M33.3794 25.8586
L33.3189 25.9191
" />
<path d="M33.3189 25.9191
L33.1980 25.9795
" />
<path d="M33.1980 25.9795
L32.8351 25.9795
" />
<path d="M32.8351 25.9795
L32.7142 25.9191
" />
<path d="M32.7142 25.9191
L32.6537 25.8586
" />
</g><path d="M34.2900 26.6700
L36.8300 26.6700
" />
<text x="33.7820" y="27.3050"
textLength="4.0737" font-size="1.6933" lengthAdjust="spacingAndGlyphs"
text-anchor="end" opacity="0" stroke-opacity="0">GND</text>
<g class="stroked-text"><desc>GND</desc>
<path d="M30.7789 26.0400
L30.6579 25.9795
" />
<path d="M30.6579 25.9795
L30.4765 25.9795
" />
<path d="M30.4765 25.9795
L30.2951 26.0400
" />
<path d="M30.2951 26.0400
L30.1741 26.1610
" />
<path d="M30.1741 26.1610
L30.1136 26.2819
" />
<path d="M30.1136 26.2819
L30.0532 26.5238
" />
<path d="M30.0532 26.5238
L30.0532 26.7052
" />
<path d="M30.0532 26.7052
L30.1136 26.9471
" />
<path d="M30.1136 26.9471
L30.1741 27.0681
" />
<path d="M30.1741 27.0681
L30.2951 27.1891
" />
<path d="M30.2951 27.1891
L30.4765 27.2495
" />
<path d="M30.4765 27.2495
L30.5974 27.2495
" />
<path d="M30.5974 27.2495
L30.7789 27.1891
" />
<path d="M30.7789 27.1891
L30.8393 27.1286
" />
<path d="M30.8393 27.1286
L30.8393 26.7052
" />
<path d="M30.8393 26.7052
L30.5974 26.7052
" />
<path d="M31.3836 27.2495
L31.3836 25.9795
" />
<path d="M31.3836 25.9795
L32.1093 27.2495
" />
<path d="M32.1093 27.2495
L32.1093 25.9795
" />
<path d="M32.7141 27.2495
L32.7141 25.9795
" />
<path d="M32.7141 25.9795
L33.0165 25.9795
" />
<path d="M33.0165 25.9795
L33.1979 26.0400
" />
<path d="M33.1979 26.0400
L33.3189 26.1610
" />
<path d="M33.3189 26.1610
L33.3794 26.2819
" />
<path d="M33.3794 26.2819
L33.4398 26.5238
" />
<path d="M33.4398 26.5238
L33.4398 26.7052
" />
<path d="M33.4398 26.7052
L33.3794 26.9471
" />
<path d="M33.3794 26.9471
L33.3189 27.0681
" />
<path d="M33.3189 27.0681
L33.1979 27.1891
" />
<path d="M33.1979 27.1891
L33.0165 27.2495
" />
<path d="M33.0165 27.2495
L32.7141 27.2495
" />
</g><path d="M34.2900 27.9400
L36.8300 27.9400
" />
<text x="33.7820" y="28.5750"
textLength="3.8922" font-size="1.6933" lengthAdjust="spacingAndGlyphs"
text-anchor="end" opacity="0" stroke-opacity="0">D15</text>
<g class="stroked-text"><desc>D15</desc>
<path d="M30.2951 28.5195
L30.2951 27.2495
" />
<path d="M30.2951 27.2495
L30.5975 27.2495
" />
<path d="M30.5975 27.2495
L30.7789 27.3100
" />
<path d="M30.7789 27.3100
L30.8999 27.4310
" />
<path d="M30.8999 27.4310
L30.9604 27.5519
" />
<path d="M30.9604 27.5519
L31.0208 27.7938
" />
<path d="M31.0208 27.7938
L31.0208 27.9752
" />
<path d="M31.0208 27.9752
L30.9604 28.2171
" />
<path d="M30.9604 28.2171
L30.8999 28.3381
" />
<path d="M30.8999 28.3381
L30.7789 28.4591
" />
<path d="M30.7789 28.4591
L30.5975 28.5195
" />
<path d="M30.5975 28.5195
L30.2951 28.5195
" />
<path d="M32.2304 28.5195
L31.5047 28.5195
" />
<path d="M31.8675 28.5195
L31.8675 27.2495
" />
<path d="M31.8675 27.2495
L31.7466 27.4310
" />
<path d="M31.7466 27.4310
L31.6256 27.5519
" />
<path d="M31.6256 27.5519
L31.5047 27.6124
" />
<path d="M33.3794 27.2495
L32.7746 27.2495
" />
<path d="M32.7746 27.2495
L32.7142 27.8543
" />
<path d="M32.7142 27.8543
L32.7746 27.7938
" />
<path d="M32.7746 27.7938
L32.8956 27.7333
" />
<path d="M32.8956 27.7333
L33.1980 27.7333
" />
<path d="M33.1980 27.7333
L33.3189 27.7938
" />
<path d="M33.3189 27.7938
L33.3794 27.8543
" />
<path d="M33.3794 27.8543
L33.4399 27.9752
" />
<path d="M33.4399 27.9752
L33.4399 28.2776
" />
<path d="M33.4399 28.2776
L33.3794 28.3986
" />
<path d="M33.3794 28.3986
L33.3189 28.4591
" />
<path d="M33.3189 28.4591
L33.1980 28.5195
" />
<path d="M33.1980 28.5195
L32.8956 28.5195
" />
<path d="M32.8956 28.5195
L32.7746 28.4591
" />
<path d="M32.7746 28.4591
L32.7142 28.3986
" />
</g><path d="M34.2900 27.9400
L36.8300 27.9400
" />
<text x="33.7820" y="28.5750"
textLength="3.8922" font-size="1.6933" lengthAdjust="spacingAndGlyphs"
text-anchor="end" opacity="0" stroke-opacity="0">D15</text>
<g class="stroked-text"><desc>D15</desc>
<path d="M30.2951 28.5195
L30.2951 27.2495
" />
<path d="M30.2951 27.2495
L30.5975 27.2495
" />
<path d="M30.5975 27.2495
L30.7789 27.3100
" />
<path d="M30.7789 27.3100
L30.8999 27.4310
" />
<path d="M30.8999 27.4310
L30.9604 27.5519
" />
<path d="M30.9604 27.5519
L31.0208 27.7938
" />
<path d="M31.0208 27.7938
L31.0208 27.9752
" />
<path d="M31.0208 27.9752
L30.9604 28.2171
" />
<path d="M30.9604 28.2171
L30.8999 28.3381
" />
<path d="M30.8999 28.3381
L30.7789 28.4591
" />
<path d="M30.7789 28.4591
L30.5975 28.5195
" />
<path d="M30.5975 28.5195
L30.2951 28.5195
" />
<path d="M32.2304 28.5195
L31.5047 28.5195
" />
<path d="M31.8675 28.5195
L31.8675 27.2495
" />
<path d="M31.8675 27.2495
L31.7466 27.4310
" />
<path d="M31.7466 27.4310
L31.6256 27.5519
" />
<path d="M31.6256 27.5519
L31.5047 27.6124
" />
<path d="M33.3794 27.2495
L32.7746 27.2495
" />
<path d="M32.7746 27.2495
L32.7142 27.8543
" />
<path d="M32.7142 27.8543
L32.7746 27.7938
" />
<path d="M32.7746 27.7938
L32.8956 27.7333
" />
<path d="M32.8956 27.7333
L33.1980 27.7333
" />
<path d="M33.1980 27.7333
L33.3189 27.7938
" />
<path d="M33.3189 27.7938
L33.3794 27.8543
" />
<path d="M33.3794 27.8543
L33.4399 27.9752
" />
<path d="M33.4399 27.9752
L33.4399 28.2776
" />
<path d="M33.4399 28.2776
L33.3794 28.3986
" />
<path d="M33.3794 28.3986
L33.3189 28.4591
" />
<path d="M33.3189 28.4591
L33.1980 28.5195
" />
<path d="M33.1980 28.5195
L32.8956 28.5195
" />
<path d="M32.8956 28.5195
L32.7746 28.4591
" />
<path d="M32.7746 28.4591
L32.7142 28.3986
" />
</g><path d="M34.2900 29.2100
L36.8300 29.2100
" />
<text x="33.7820" y="29.8450"
textLength="2.6827" font-size="1.6933" lengthAdjust="spacingAndGlyphs"
text-anchor="end" opacity="0" stroke-opacity="0">D2</text>
<g class="stroked-text"><desc>D2</desc>
<path d="M31.5046 29.7895
L31.5046 28.5195
" />
<path d="M31.5046 28.5195
L31.8070 28.5195
" />
<path d="M31.8070 28.5195
L31.9884 28.5800
" />
<path d="M31.9884 28.5800
L32.1094 28.7010
" />
<path d="M32.1094 28.7010
L32.1699 28.8219
" />
<path d="M32.1699 28.8219
L32.2303 29.0638
" />
<path d="M32.2303 29.0638
L32.2303 29.2452
" />
<path d="M32.2303 29.2452
L32.1699 29.4871
" />
<path d="M32.1699 29.4871
L32.1094 29.6081
" />
<path d="M32.1094 29.6081
L31.9884 29.7291
" />
<path d="M31.9884 29.7291
L31.8070 29.7895
" />
<path d="M31.8070 29.7895
L31.5046 29.7895
" />
<path d="M32.7142 28.6405
L32.7746 28.5800
" />
<path d="M32.7746 28.5800
L32.8956 28.5195
" />
<path d="M32.8956 28.5195
L33.1980 28.5195
" />
<path d="M33.1980 28.5195
L33.3189 28.5800
" />
<path d="M33.3189 28.5800
L33.3794 28.6405
" />
<path d="M33.3794 28.6405
L33.4399 28.7614
" />
<path d="M33.4399 28.7614
L33.4399 28.8824
" />
<path d="M33.4399 28.8824
L33.3794 29.0638
" />
<path d="M33.3794 29.0638
L32.6537 29.7895
" />
<path d="M32.6537 29.7895
L33.4399 29.7895
" />
</g><path d="M34.2900 30.4800
L36.8300 30.4800
" />
<text x="33.7820" y="31.1150"
textLength="2.6827" font-size="1.6933" lengthAdjust="spacingAndGlyphs"
text-anchor="end" opacity="0" stroke-opacity="0">D4</text>
<g class="stroked-text"><desc>D4</desc>
<path d="M31.5046 31.0595
L31.5046 29.7895
" />
<path d="M31.5046 29.7895
L31.8070 29.7895
" />
<path d="M31.8070 29.7895
L31.9884 29.8500
" />
<path d="M31.9884 29.8500
L32.1094 29.9710
" />
<path d="M32.1094 29.9710
L32.1699 30.0919
" />
<path d="M32.1699 30.0919
L32.2303 30.3338
" />
<path d="M32.2303 30.3338
L32.2303 30.5152
" />
<path d="M32.2303 30.5152
L32.1699 30.7571
" />
<path d="M32.1699 30.7571
L32.1094 30.8781
" />
<path d="M32.1094 30.8781
L31.9884 30.9991
" />
<path d="M31.9884 30.9991
L31.8070 31.0595
" />
<path d="M31.8070 31.0595
L31.5046 31.0595
" />
<path d="M33.3189 30.2129
L33.3189 31.0595
" />
<path d="M33.0165 29.7291
L32.7142 30.6362
" />
<path d="M32.7142 30.6362
L33.5003 30.6362
" />
</g><path d="M34.2900 31.7500
L36.8300 31.7500
" />
<text x="33.7820" y="32.3850"
textLength="3.8922" font-size="1.6933" lengthAdjust="spacingAndGlyphs"
text-anchor="end" opacity="0" stroke-opacity="0">RX2</text>
<g class="stroked-text"><desc>RX2</desc>
<path d="M31.0208 32.3295
L30.5975 31.7248
" />
<path d="M30.2951 32.3295
L30.2951 31.0595
" />
<path d="M30.2951 31.0595
L30.7789 31.0595
" />
<path d="M30.7789 31.0595
L30.8999 31.1200
" />
<path d="M30.8999 31.1200
L30.9604 31.1805
" />
<path d="M30.9604 31.1805
L31.0208 31.3014
" />
<path d="M31.0208 31.3014
L31.0208 31.4829
" />
<path d="M31.0208 31.4829
L30.9604 31.6038
" />
<path d="M30.9604 31.6038
L30.8999 31.6643
" />
<path d="M30.8999 31.6643
L30.7789 31.7248
" />
<path d="M30.7789 31.7248
L30.2951 31.7248
" />
<path d="M31.4442 31.0595
L32.2908 32.3295
" />
<path d="M32.2908 31.0595
L31.4442 32.3295
" />
<path d="M32.7142 31.1805
L32.7746 31.1200
" />
<path d="M32.7746 31.1200
L32.8956 31.0595
" />
<path d="M32.8956 31.0595
L33.1980 31.0595
" />
<path d="M33.1980 31.0595
L33.3189 31.1200
" />
<path d="M33.3189 31.1200
L33.3794 31.1805
" />
<path d="M33.3794 31.1805
L33.4399 31.3014
" />
<path d="M33.4399 31.3014
L33.4399 31.4224
" />
<path d="M33.4399 31.4224
L33.3794 31.6038
" />
<path d="M33.3794 31.6038
L32.6537 32.3295
" />
<path d="M32.6537 32.3295
L33.4399 32.3295
" />
</g><path d="M34.2900 33.0200
L36.8300 33.0200
" />
<text x="33.7820" y="33.6550"
textLength="3.5898" font-size="1.6933" lengthAdjust="spacingAndGlyphs"
text-anchor="end" opacity="0" stroke-opacity="0">TX2</text>
<g class="stroked-text"><desc>TX2</desc>
<path d="M30.4161 32.3295
L31.1418 32.3295
" />
<path d="M30.7790 33.5995
L30.7790 32.3295
" />
<path d="M31.4442 32.3295
L32.2908 33.5995
" />
<path d="M32.2908 32.3295
L31.4442 33.5995
" />
<path d="M32.7142 32.4505
L32.7746 32.3900
" />
<path d="M32.7746 32.3900
L32.8956 32.3295
" />
<path d="M32.8956 32.3295
L33.1980 32.3295
" />
<path d="M33.1980 32.3295
L33.3189 32.3900
" />
<path d="M33.3189 32.3900
L33.3794 32.4505
" />
<path d="M33.3794 32.4505
L33.4399 32.5714
" />
<path d="M33.4399 32.5714
L33.4399 32.6924
" />
<path d="M33.4399 32.6924
L33.3794 32.8738
" />
<path d="M33.3794 32.8738
L32.6537 33.5995
" />
<path d="M32.6537 33.5995
L33.4399 33.5995
" />
</g><path d="M34.2900 34.2900
L36.8300 34.2900
" />
<text x="33.7820" y="34.9250"
textLength="2.6827" font-size="1.6933" lengthAdjust="spacingAndGlyphs"
text-anchor="end" opacity="0" stroke-opacity="0">D5</text>
<g class="stroked-text"><desc>D5</desc>
<path d="M31.5046 34.8695
L31.5046 33.5995
" />
<path d="M31.5046 33.5995
L31.8070 33.5995
" />
<path d="M31.8070 33.5995
L31.9884 33.6600
" />
<path d="M31.9884 33.6600
L32.1094 33.7810
" />
<path d="M32.1094 33.7810
L32.1699 33.9019
" />
<path d="M32.1699 33.9019
L32.2303 34.1438
" />
<path d="M32.2303 34.1438
L32.2303 34.3252
" />
<path d="M32.2303 34.3252
L32.1699 34.5671
" />
<path d="M32.1699 34.5671
L32.1094 34.6881
" />
<path d="M32.1094 34.6881
L31.9884 34.8091
" />
<path d="M31.9884 34.8091
L31.8070 34.8695
" />
<path d="M31.8070 34.8695
L31.5046 34.8695
" />
<path d="M33.3794 33.5995
L32.7746 33.5995
" />
<path d="M32.7746 33.5995
L32.7142 34.2043
" />
<path d="M32.7142 34.2043
L32.7746 34.1438
" />
<path d="M32.7746 34.1438
L32.8956 34.0833
" />
<path d="M32.8956 34.0833
L33.1980 34.0833
" />
<path d="M33.1980 34.0833
L33.3189 34.1438
" />
<path d="M33.3189 34.1438
L33.3794 34.2043
" />
<path d="M33.3794 34.2043
L33.4399 34.3252
" />
<path d="M33.4399 34.3252
L33.4399 34.6276
" />
<path d="M33.4399 34.6276
L33.3794 34.7486
" />
<path d="M33.3794 34.7486
L33.3189 34.8091
" />
<path d="M33.3189 34.8091
L33.1980 34.8695
" />
<path d="M33.1980 34.8695
L32.8956 34.8695
" />
<path d="M32.8956 34.8695
L32.7746 34.8091
" />
<path d="M32.7746 34.8091
L32.7142 34.7486
" />
</g><path d="M34.2900 35.5600
L36.8300 35.5600
" />
<text x="33.7820" y="36.1950"
textLength="3.8922" font-size="1.6933" lengthAdjust="spacingAndGlyphs"
text-anchor="end" opacity="0" stroke-opacity="0">D18</text>
<g class="stroked-text"><desc>D18</desc>
<path d="M30.2951 36.1395
L30.2951 34.8695
" />
<path d="M30.2951 34.8695
L30.5975 34.8695
" />
<path d="M30.5975 34.8695
L30.7789 34.9300
" />
<path d="M30.7789 34.9300
L30.8999 35.0510
" />
<path d="M30.8999 35.0510
L30.9604 35.1719
" />
<path d="M30.9604 35.1719
L31.0208 35.4138
" />
<path d="M31.0208 35.4138
L31.0208 35.5952
" />
<path d="M31.0208 35.5952
L30.9604 35.8371
" />
<path d="M30.9604 35.8371
L30.8999 35.9581
" />
<path d="M30.8999 35.9581
L30.7789 36.0791
" />
<path d="M30.7789 36.0791
L30.5975 36.1395
" />
<path d="M30.5975 36.1395
L30.2951 36.1395
" />
<path d="M32.2304 36.1395
L31.5047 36.1395
" />
<path d="M31.8675 36.1395
L31.8675 34.8695
" />
<path d="M31.8675 34.8695
L31.7466 35.0510
" />
<path d="M31.7466 35.0510
L31.6256 35.1719
" />
<path d="M31.6256 35.1719
L31.5047 35.2324
" />
<path d="M32.9561 35.4138
L32.8351 35.3533
" />
<path d="M32.8351 35.3533
L32.7746 35.2929
" />
<path d="M32.7746 35.2929
L32.7142 35.1719
" />
<path d="M32.7142 35.1719
L32.7142 35.1114
" />
<path d="M32.7142 35.1114
L32.7746 34.9905
" />
<path d="M32.7746 34.9905
L32.8351 34.9300
" />
<path d="M32.8351 34.9300
L32.9561 34.8695
" />
<path d="M32.9561 34.8695
L33.1980 34.8695
" />
<path d="M33.1980 34.8695
L33.3189 34.9300
" />
<path d="M33.3189 34.9300
L33.3794 34.9905
" />
<path d="M33.3794 34.9905
L33.4399 35.1114
" />
<path d="M33.4399 35.1114
L33.4399 35.1719
" />
<path d="M33.4399 35.1719
L33.3794 35.2929
" />
<path d="M33.3794 35.2929
L33.3189 35.3533
" />
<path d="M33.3189 35.3533
L33.1980 35.4138
" />
<path d="M33.1980 35.4138
L32.9561 35.4138
" />
<path d="M32.9561 35.4138
L32.8351 35.4743
" />
<path d="M32.8351 35.4743
L32.7746 35.5348
" />
<path d="M32.7746 35.5348
L32.7142 35.6557
" />
<path d="M32.7142 35.6557
L32.7142 35.8976
" />
<path d="M32.7142 35.8976
L32.7746 36.0186
" />
<path d="M32.7746 36.0186
L32.8351 36.0791
" />
<path d="M32.8351 36.0791
L32.9561 36.1395
" />
<path d="M32.9561 36.1395
L33.1980 36.1395
" />
<path d="M33.1980 36.1395
L33.3189 36.0791
" />
<path d="M33.3189 36.0791
L33.3794 36.0186
" />
<path d="M33.3794 36.0186
L33.4399 35.8976
" />
<path d="M33.4399 35.8976
L33.4399 35.6557
" />
<path d="M33.4399 35.6557
L33.3794 35.5348
" />
<path d="M33.3794 35.5348
L33.3189 35.4743
" />
<path d="M33.3189 35.4743
L33.1980 35.4138
" />
</g><path d="M34.2900 36.8300
L36.8300 36.8300
" />
<text x="33.7820" y="37.4650"
textLength="3.8922" font-size="1.6933" lengthAdjust="spacingAndGlyphs"
text-anchor="end" opacity="0" stroke-opacity="0">D19</text>
<g class="stroked-text"><desc>D19</desc>
<path d="M30.2951 37.4095
L30.2951 36.1395
" />
<path d="M30.2951 36.1395
L30.5975 36.1395
" />
<path d="M30.5975 36.1395
L30.7789 36.2000
" />
<path d="M30.7789 36.2000
L30.8999 36.3210
" />
<path d="M30.8999 36.3210
L30.9604 36.4419
" />
<path d="M30.9604 36.4419
L31.0208 36.6838
" />
<path d="M31.0208 36.6838
L31.0208 36.8652
" />
<path d="M31.0208 36.8652
L30.9604 37.1071
" />
<path d="M30.9604 37.1071
L30.8999 37.2281
" />
<path d="M30.8999 37.2281
L30.7789 37.3491
" />
<path d="M30.7789 37.3491
L30.5975 37.4095
" />
<path d="M30.5975 37.4095
L30.2951 37.4095
" />
<path d="M32.2304 37.4095
L31.5047 37.4095
" />
<path d="M31.8675 37.4095
L31.8675 36.1395
" />
<path d="M31.8675 36.1395
L31.7466 36.3210
" />
<path d="M31.7466 36.3210
L31.6256 36.4419
" />
<path d="M31.6256 36.4419
L31.5047 36.5024
" />
<path d="M32.8351 37.4095
L33.0770 37.4095
" />
<path d="M33.0770 37.4095
L33.1980 37.3491
" />
<path d="M33.1980 37.3491
L33.2584 37.2886
" />
<path d="M33.2584 37.2886
L33.3794 37.1071
" />
<path d="M33.3794 37.1071
L33.4399 36.8652
" />
<path d="M33.4399 36.8652
L33.4399 36.3814
" />
<path d="M33.4399 36.3814
L33.3794 36.2605
" />
<path d="M33.3794 36.2605
L33.3189 36.2000
" />
<path d="M33.3189 36.2000
L33.1980 36.1395
" />
<path d="M33.1980 36.1395
L32.9561 36.1395
" />
<path d="M32.9561 36.1395
L32.8351 36.2000
" />
<path d="M32.8351 36.2000
L32.7746 36.2605
" />
<path d="M32.7746 36.2605
L32.7142 36.3814
" />
<path d="M32.7142 36.3814
L32.7142 36.6838
" />
<path d="M32.7142 36.6838
L32.7746 36.8048
" />
<path d="M32.7746 36.8048
L32.8351 36.8652
" />
<path d="M32.8351 36.8652
L32.9561 36.9257
" />
<path d="M32.9561 36.9257
L33.1980 36.9257
" />
<path d="M33.1980 36.9257
L33.3189 36.8652
" />
<path d="M33.3189 36.8652
L33.3794 36.8048
" />
<path d="M33.3794 36.8048
L33.4399 36.6838
" />
</g><path d="M34.2900 38.1000
L36.8300 38.1000
" />
<text x="33.7820" y="38.7350"
textLength="3.8922" font-size="1.6933" lengthAdjust="spacingAndGlyphs"
text-anchor="end" opacity="0" stroke-opacity="0">D21</text>
<g class="stroked-text"><desc>D21</desc>
<path d="M30.2951 38.6795
L30.2951 37.4095
" />
<path d="M30.2951 37.4095
L30.5975 37.4095
" />
<path d="M30.5975 37.4095
L30.7789 37.4700
" />
<path d="M30.7789 37.4700
L30.8999 37.5910
" />
<path d="M30.8999 37.5910
L30.9604 37.7119
" />
<path d="M30.9604 37.7119
L31.0208 37.9538
" />
<path d="M31.0208 37.9538
L31.0208 38.1352
" />
<path d="M31.0208 38.1352
L30.9604 38.3771
" />
<path d="M30.9604 38.3771
L30.8999 38.4981
" />
<path d="M30.8999 38.4981
L30.7789 38.6191
" />
<path d="M30.7789 38.6191
L30.5975 38.6795
" />
<path d="M30.5975 38.6795
L30.2951 38.6795
" />
<path d="M31.5047 37.5305
L31.5651 37.4700
" />
<path d="M31.5651 37.4700
L31.6861 37.4095
" />
<path d="M31.6861 37.4095
L31.9885 37.4095
" />
<path d="M31.9885 37.4095
L32.1094 37.4700
" />
<path d="M32.1094 37.4700
L32.1699 37.5305
" />
<path d="M32.1699 37.5305
L32.2304 37.6514
" />
<path d="M32.2304 37.6514
L32.2304 37.7724
" />
<path d="M32.2304 37.7724
L32.1699 37.9538
" />
<path d="M32.1699 37.9538
L31.4442 38.6795
" />
<path d="M31.4442 38.6795
L32.2304 38.6795
" />
<path d="M33.4399 38.6795
L32.7142 38.6795
" />
<path d="M33.0770 38.6795
L33.0770 37.4095
" />
<path d="M33.0770 37.4095
L32.9561 37.5910
" />
<path d="M32.9561 37.5910
L32.8351 37.7119
" />
<path d="M32.8351 37.7119
L32.7142 37.7724
" />
</g><path d="M34.2900 39.3700
L36.8300 39.3700
" />
<text x="33.7820" y="40.0050"
textLength="3.8922" font-size="1.6933" lengthAdjust="spacingAndGlyphs"
text-anchor="end" opacity="0" stroke-opacity="0">RX0</text>
<g class="stroked-text"><desc>RX0</desc>
<path d="M31.0208 39.9495
L30.5975 39.3448
" />
<path d="M30.2951 39.9495
L30.2951 38.6795
" />
<path d="M30.2951 38.6795
L30.7789 38.6795
" />
<path d="M30.7789 38.6795
L30.8999 38.7400
" />
<path d="M30.8999 38.7400
L30.9604 38.8005
" />
<path d="M30.9604 38.8005
L31.0208 38.9214
" />
<path d="M31.0208 38.9214
L31.0208 39.1029
" />
<path d="M31.0208 39.1029
L30.9604 39.2238
" />
<path d="M30.9604 39.2238
L30.8999 39.2843
" />
<path d="M30.8999 39.2843
L30.7789 39.3448
" />
<path d="M30.7789 39.3448
L30.2951 39.3448
" />
<path d="M31.4442 38.6795
L32.2908 39.9495
" />
<path d="M32.2908 38.6795
L31.4442 39.9495
" />
<path d="M33.0165 38.6795
L33.1375 38.6795
" />
<path d="M33.1375 38.6795
L33.2584 38.7400
" />
<path d="M33.2584 38.7400
L33.3189 38.8005
" />
<path d="M33.3189 38.8005
L33.3794 38.9214
" />
<path d="M33.3794 38.9214
L33.4399 39.1633
" />
<path d="M33.4399 39.1633
L33.4399 39.4657
" />
<path d="M33.4399 39.4657
L33.3794 39.7076
" />
<path d="M33.3794 39.7076
L33.3189 39.8286
" />
<path d="M33.3189 39.8286
L33.2584 39.8891
" />
<path d="M33.2584 39.8891
L33.1375 39.9495
" />
<path d="M33.1375 39.9495
L33.0165 39.9495
" />
<path d="M33.0165 39.9495
L32.8956 39.8891
" />
<path d="M32.8956 39.8891
L32.8351 39.8286
" />
<path d="M32.8351 39.8286
L32.7746 39.7076
" />
<path d="M32.7746 39.7076
L32.7142 39.4657
" />
<path d="M32.7142 39.4657
L32.7142 39.1633
" />
<path d="M32.7142 39.1633
L32.7746 38.9214
" />
<path d="M32.7746 38.9214
L32.8351 38.8005
" />
<path d="M32.8351 38.8005
L32.8956 38.7400
" />
<path d="M32.8956 38.7400
L33.0165 38.6795
" />
</g><path d="M34.2900 40.6400
L36.8300 40.6400
" />
<text x="33.7820" y="41.2750"
textLength="3.5898" font-size="1.6933" lengthAdjust="spacingAndGlyphs"
text-anchor="end" opacity="0" stroke-opacity="0">TX0</text>
<g class="stroked-text"><desc>TX0</desc>
<path d="M30.4161 39.9495
L31.1418 39.9495
" />
<path d="M30.7790 41.2195
L30.7790 39.9495
" />
<path d="M31.4442 39.9495
L32.2908 41.2195
" />
<path d="M32.2908 39.9495
L31.4442 41.2195
" />
<path d="M33.0165 39.9495
L33.1375 39.9495
" />
<path d="M33.1375 39.9495
L33.2584 40.0100
" />
<path d="M33.2584 40.0100
L33.3189 40.0705
" />
<path d="M33.3189 40.0705
L33.3794 40.1914
" />
<path d="M33.3794 40.1914
L33.4399 40.4333
" />
<path d="M33.4399 40.4333
L33.4399 40.7357
" />
<path d="M33.4399 40.7357
L33.3794 40.9776
" />
<path d="M33.3794 40.9776
L33.3189 41.0986
" />
<path d="M33.3189 41.0986
L33.2584 41.1591
" />
<path d="M33.2584 41.1591
L33.1375 41.2195
" />
<path d="M33.1375 41.2195
L33.0165 41.2195
" />
<path d="M33.0165 41.2195
L32.8956 41.1591
" />
<path d="M32.8956 41.1591
L32.8351 41.0986
" />
<path d="M32.8351 41.0986
L32.7746 40.9776
" />
<path d="M32.7746 40.9776
L32.7142 40.7357
" />
<path d="M32.7142 40.7357
L32.7142 40.4333
" />
<path d="M32.7142 40.4333
L32.7746 40.1914
" />
<path d="M32.7746 40.1914
L32.8351 40.0705
" />
<path d="M32.8351 40.0705
L32.8956 40.0100
" />
<path d="M32.8956 40.0100
L33.0165 39.9495
" />
</g><path d="M34.2900 41.9100
L36.8300 41.9100
" />
<text x="33.7820" y="42.5450"
textLength="3.8922" font-size="1.6933" lengthAdjust="spacingAndGlyphs"
text-anchor="end" opacity="0" stroke-opacity="0">D22</text>
<g class="stroked-text"><desc>D22</desc>
<path d="M30.2951 42.4895
L30.2951 41.2195
" />
<path d="M30.2951 41.2195
L30.5975 41.2195
" />
<path d="M30.5975 41.2195
L30.7789 41.2800
" />
<path d="M30.7789 41.2800
L30.8999 41.4010
" />
<path d="M30.8999 41.4010
L30.9604 41.5219
" />
<path d="M30.9604 41.5219
L31.0208 41.7638
" />
<path d="M31.0208 41.7638
L31.0208 41.9452
" />
<path d="M31.0208 41.9452
L30.9604 42.1871
" />
<path d="M30.9604 42.1871
L30.8999 42.3081
" />
<path d="M30.8999 42.3081
L30.7789 42.4291
" />
<path d="M30.7789 42.4291
L30.5975 42.4895
" />
<path d="M30.5975 42.4895
L30.2951 42.4895
" />
<path d="M31.5047 41.3405
L31.5651 41.2800
" />
<path d="M31.5651 41.2800
L31.6861 41.2195
" />
<path d="M31.6861 41.2195
L31.9885 41.2195
" />
<path d="M31.9885 41.2195
L32.1094 41.2800
" />
<path d="M32.1094 41.2800
L32.1699 41.3405
" />
<path d="M32.1699 41.3405
L32.2304 41.4614
" />
<path d="M32.2304 41.4614
L32.2304 41.5824
" />
<path d="M32.2304 41.5824
L32.1699 41.7638
" />
<path d="M32.1699 41.7638
L31.4442 42.4895
" />
<path d="M31.4442 42.4895
L32.2304 42.4895
" />
<path d="M32.7142 41.3405
L32.7746 41.2800
" />
<path d="M32.7746 41.2800
L32.8956 41.2195
" />
<path d="M32.8956 41.2195
L33.1980 41.2195
" />
<path d="M33.1980 41.2195
L33.3189 41.2800
" />
<path d="M33.3189 41.2800
L33.3794 41.3405
" />
<path d="M33.3794 41.3405
L33.4399 41.4614
" />
<path d="M33.4399 41.4614
L33.4399 41.5824
" />
<path d="M33.4399 41.5824
L33.3794 41.7638
" />
<path d="M33.3794 41.7638
L32.6537 42.4895
" />
<path d="M32.6537 42.4895
L33.4399 42.4895
" />
</g><path d="M34.2900 43.1800
L36.8300 43.1800
" />
<text x="33.7820" y="43.8150"
textLength="3.8922" font-size="1.6933" lengthAdjust="spacingAndGlyphs"
text-anchor="end" opacity="0" stroke-opacity="0">D23</text>
<g class="stroked-text"><desc>D23</desc>
<path d="M30.2951 43.7595
L30.2951 42.4895
" />
<path d="M30.2951 42.4895
L30.5975 42.4895
" />
<path d="M30.5975 42.4895
L30.7789 42.5500
" />
<path d="M30.7789 42.5500
L30.8999 42.6710
" />
<path d="M30.8999 42.6710
L30.9604 42.7919
" />
<path d="M30.9604 42.7919
L31.0208 43.0338
" />
<path d="M31.0208 43.0338
L31.0208 43.2152
" />
<path d="M31.0208 43.2152
L30.9604 43.4571
" />
<path d="M30.9604 43.4571
L30.8999 43.5781
" />
<path d="M30.8999 43.5781
L30.7789 43.6991
" />
<path d="M30.7789 43.6991
L30.5975 43.7595
" />
<path d="M30.5975 43.7595
L30.2951 43.7595
" />
<path d="M31.5047 42.6105
L31.5651 42.5500
" />
<path d="M31.5651 42.5500
L31.6861 42.4895
" />
<path d="M31.6861 42.4895
L31.9885 42.4895
" />
<path d="M31.9885 42.4895
L32.1094 42.5500
" />
<path d="M32.1094 42.5500
L32.1699 42.6105
" />
<path d="M32.1699 42.6105
L32.2304 42.7314
" />
<path d="M32.2304 42.7314
L32.2304 42.8524
" />
<path d="M32.2304 42.8524
L32.1699 43.0338
" />
<path d="M32.1699 43.0338
L31.4442 43.7595
" />
<path d="M31.4442 43.7595
L32.2304 43.7595
" />
<path d="M32.6537 42.4895
L33.4399 42.4895
" />
<path d="M33.4399 42.4895
L33.0165 42.9733
" />
<path d="M33.0165 42.9733
L33.1980 42.9733
" />
<path d="M33.1980 42.9733
L33.3189 43.0338
" />
<path d="M33.3189 43.0338
L33.3794 43.0943
" />
<path d="M33.3794 43.0943
L33.4399 43.2152
" />
<path d="M33.4399 43.2152
L33.4399 43.5176
" />
<path d="M33.4399 43.5176
L33.3794 43.6386
" />
<path d="M33.3794 43.6386
L33.3189 43.6991
" />
<path d="M33.3189 43.6991
L33.1980 43.7595
" />
<path d="M33.1980 43.7595
L32.8351 43.7595
" />
<path d="M32.8351 43.7595
L32.7142 43.6991
" />
<path d="M32.7142 43.6991
L32.6537 43.6386
" />
</g><path d="M54.6100 25.4000
L52.0700 25.4000
" />
<text x="55.1180" y="26.0350"
textLength="2.5013" font-size="1.6933" lengthAdjust="spacingAndGlyphs"
text-anchor="start" opacity="0" stroke-opacity="0">5V</text>
<g class="stroked-text"><desc>5V</desc>
<path d="M56.1253 24.7095
L55.5205 24.7095
" />
<path d="M55.5205 24.7095
L55.4601 25.3143
" />
<path d="M55.4601 25.3143
L55.5205 25.2538
" />
<path d="M55.5205 25.2538
L55.6415 25.1933
" />
<path d="M55.6415 25.1933
L55.9439 25.1933
" />
<path d="M55.9439 25.1933
L56.0648 25.2538
" />
<path d="M56.0648 25.2538
L56.1253 25.3143
" />
<path d="M56.1253 25.3143
L56.1858 25.4352
" />
<path d="M56.1858 25.4352
L56.1858 25.7376
" />
<path d="M56.1858 25.7376
L56.1253 25.8586
" />
<path d="M56.1253 25.8586
L56.0648 25.9191
" />
<path d="M56.0648 25.9191
L55.9439 25.9795
" />
<path d="M55.9439 25.9795
L55.6415 25.9795
" />
<path d="M55.6415 25.9795
L55.5205 25.9191
" />
<path d="M55.5205 25.9191
L55.4601 25.8586
" />
<path d="M56.5486 24.7095
L56.9719 25.9795
" />
<path d="M56.9719 25.9795
L57.3953 24.7095
" />
</g><path d="M54.6100 26.6700
L52.0700 26.6700
" />
<text x="55.1180" y="27.3050"
textLength="4.0737" font-size="1.6933" lengthAdjust="spacingAndGlyphs"
text-anchor="start" opacity="0" stroke-opacity="0">GND</text>
<g class="stroked-text"><desc>GND</desc>
<path d="M56.1858 26.0400
L56.0648 25.9795
" />
<path d="M56.0648 25.9795
L55.8834 25.9795
" />
<path d="M55.8834 25.9795
L55.7020 26.0400
" />
<path d="M55.7020 26.0400
L55.5810 26.1610
" />
<path d="M55.5810 26.1610
L55.5205 26.2819
" />
<path d="M55.5205 26.2819
L55.4601 26.5238
" />
<path d="M55.4601 26.5238
L55.4601 26.7052
" />
<path d="M55.4601 26.7052
L55.5205 26.9471
" />
<path d="M55.5205 26.9471
L55.5810 27.0681
" />
<path d="M55.5810 27.0681
L55.7020 27.1891
" />
<path d="M55.7020 27.1891
L55.8834 27.2495
" />
<path d="M55.8834 27.2495
L56.0043 27.2495
" />
<path d="M56.0043 27.2495
L56.1858 27.1891
" />
<path d="M56.1858 27.1891
L56.2462 27.1286
" />
<path d="M56.2462 27.1286
L56.2462 26.7052
" />
<path d="M56.2462 26.7052
L56.0043 26.7052
" />
<path d="M56.7905 27.2495
L56.7905 25.9795
" />
<path d="M56.7905 25.9795
L57.5162 27.2495
" />
<path d="M57.5162 27.2495
L57.5162 25.9795
" />
<path d="M58.1210 27.2495
L58.1210 25.9795
" />
<path d="M58.1210 25.9795
L58.4234 25.9795
" />
<path d="M58.4234 25.9795
L58.6048 26.0400
" />
<path d="M58.6048 26.0400
L58.7258 26.1610
" />
<path d="M58.7258 26.1610
L58.7863 26.2819
" />
<path d="M58.7863 26.2819
L58.8467 26.5238
" />
<path d="M58.8467 26.5238
L58.8467 26.7052
" />
<path d="M58.8467 26.7052
L58.7863 26.9471
" />
<path d="M58.7863 26.9471
L58.7258 27.0681
" />
<path d="M58.7258 27.0681
L58.6048 27.1891
" />
<path d="M58.6048 27.1891
L58.4234 27.2495
" />
<path d="M58.4234 27.2495
L58.1210 27.2495
" />
</g><path d="M54.6100 27.9400
L52.0700 27.9400
" />
<text x="55.1180" y="28.5750"
textLength="3.8922" font-size="1.6933" lengthAdjust="spacingAndGlyphs"
text-anchor="start" opacity="0" stroke-opacity="0">D13</text>
<g class="stroked-text"><desc>D13</desc>
<path d="M55.5205 28.5195
L55.5205 27.2495
" />
<path d="M55.5205 27.2495
L55.8229 27.2495
" />
<path d="M55.8229 27.2495
L56.0043 27.3100
" />
<path d="M56.0043 27.3100
L56.1253 27.4310
" />
<path d="M56.1253 27.4310
L56.1858 27.5519
" />
<path d="M56.1858 27.5519
L56.2462 27.7938
" />
<path d="M56.2462 27.7938
L56.2462 27.9752
" />
<path d="M56.2462 27.9752
L56.1858 28.2171
" />
<path d="M56.1858 28.2171
L56.1253 28.3381
" />
<path d="M56.1253 28.3381
L56.0043 28.4591
" />
<path d="M56.0043 28.4591
L55.8229 28.5195
" />
<path d="M55.8229 28.5195
L55.5205 28.5195
" />
<path d="M57.4558 28.5195
L56.7301 28.5195
" />
<path d="M57.0929 28.5195
L57.0929 27.2495
" />
<path d="M57.0929 27.2495
L56.9720 27.4310
" />
<path d="M56.9720 27.4310
L56.8510 27.5519
" />
<path d="M56.8510 27.5519
L56.7301 27.6124
" />
<path d="M57.8791 27.2495
L58.6653 27.2495
" />
<path d="M58.6653 27.2495
L58.2419 27.7333
" />
<path d="M58.2419 27.7333
L58.4234 27.7333
" />
<path d="M58.4234 27.7333
L58.5443 27.7938
" />
<path d="M58.5443 27.7938
L58.6048 27.8543
" />
<path d="M58.6048 27.8543
L58.6653 27.9752
" />
<path d="M58.6653 27.9752
L58.6653 28.2776
" />
<path d="M58.6653 28.2776
L58.6048 28.3986
" />
<path d="M58.6048 28.3986
L58.5443 28.4591
" />
<path d="M58.5443 28.4591
L58.4234 28.5195
" />
<path d="M58.4234 28.5195
L58.0605 28.5195
" />
<path d="M58.0605 28.5195
L57.9396 28.4591
" />
<path d="M57.9396 28.4591
L57.8791 28.3986
" />
</g><path d="M54.6100 29.2100
L52.0700 29.2100
" />
<text x="55.1180" y="29.8450"
textLength="3.8922" font-size="1.6933" lengthAdjust="spacingAndGlyphs"
text-anchor="start" opacity="0" stroke-opacity="0">D12</text>
<g class="stroked-text"><desc>D12</desc>
<path d="M55.5205 29.7895
L55.5205 28.5195
" />
<path d="M55.5205 28.5195
L55.8229 28.5195
" />
<path d="M55.8229 28.5195
L56.0043 28.5800
" />
<path d="M56.0043 28.5800
L56.1253 28.7010
" />
<path d="M56.1253 28.7010
L56.1858 28.8219
" />
<path d="M56.1858 28.8219
L56.2462 29.0638
" />
<path d="M56.2462 29.0638
L56.2462 29.2452
" />
<path d="M56.2462 29.2452
L56.1858 29.4871
" />
<path d="M56.1858 29.4871
L56.1253 29.6081
" />
<path d="M56.1253 29.6081
L56.0043 29.7291
" />
<path d="M56.0043 29.7291
L55.8229 29.7895
" />
<path d="M55.8229 29.7895
L55.5205 29.7895
" />
<path d="M57.4558 29.7895
L56.7301 29.7895
" />
<path d="M57.0929 29.7895
L57.0929 28.5195
" />
<path d="M57.0929 28.5195
L56.9720 28.7010
" />
<path d="M56.9720 28.7010
L56.8510 28.8219
" />
<path d="M56.8510 28.8219
L56.7301 28.8824
" />
<path d="M57.9396 28.6405
L58.0000 28.5800
" />
<path d="M58.0000 28.5800
L58.1210 28.5195
" />
<path d="M58.1210 28.5195
L58.4234 28.5195
" />
<path d="M58.4234 28.5195
L58.5443 28.5800
" />
<path d="M58.5443 28.5800
L58.6048 28.6405
" />
<path d="M58.6048 28.6405
L58.6653 28.7614
" />
<path d="M58.6653 28.7614
L58.6653 28.8824
" />
<path d="M58.6653 28.8824
L58.6048 29.0638
" />
<path d="M58.6048 29.0638
L57.8791 29.7895
" />
<path d="M57.8791 29.7895
L58.6653 29.7895
" />
</g><path d="M54.6100 30.4800
L52.0700 30.4800
" />
<text x="55.1180" y="31.1150"
textLength="3.8922" font-size="1.6933" lengthAdjust="spacingAndGlyphs"
text-anchor="start" opacity="0" stroke-opacity="0">D14</text>
<g class="stroked-text"><desc>D14</desc>
<path d="M55.5205 31.0595
L55.5205 29.7895
" />
<path d="M55.5205 29.7895
L55.8229 29.7895
" />
<path d="M55.8229 29.7895
L56.0043 29.8500
" />
<path d="M56.0043 29.8500
L56.1253 29.9710
" />
<path d="M56.1253 29.9710
L56.1858 30.0919
" />
<path d="M56.1858 30.0919
L56.2462 30.3338
" />
<path d="M56.2462 30.3338
L56.2462 30.5152
" />
<path d="M56.2462 30.5152
L56.1858 30.7571
" />
<path d="M56.1858 30.7571
L56.1253 30.8781
" />
<path d="M56.1253 30.8781
L56.0043 30.9991
" />
<path d="M56.0043 30.9991
L55.8229 31.0595
" />
<path d="M55.8229 31.0595
L55.5205 31.0595
" />
<path d="M57.4558 31.0595
L56.7301 31.0595
" />
<path d="M57.0929 31.0595
L57.0929 29.7895
" />
<path d="M57.0929 29.7895
L56.9720 29.9710
" />
<path d="M56.9720 29.9710
L56.8510 30.0919
" />
<path d="M56.8510 30.0919
L56.7301 30.1524
" />
<path d="M58.5443 30.2129
L58.5443 31.0595
" />
<path d="M58.2419 29.7291
L57.9396 30.6362
" />
<path d="M57.9396 30.6362
L58.7257 30.6362
" />
</g><path d="M54.6100 31.7500
L52.0700 31.7500
" />
<text x="55.1180" y="32.3850"
textLength="3.8922" font-size="1.6933" lengthAdjust="spacingAndGlyphs"
text-anchor="start" opacity="0" stroke-opacity="0">D27</text>
<g class="stroked-text"><desc>D27</desc>
<path d="M55.5205 32.3295
L55.5205 31.0595
" />
<path d="M55.5205 31.0595
L55.8229 31.0595
" />
<path d="M55.8229 31.0595
L56.0043 31.1200
" />
<path d="M56.0043 31.1200
L56.1253 31.2410
" />
<path d="M56.1253 31.2410
L56.1858 31.3619
" />
<path d="M56.1858 31.3619
L56.2462 31.6038
" />
<path d="M56.2462 31.6038
L56.2462 31.7852
" />
<path d="M56.2462 31.7852
L56.1858 32.0271
" />
<path d="M56.1858 32.0271
L56.1253 32.1481
" />
<path d="M56.1253 32.1481
L56.0043 32.2691
" />
<path d="M56.0043 32.2691
L55.8229 32.3295
" />
<path d="M55.8229 32.3295
L55.5205 32.3295
" />
<path d="M56.7301 31.1805
L56.7905 31.1200
" />
<path d="M56.7905 31.1200
L56.9115 31.0595
" />
<path d="M56.9115 31.0595
L57.2139 31.0595
" />
<path d="M57.2139 31.0595
L57.3348 31.1200
" />
<path d="M57.3348 31.1200
L57.3953 31.1805
" />
<path d="M57.3953 31.1805
L57.4558 31.3014
" />
<path d="M57.4558 31.3014
L57.4558 31.4224
" />
<path d="M57.4558 31.4224
L57.3953 31.6038
" />
<path d="M57.3953 31.6038
L56.6696 32.3295
" />
<path d="M56.6696 32.3295
L57.4558 32.3295
" />
<path d="M57.8791 31.0595
L58.7257 31.0595
" />
<path d="M58.7257 31.0595
L58.1815 32.3295
" />
</g><path d="M54.6100 33.0200
L52.0700 33.0200
" />
<text x="55.1180" y="33.6550"
textLength="3.8922" font-size="1.6933" lengthAdjust="spacingAndGlyphs"
text-anchor="start" opacity="0" stroke-opacity="0">D26</text>
<g class="stroked-text"><desc>D26</desc>
<path d="M55.5205 33.5995
L55.5205 32.3295
" />
<path d="M55.5205 32.3295
L55.8229 32.3295
" />
<path d="M55.8229 32.3295
L56.0043 32.3900
" />
<path d="M56.0043 32.3900
L56.1253 32.5110
" />
<path d="M56.1253 32.5110
L56.1858 32.6319
" />
<path d="M56.1858 32.6319
L56.2462 32.8738
" />
<path d="M56.2462 32.8738
L56.2462 33.0552
" />
<path d="M56.2462 33.0552
L56.1858 33.2971
" />
<path d="M56.1858 33.2971
L56.1253 33.4181
" />
<path d="M56.1253 33.4181
L56.0043 33.5391
" />
<path d="M56.0043 33.5391
L55.8229 33.5995
" />
<path d="M55.8229 33.5995
L55.5205 33.5995
" />
<path d="M56.7301 32.4505
L56.7905 32.3900
" />
<path d="M56.7905 32.3900
L56.9115 32.3295
" />
<path d="M56.9115 32.3295
L57.2139 32.3295
" />
<path d="M57.2139 32.3295
L57.3348 32.3900
" />
<path d="M57.3348 32.3900
L57.3953 32.4505
" />
<path d="M57.3953 32.4505
L57.4558 32.5714
" />
<path d="M57.4558 32.5714
L57.4558 32.6924
" />
<path d="M57.4558 32.6924
L57.3953 32.8738
" />
<path d="M57.3953 32.8738
L56.6696 33.5995
" />
<path d="M56.6696 33.5995
L57.4558 33.5995
" />
<path d="M58.5443 32.3295
L58.3024 32.3295
" />
<path d="M58.3024 32.3295
L58.1815 32.3900
" />
<path d="M58.1815 32.3900
L58.1210 32.4505
" />
<path d="M58.1210 32.4505
L58.0000 32.6319
" />
<path d="M58.0000 32.6319
L57.9396 32.8738
" />
<path d="M57.9396 32.8738
L57.9396 33.3576
" />
<path d="M57.9396 33.3576
L58.0000 33.4786
" />
<path d="M58.0000 33.4786
L58.0605 33.5391
" />
<path d="M58.0605 33.5391
L58.1815 33.5995
" />
<path d="M58.1815 33.5995
L58.4234 33.5995
" />
<path d="M58.4234 33.5995
L58.5443 33.5391
" />
<path d="M58.5443 33.5391
L58.6048 33.4786
" />
<path d="M58.6048 33.4786
L58.6653 33.3576
" />
<path d="M58.6653 33.3576
L58.6653 33.0552
" />
<path d="M58.6653 33.0552
L58.6048 32.9343
" />
<path d="M58.6048 32.9343
L58.5443 32.8738
" />
<path d="M58.5443 32.8738
L58.4234 32.8133
" />
<path d="M58.4234 32.8133
L58.1815 32.8133
" />
<path d="M58.1815 32.8133
L58.0605 32.8738
" />
<path d="M58.0605 32.8738
L58.0000 32.9343
" />
<path d="M58.0000 32.9343
L57.9396 33.0552
" />
</g><path d="M54.6100 34.2900
L52.0700 34.2900
" />
<text x="55.1180" y="34.9250"
textLength="3.8922" font-size="1.6933" lengthAdjust="spacingAndGlyphs"
text-anchor="start" opacity="0" stroke-opacity="0">D25</text>
<g class="stroked-text"><desc>D25</desc>
<path d="M55.5205 34.8695
L55.5205 33.5995
" />
<path d="M55.5205 33.5995
L55.8229 33.5995
" />
<path d="M55.8229 33.5995
L56.0043 33.6600
" />
<path d="M56.0043 33.6600
L56.1253 33.7810
" />
<path d="M56.1253 33.7810
L56.1858 33.9019
" />
<path d="M56.1858 33.9019
L56.2462 34.1438
" />
<path d="M56.2462 34.1438
L56.2462 34.3252
" />
<path d="M56.2462 34.3252
L56.1858 34.5671
" />
<path d="M56.1858 34.5671
L56.1253 34.6881
" />
<path d="M56.1253 34.6881
L56.0043 34.8091
" />
<path d="M56.0043 34.8091
L55.8229 34.8695
" />
<path d="M55.8229 34.8695
L55.5205 34.8695
" />
<path d="M56.7301 33.7205
L56.7905 33.6600
" />
<path d="M56.7905 33.6600
L56.9115 33.5995
" />
<path d="M56.9115 33.5995
L57.2139 33.5995
" />
<path d="M57.2139 33.5995
L57.3348 33.6600
" />
<path d="M57.3348 33.6600
L57.3953 33.7205
" />
<path d="M57.3953 33.7205
L57.4558 33.8414
" />
<path d="M57.4558 33.8414
L57.4558 33.9624
" />
<path d="M57.4558 33.9624
L57.3953 34.1438
" />
<path d="M57.3953 34.1438
L56.6696 34.8695
" />
<path d="M56.6696 34.8695
L57.4558 34.8695
" />
<path d="M58.6048 33.5995
L58.0000 33.5995
" />
<path d="M58.0000 33.5995
L57.9396 34.2043
" />
<path d="M57.9396 34.2043
L58.0000 34.1438
" />
<path d="M58.0000 34.1438
L58.1210 34.0833
" />
<path d="M58.1210 34.0833
L58.4234 34.0833
" />
<path d="M58.4234 34.0833
L58.5443 34.1438
" />
<path d="M58.5443 34.1438
L58.6048 34.2043
" />
<path d="M58.6048 34.2043
L58.6653 34.3252
" />
<path d="M58.6653 34.3252
L58.6653 34.6276
" />
<path d="M58.6653 34.6276
L58.6048 34.7486
" />
<path d="M58.6048 34.7486
L58.5443 34.8091
" />
<path d="M58.5443 34.8091
L58.4234 34.8695
" />
<path d="M58.4234 34.8695
L58.1210 34.8695
" />
<path d="M58.1210 34.8695
L58.0000 34.8091
" />
<path d="M58.0000 34.8091
L57.9396 34.7486
" />
</g><path d="M54.6100 35.5600
L52.0700 35.5600
" />
<text x="55.1180" y="36.1950"
textLength="3.8922" font-size="1.6933" lengthAdjust="spacingAndGlyphs"
text-anchor="start" opacity="0" stroke-opacity="0">D33</text>
<g class="stroked-text"><desc>D33</desc>
<path d="M55.5205 36.1395
L55.5205 34.8695
" />
<path d="M55.5205 34.8695
L55.8229 34.8695
" />
<path d="M55.8229 34.8695
L56.0043 34.9300
" />
<path d="M56.0043 34.9300
L56.1253 35.0510
" />
<path d="M56.1253 35.0510
L56.1858 35.1719
" />
<path d="M56.1858 35.1719
L56.2462 35.4138
" />
<path d="M56.2462 35.4138
L56.2462 35.5952
" />
<path d="M56.2462 35.5952
L56.1858 35.8371
" />
<path d="M56.1858 35.8371
L56.1253 35.9581
" />
<path d="M56.1253 35.9581
L56.0043 36.0791
" />
<path d="M56.0043 36.0791
L55.8229 36.1395
" />
<path d="M55.8229 36.1395
L55.5205 36.1395
" />
<path d="M56.6696 34.8695
L57.4558 34.8695
" />
<path d="M57.4558 34.8695
L57.0324 35.3533
" />
<path d="M57.0324 35.3533
L57.2139 35.3533
" />
<path d="M57.2139 35.3533
L57.3348 35.4138
" />
<path d="M57.3348 35.4138
L57.3953 35.4743
" />
<path d="M57.3953 35.4743
L57.4558 35.5952
" />
<path d="M57.4558 35.5952
L57.4558 35.8976
" />
<path d="M57.4558 35.8976
L57.3953 36.0186
" />
<path d="M57.3953 36.0186
L57.3348 36.0791
" />
<path d="M57.3348 36.0791
L57.2139 36.1395
" />
<path d="M57.2139 36.1395
L56.8510 36.1395
" />
<path d="M56.8510 36.1395
L56.7301 36.0791
" />
<path d="M56.7301 36.0791
L56.6696 36.0186
" />
<path d="M57.8791 34.8695
L58.6653 34.8695
" />
<path d="M58.6653 34.8695
L58.2419 35.3533
" />
<path d="M58.2419 35.3533
L58.4234 35.3533
" />
<path d="M58.4234 35.3533
L58.5443 35.4138
" />
<path d="M58.5443 35.4138
L58.6048 35.4743
" />
<path d="M58.6048 35.4743
L58.6653 35.5952
" />
<path d="M58.6653 35.5952
L58.6653 35.8976
" />
<path d="M58.6653 35.8976
L58.6048 36.0186
" />
<path d="M58.6048 36.0186
L58.5443 36.0791
" />
<path d="M58.5443 36.0791
L58.4234 36.1395
" />
<path d="M58.4234 36.1395
L58.0605 36.1395
" />
<path d="M58.0605 36.1395
L57.9396 36.0791
" />
<path d="M57.9396 36.0791
L57.8791 36.0186
" />
</g><path d="M54.6100 36.8300
L52.0700 36.8300
" />
<text x="55.1180" y="37.4650"
textLength="3.8922" font-size="1.6933" lengthAdjust="spacingAndGlyphs"
text-anchor="start" opacity="0" stroke-opacity="0">D32</text>
<g class="stroked-text"><desc>D32</desc>
<path d="M55.5205 37.4095
L55.5205 36.1395
" />
<path d="M55.5205 36.1395
L55.8229 36.1395
" />
<path d="M55.8229 36.1395
L56.0043 36.2000
" />
<path d="M56.0043 36.2000
L56.1253 36.3210
" />
<path d="M56.1253 36.3210
L56.1858 36.4419
" />
<path d="M56.1858 36.4419
L56.2462 36.6838
" />
<path d="M56.2462 36.6838
L56.2462 36.8652
" />
<path d="M56.2462 36.8652
L56.1858 37.1071
" />
<path d="M56.1858 37.1071
L56.1253 37.2281
" />
<path d="M56.1253 37.2281
L56.0043 37.3491
" />
<path d="M56.0043 37.3491
L55.8229 37.4095
" />
<path d="M55.8229 37.4095
L55.5205 37.4095
" />
<path d="M56.6696 36.1395
L57.4558 36.1395
" />
<path d="M57.4558 36.1395
L57.0324 36.6233
" />
<path d="M57.0324 36.6233
L57.2139 36.6233
" />
<path d="M57.2139 36.6233
L57.3348 36.6838
" />
<path d="M57.3348 36.6838
L57.3953 36.7443
" />
<path d="M57.3953 36.7443
L57.4558 36.8652
" />
<path d="M57.4558 36.8652
L57.4558 37.1676
" />
<path d="M57.4558 37.1676
L57.3953 37.2886
" />
<path d="M57.3953 37.2886
L57.3348 37.3491
" />
<path d="M57.3348 37.3491
L57.2139 37.4095
" />
<path d="M57.2139 37.4095
L56.8510 37.4095
" />
<path d="M56.8510 37.4095
L56.7301 37.3491
" />
<path d="M56.7301 37.3491
L56.6696 37.2886
" />
<path d="M57.9396 36.2605
L58.0000 36.2000
" />
<path d="M58.0000 36.2000
L58.1210 36.1395
" />
<path d="M58.1210 36.1395
L58.4234 36.1395
" />
<path d="M58.4234 36.1395
L58.5443 36.2000
" />
<path d="M58.5443 36.2000
L58.6048 36.2605
" />
<path d="M58.6048 36.2605
L58.6653 36.3814
" />
<path d="M58.6653 36.3814
L58.6653 36.5024
" />
<path d="M58.6653 36.5024
L58.6048 36.6838
" />
<path d="M58.6048 36.6838
L57.8791 37.4095
" />
<path d="M57.8791 37.4095
L58.6653 37.4095
" />
</g><path d="M54.6100 38.1000
L52.0700 38.1000
" />
<text x="55.1180" y="38.7350"
textLength="3.8922" font-size="1.6933" lengthAdjust="spacingAndGlyphs"
text-anchor="start" opacity="0" stroke-opacity="0">D35</text>
<g class="stroked-text"><desc>D35</desc>
<path d="M55.5205 38.6795
L55.5205 37.4095
" />
<path d="M55.5205 37.4095
L55.8229 37.4095
" />
<path d="M55.8229 37.4095
L56.0043 37.4700
" />
<path d="M56.0043 37.4700
L56.1253 37.5910
" />
<path d="M56.1253 37.5910
L56.1858 37.7119
" />
<path d="M56.1858 37.7119
L56.2462 37.9538
" />
<path d="M56.2462 37.9538
L56.2462 38.1352
" />
<path d="M56.2462 38.1352
L56.1858 38.3771
" />
<path d="M56.1858 38.3771
L56.1253 38.4981
" />
<path d="M56.1253 38.4981
L56.0043 38.6191
" />
<path d="M56.0043 38.6191
L55.8229 38.6795
" />
<path d="M55.8229 38.6795
L55.5205 38.6795
" />
<path d="M56.6696 37.4095
L57.4558 37.4095
" />
<path d="M57.4558 37.4095
L57.0324 37.8933
" />
<path d="M57.0324 37.8933
L57.2139 37.8933
" />
<path d="M57.2139 37.8933
L57.3348 37.9538
" />
<path d="M57.3348 37.9538
L57.3953 38.0143
" />
<path d="M57.3953 38.0143
L57.4558 38.1352
" />
<path d="M57.4558 38.1352
L57.4558 38.4376
" />
<path d="M57.4558 38.4376
L57.3953 38.5586
" />
<path d="M57.3953 38.5586
L57.3348 38.6191
" />
<path d="M57.3348 38.6191
L57.2139 38.6795
" />
<path d="M57.2139 38.6795
L56.8510 38.6795
" />
<path d="M56.8510 38.6795
L56.7301 38.6191
" />
<path d="M56.7301 38.6191
L56.6696 38.5586
" />
<path d="M58.6048 37.4095
L58.0000 37.4095
" />
<path d="M58.0000 37.4095
L57.9396 38.0143
" />
<path d="M57.9396 38.0143
L58.0000 37.9538
" />
<path d="M58.0000 37.9538
L58.1210 37.8933
" />
<path d="M58.1210 37.8933
L58.4234 37.8933
" />
<path d="M58.4234 37.8933
L58.5443 37.9538
" />
<path d="M58.5443 37.9538
L58.6048 38.0143
" />
<path d="M58.6048 38.0143
L58.6653 38.1352
" />
<path d="M58.6653 38.1352
L58.6653 38.4376
" />
<path d="M58.6653 38.4376
L58.6048 38.5586
" />
<path d="M58.6048 38.5586
L58.5443 38.6191
" />
<path d="M58.5443 38.6191
L58.4234 38.6795
" />
<path d="M58.4234 38.6795
L58.1210 38.6795
" />
<path d="M58.1210 38.6795
L58.0000 38.6191
" />
<path d="M58.0000 38.6191
L57.9396 38.5586
" />
</g><path d="M54.6100 39.3700
L52.0700 39.3700
" />
<text x="55.1180" y="40.0050"
textLength="3.8922" font-size="1.6933" lengthAdjust="spacingAndGlyphs"
text-anchor="start" opacity="0" stroke-opacity="0">D34</text>
<g class="stroked-text"><desc>D34</desc>
<path d="M55.5205 39.9495
L55.5205 38.6795
" />
<path d="M55.5205 38.6795
L55.8229 38.6795
" />
<path d="M55.8229 38.6795
L56.0043 38.7400
" />
<path d="M56.0043 38.7400
L56.1253 38.8610
" />
<path d="M56.1253 38.8610
L56.1858 38.9819
" />
<path d="M56.1858 38.9819
L56.2462 39.2238
" />
<path d="M56.2462 39.2238
L56.2462 39.4052
" />
<path d="M56.2462 39.4052
L56.1858 39.6471
" />
<path d="M56.1858 39.6471
L56.1253 39.7681
" />
<path d="M56.1253 39.7681
L56.0043 39.8891
" />
<path d="M56.0043 39.8891
L55.8229 39.9495
" />
<path d="M55.8229 39.9495
L55.5205 39.9495
" />
<path d="M56.6696 38.6795
L57.4558 38.6795
" />
<path d="M57.4558 38.6795
L57.0324 39.1633
" />
<path d="M57.0324 39.1633
L57.2139 39.1633
" />
<path d="M57.2139 39.1633
L57.3348 39.2238
" />
<path d="M57.3348 39.2238
L57.3953 39.2843
" />
<path d="M57.3953 39.2843
L57.4558 39.4052
" />
<path d="M57.4558 39.4052
L57.4558 39.7076
" />
<path d="M57.4558 39.7076
L57.3953 39.8286
" />
<path d="M57.3953 39.8286
L57.3348 39.8891
" />
<path d="M57.3348 39.8891
L57.2139 39.9495
" />
<path d="M57.2139 39.9495
L56.8510 39.9495
" />
<path d="M56.8510 39.9495
L56.7301 39.8891
" />
<path d="M56.7301 39.8891
L56.6696 39.8286
" />
<path d="M58.5443 39.1029
L58.5443 39.9495
" />
<path d="M58.2419 38.6191
L57.9396 39.5262
" />
<path d="M57.9396 39.5262
L58.7257 39.5262
" />
</g><path d="M54.6100 40.6400
L52.0700 40.6400
" />
<text x="55.1180" y="41.2750"
textLength="2.6223" font-size="1.6933" lengthAdjust="spacingAndGlyphs"
text-anchor="start" opacity="0" stroke-opacity="0">VN</text>
<g class="stroked-text"><desc>VN</desc>
<path d="M55.3391 39.9495
L55.7624 41.2195
" />
<path d="M55.7624 41.2195
L56.1858 39.9495
" />
<path d="M56.6091 41.2195
L56.6091 39.9495
" />
<path d="M56.6091 39.9495
L57.3348 41.2195
" />
<path d="M57.3348 41.2195
L57.3348 39.9495
" />
</g><path d="M54.6100 41.9100
L52.0700 41.9100
" />
<text x="55.1180" y="42.5450"
textLength="2.5618" font-size="1.6933" lengthAdjust="spacingAndGlyphs"
text-anchor="start" opacity="0" stroke-opacity="0">VP</text>
<g class="stroked-text"><desc>VP</desc>
<path d="M55.3391 41.2195
L55.7624 42.4895
" />
<path d="M55.7624 42.4895
L56.1858 41.2195
" />
<path d="M56.6091 42.4895
L56.6091 41.2195
" />
<path d="M56.6091 41.2195
L57.0929 41.2195
" />
<path d="M57.0929 41.2195
L57.2139 41.2800
" />
<path d="M57.2139 41.2800
L57.2744 41.3405
" />
<path d="M57.2744 41.3405
L57.3348 41.4614
" />
<path d="M57.3348 41.4614
L57.3348 41.6429
" />
<path d="M57.3348 41.6429
L57.2744 41.7638
" />
<path d="M57.2744 41.7638
L57.2139 41.8243
" />
<path d="M57.2139 41.8243
L57.0929 41.8848
" />
<path d="M57.0929 41.8848
L56.6091 41.8848
" />
</g><path d="M54.6100 43.1800
L52.0700 43.1800
" />
<text x="55.1180" y="43.8150"
textLength="2.6827" font-size="1.6933" lengthAdjust="spacingAndGlyphs"
text-anchor="start" opacity="0" stroke-opacity="0">EN</text>
<g class="stroked-text"><desc>EN</desc>
<path d="M55.5205 43.0943
L55.9439 43.0943
" />
<path d="M56.1253 43.7595
L55.5205 43.7595
" />
<path d="M55.5205 43.7595
L55.5205 42.4895
" />
<path d="M55.5205 42.4895
L56.1253 42.4895
" />
<path d="M56.6695 43.7595
L56.6695 42.4895
" />
<path d="M56.6695 42.4895
L57.3952 43.7595
" />
<path d="M57.3952 43.7595
L57.3952 42.4895
" />
</g></g>
<g style="fill:none; 
stroke:#FCFCFC; stroke-width:0.1588; stroke-opacity:1; 
stroke-linecap:round; stroke-linejoin:round;">
<text x="44.4500" y="34.9250"
textLength="6.2699" font-size="1.6933" lengthAdjust="spacingAndGlyphs"
text-anchor="middle" opacity="0" stroke-opacity="0">ESP32</text>
<g class="stroked-text"><desc>ESP32</desc>
<path d="M41.7286 34.2040
L42.1520 34.2040
" />
<path d="M42.3334 34.8692
L41.7286 34.8692
" />
<path d="M41.7286 34.8692
L41.7286 33.5992
" />
<path d="M41.7286 33.5992
L42.3334 33.5992
" />
<path d="M42.8172 34.8088
L42.9986 34.8692
" />
<path d="M42.9986 34.8692
L43.3010 34.8692
" />
<path d="M43.3010 34.8692
L43.4219 34.8088
" />
<path d="M43.4219 34.8088
L43.4824 34.7483
" />
<path d="M43.4824 34.7483
L43.5429 34.6273
" />
<path d="M43.5429 34.6273
L43.5429 34.5064
" />
<path d="M43.5429 34.5064
L43.4824 34.3854
" />
<path d="M43.4824 34.3854
L43.4219 34.3249
" />
<path d="M43.4219 34.3249
L43.3010 34.2645
" />
<path d="M43.3010 34.2645
L43.0591 34.2040
" />
<path d="M43.0591 34.2040
L42.9381 34.1435
" />
<path d="M42.9381 34.1435
L42.8776 34.0830
" />
<path d="M42.8776 34.0830
L42.8172 33.9621
" />
<path d="M42.8172 33.9621
L42.8172 33.8411
" />
<path d="M42.8172 33.8411
L42.8776 33.7202
" />
<path d="M42.8776 33.7202
L42.9381 33.6597
" />
<path d="M42.9381 33.6597
L43.0591 33.5992
" />
<path d="M43.0591 33.5992
L43.3614 33.5992
" />
<path d="M43.3614 33.5992
L43.5429 33.6597
" />
<path d="M44.0871 34.8692
L44.0871 33.5992
" />
<path d="M44.0871 33.5992
L44.5709 33.5992
" />
<path d="M44.5709 33.5992
L44.6919 33.6597
" />
<path d="M44.6919 33.6597
L44.7524 33.7202
" />
<path d="M44.7524 33.7202
L44.8128 33.8411
" />
<path d="M44.8128 33.8411
L44.8128 34.0226
" />
<path d="M44.8128 34.0226
L44.7524 34.1435
" />
<path d="M44.7524 34.1435
L44.6919 34.2040
" />
<path d="M44.6919 34.2040
L44.5709 34.2645
" />
<path d="M44.5709 34.2645
L44.0871 34.2645
" />
<path d="M45.2362 33.5992
L46.0224 33.5992
" />
<path d="M46.0224 33.5992
L45.5990 34.0830
" />
<path d="M45.5990 34.0830
L45.7805 34.0830
" />
<path d="M45.7805 34.0830
L45.9014 34.1435
" />
<path d="M45.9014 34.1435
L45.9619 34.2040
" />
<path d="M45.9619 34.2040
L46.0224 34.3249
" />
<path d="M46.0224 34.3249
L46.0224 34.6273
" />
<path d="M46.0224 34.6273
L45.9619 34.7483
" />
<path d="M45.9619 34.7483
L45.9014 34.8088
" />
<path d="M45.9014 34.8088
L45.7805 34.8692
" />
<path d="M45.7805 34.8692
L45.4176 34.8692
" />
<path d="M45.4176 34.8692
L45.2967 34.8088
" />
<path d="M45.2967 34.8088
L45.2362 34.7483
" />
<path d="M46.5062 33.7202
L46.5666 33.6597
" />
<path d="M46.5666 33.6597
L46.6876 33.5992
" />
<path d="M46.6876 33.5992
L46.9900 33.5992
" />
<path d="M46.9900 33.5992
L47.1109 33.6597
" />
<path d="M47.1109 33.6597
L47.1714 33.7202
" />
<path d="M47.1714 33.7202
L47.2319 33.8411
" />
<path d="M47.2319 33.8411
L47.2319 33.9621
" />
<path d="M47.2319 33.9621
L47.1714 34.1435
" />
<path d="M47.1714 34.1435
L46.4457 34.8692
" />
<path d="M46.4457 34.8692
L47.2319 34.8692
" />
</g></g>
<g style="fill:#FCFCFC; fill-opacity:1.0000; 
stroke:#FCFCFC; stroke-width:0.1524; stroke-opacity:1; 
stroke-linecap:round; stroke-linejoin:round;">
<rect x="15.240000" y="25.273000" width="0.863600" height="0.254000" rx="0.000000" />
<rect x="15.240000" y="27.813000" width="0.863600" height="0.254000" rx="0.000000" />
<rect x="15.240000" y="30.353000" width="0.863600" height="0.254000" rx="0.000000" />
<path style="fill:none; 
stroke:#FCFCFC; stroke-width:0.1524; stroke-opacity:1; 
stroke-linecap:round; stroke-linejoin:round;fill:none"
d="M 16.5100,25.4000
16.1036,25.4000
" /> 
<path style="fill:none; 
stroke:#FCFCFC; stroke-width:0.1524; stroke-opacity:1; 
stroke-linecap:round; stroke-linejoin:round;fill:none"
d="M 16.5100,27.9400
16.1036,27.9400
" /> 
<path style="fill:none; 
stroke:#FCFCFC; stroke-width:0.1524; stroke-opacity:1; 
stroke-linecap:round; stroke-linejoin:round;fill:none"
d="M 16.5100,30.4800
16.1036,30.4800
" /> 
</g>
<g style="fill:none; 
stroke:#FCFCFC; stroke-width:0.1524; stroke-opacity:1; 
stroke-linecap:round; stroke-linejoin:round;">
<path d="M16.5100 25.4000
L20.3200 25.4000
" />
<text x="18.4150" y="25.1460"
textLength="1.4127" font-size="1.6933" lengthAdjust="spacingAndGlyphs"
text-anchor="middle" opacity="0" stroke-opacity="0">1</text>
<g class="stroked-text"><desc>1</desc>
<path d="M18.7779 24.9825
L18.0522 24.9825
" />
<path d="M18.4150 24.9825
L18.4150 23.7125
" />
<path d="M18.4150 23.7125
L18.2941 23.8940
" />
<path d="M18.2941 23.8940
L18.1731 24.0149
" />
<path d="M18.1731 24.0149
L18.0522 24.0754
" />
</g><path d="M16.5100 27.9400
L20.3200 27.9400
" />
<text x="18.4150" y="27.6860"
textLength="1.4127" font-size="1.6933" lengthAdjust="spacingAndGlyphs"
text-anchor="middle" opacity="0" stroke-opacity="0">2</text>
<g class="stroked-text"><desc>2</desc>
<path d="M18.0522 26.3735
L18.1126 26.3130
" />
<path d="M18.1126 26.3130
L18.2336 26.2525
" />
<path d="M18.2336 26.2525
L18.5360 26.2525
" />
<path d="M18.5360 26.2525
L18.6569 26.3130
" />
<path d="M18.6569 26.3130
L18.7174 26.3735
" />
<path d="M18.7174 26.3735
L18.7779 26.4944
" />
<path d="M18.7779 26.4944
L18.7779 26.6154
" />
<path d="M18.7779 26.6154
L18.7174 26.7968
" />
<path d="M18.7174 26.7968
L17.9917 27.5225
" />
<path d="M17.9917 27.5225
L18.7779 27.5225
" />
</g><path d="M16.5100 30.4800
L20.3200 30.4800
" />
<text x="18.4150" y="30.2260"
textLength="1.4127" font-size="1.6933" lengthAdjust="spacingAndGlyphs"
text-anchor="middle" opacity="0" stroke-opacity="0">3</text>
<g class="stroked-text"><desc>3</desc>
<path d="M17.9917 28.7925
L18.7779 28.7925
" />
<path d="M18.7779 28.7925
L18.3545 29.2763
" />
<path d="M18.3545 29.2763
L18.5360 29.2763
" />
<path d="M18.5360 29.2763
L18.6569 29.3368
" />
<path d="M18.6569 29.3368
L18.7174 29.3973
" />
<path d="M18.7174 29.3973
L18.7779 29.5182
" />
<path d="M18.7779 29.5182
L18.7779 29.8206
" />
<path d="M18.7779 29.8206
L18.7174 29.9416
" />
<path d="M18.7174 29.9416
L18.6569 30.0021
" />
<path d="M18.6569 30.0021
L18.5360 30.0625
" />
<path d="M18.5360 30.0625
L18.1731 30.0625
" />
<path d="M18.1731 30.0625
L18.0522 30.0021
" />
<path d="M18.0522 30.0021
L17.9917 29.9416
" />
</g><text x="15.8750" y="23.4950"
textLength="5.3436" font-size="1.6933" lengthAdjust="spacingAndGlyphs"
text-anchor="middle" opacity="0" stroke-opacity="0">Relay</text>
<g class="stroked-text"><desc>Relay</desc>
<path d="M14.3328 23.4395
L13.9095 22.8348
" />
<path d="M13.6071 23.4395
L13.6071 22.1695
" />
<path d="M13.6071 22.1695
L14.0909 22.1695
" />
<path d="M14.0909 22.1695
L14.2119 22.2300
" />
<path d="M14.2119 22.2300
L14.2724 22.2905
" />
<path d="M14.2724 22.2905
L14.3328 22.4114
" />
<path d="M14.3328 22.4114
L14.3328 22.5929
" />
<path d="M14.3328 22.5929
L14.2724 22.7138
" />
<path d="M14.2724 22.7138
L14.2119 22.7743
" />
<path d="M14.2119 22.7743
L14.0909 22.8348
" />
<path d="M14.0909 22.8348
L13.6071 22.8348
" />
<path d="M15.3609 23.3791
L15.2400 23.4395
" />
<path d="M15.2400 23.4395
L14.9981 23.4395
" />
<path d="M14.9981 23.4395
L14.8771 23.3791
" />
<path d="M14.8771 23.3791
L14.8167 23.2581
" />
<path d="M14.8167 23.2581
L14.8167 22.7743
" />
<path d="M14.8167 22.7743
L14.8771 22.6533
" />
<path d="M14.8771 22.6533
L14.9981 22.5929
" />
<path d="M14.9981 22.5929
L15.2400 22.5929
" />
<path d="M15.2400 22.5929
L15.3609 22.6533
" />
<path d="M15.3609 22.6533
L15.4214 22.7743
" />
<path d="M15.4214 22.7743
L15.4214 22.8952
" />
<path d="M15.4214 22.8952
L14.8167 23.0162
" />
<path d="M16.1472 23.4395
L16.0262 23.3791
" />
<path d="M16.0262 23.3791
L15.9657 23.2581
" />
<path d="M15.9657 23.2581
L15.9657 22.1695
" />
<path d="M17.1752 23.4395
L17.1752 22.7743
" />
<path d="M17.1752 22.7743
L17.1147 22.6533
" />
<path d="M17.1147 22.6533
L16.9938 22.5929
" />
<path d="M16.9938 22.5929
L16.7519 22.5929
" />
<path d="M16.7519 22.5929
L16.6309 22.6533
" />
<path d="M17.1752 23.3791
L17.0543 23.4395
" />
<path d="M17.0543 23.4395
L16.7519 23.4395
" />
<path d="M16.7519 23.4395
L16.6309 23.3791
" />
<path d="M16.6309 23.3791
L16.5705 23.2581
" />
<path d="M16.5705 23.2581
L16.5705 23.1371
" />
<path d="M16.5705 23.1371
L16.6309 23.0162
" />
<path d="M16.6309 23.0162
L16.7519 22.9557
" />
<path d="M16.7519 22.9557
L17.0543 22.9557
" />
<path d="M17.0543 22.9557
L17.1752 22.8952
" />
<path d="M17.6590 22.5929
L17.9614 23.4395
" />
<path d="M18.2637 22.5929
L17.9614 23.4395
" />
<path d="M17.9614 23.4395
L17.8404 23.7419
" />
<path d="M17.8404 23.7419
L17.7799 23.8024
" />
<path d="M17.7799 23.8024
L17.6590 23.8629
" />
</g></g>
<g style="fill:none; 
stroke:#FCFCFC; stroke-width:0.1524; stroke-opacity:1; 
stroke-linecap:round; stroke-linejoin:round;">
<text x="20.3200" y="27.5907"
textLength="4.0737" font-size="1.6933" lengthAdjust="spacingAndGlyphs"
text-anchor="start" opacity="0" stroke-opacity="0">GND</text>
<g class="stroked-text"><desc>GND</desc>
<path d="M21.3878 26.2177
L21.2668 26.1572
" />
<path d="M21.2668 26.1572
L21.0854 26.1572
" />
<path d="M21.0854 26.1572
L20.9040 26.2177
" />
<path d="M20.9040 26.2177
L20.7830 26.3387
" />
<path d="M20.7830 26.3387
L20.7225 26.4596
" />
<path d="M20.7225 26.4596
L20.6621 26.7015
" />
<path d="M20.6621 26.7015
L20.6621 26.8829
" />
<path d="M20.6621 26.8829
L20.7225 27.1248
" />
<path d="M20.7225 27.1248
L20.7830 27.2458
" />
<path d="M20.7830 27.2458
L20.9040 27.3668
" />
<path d="M20.9040 27.3668
L21.0854 27.4272
" />
<path d="M21.0854 27.4272
L21.2063 27.4272
" />
<path d="M21.2063 27.4272
L21.3878 27.3668
" />
<path d="M21.3878 27.3668
L21.4482 27.3063
" />
<path d="M21.4482 27.3063
L21.4482 26.8829
" />
<path d="M21.4482 26.8829
L21.2063 26.8829
" />
<path d="M21.9925 27.4272
L21.9925 26.1572
" />
<path d="M21.9925 26.1572
L22.7182 27.4272
" />
<path d="M22.7182 27.4272
L22.7182 26.1572
" />
<path d="M23.3230 27.4272
L23.3230 26.1572
" />
<path d="M23.3230 26.1572
L23.6254 26.1572
" />
<path d="M23.6254 26.1572
L23.8068 26.2177
" />
<path d="M23.8068 26.2177
L23.9278 26.3387
" />
<path d="M23.9278 26.3387
L23.9883 26.4596
" />
<path d="M23.9883 26.4596
L24.0487 26.7015
" />
<path d="M24.0487 26.7015
L24.0487 26.8829
" />
<path d="M24.0487 26.8829
L23.9883 27.1248
" />
<path d="M23.9883 27.1248
L23.9278 27.2458
" />
<path d="M23.9278 27.2458
L23.8068 27.3668
" />
<path d="M23.8068 27.3668
L23.6254 27.4272
" />
<path d="M23.6254 27.4272
L23.3230 27.4272
" />
</g></g>
<g style="fill:none; 
stroke:#FCFCFC; stroke-width:0.1524; stroke-opacity:1; 
stroke-linecap:round; stroke-linejoin:round;">
<text x="20.3200" y="30.1307"
textLength="2.1385" font-size="1.6933" lengthAdjust="spacingAndGlyphs"
text-anchor="start" opacity="0" stroke-opacity="0">IN</text>
<g class="stroked-text"><desc>IN</desc>
<path d="M20.7225 29.9672
L20.7225 28.6972
" />
<path d="M21.3273 29.9672
L21.3273 28.6972
" />
<path d="M21.3273 28.6972
L22.0530 29.9672
" />
<path d="M22.0530 29.9672
L22.0530 28.6972
" />
</g></g>
<g style="fill:none; 
stroke:#FCFCFC; stroke-width:0.1524; stroke-opacity:1; 
stroke-linecap:round; stroke-linejoin:round;">
<text x="20.3200" y="25.0507"
textLength="3.8318" font-size="1.6933" lengthAdjust="spacingAndGlyphs"
text-anchor="start" opacity="0" stroke-opacity="0">VCC</text>
<g class="stroked-text"><desc>VCC</desc>
<path d="M20.5411 23.6172
L20.9644 24.8872
" />
<path d="M20.9644 24.8872
L21.3878 23.6172
" />
<path d="M22.5368 24.7663
L22.4764 24.8268
" />
<path d="M22.4764 24.8268
L22.2949 24.8872
" />
<path d="M22.2949 24.8872
L22.1740 24.8872
" />
<path d="M22.1740 24.8872
L21.9926 24.8268
" />
<path d="M21.9926 24.8268
L21.8716 24.7058
" />
<path d="M21.8716 24.7058
L21.8111 24.5848
" />
<path d="M21.8111 24.5848
L21.7507 24.3429
" />
<path d="M21.7507 24.3429
L21.7507 24.1615
" />
<path d="M21.7507 24.1615
L21.8111 23.9196
" />
<path d="M21.8111 23.9196
L21.8716 23.7987
" />
<path d="M21.8716 23.7987
L21.9926 23.6777
" />
<path d="M21.9926 23.6777
L22.1740 23.6172
" />
<path d="M22.1740 23.6172
L22.2949 23.6172
" />
<path d="M22.2949 23.6172
L22.4764 23.6777
" />
<path d="M22.4764 23.6777
L22.5368 23.7382
" />
<path d="M23.8068 24.7663
L23.7464 24.8268
" />
<path d="M23.7464 24.8268
L23.5649 24.8872
" />
<path d="M23.5649 24.8872
L23.4440 24.8872
" />
<path d="M23.4440 24.8872
L23.2626 24.8268
" />
<path d="M23.2626 24.8268
L23.1416 24.7058
" />
<path d="M23.1416 24.7058
L23.0811 24.5848
" />
<path d="M23.0811 24.5848
L23.0207 24.3429
" />
<path d="M23.0207 24.3429
L23.0207 24.1615
" />
<path d="M23.0207 24.1615
L23.0811 23.9196
" />
<path d="M23.0811 23.9196
L23.1416 23.7987
" />
<path d="M23.1416 23.7987
L23.2626 23.6777
" />
<path d="M23.2626 23.6777
L23.4440 23.6172
" />
<path d="M23.4440 23.6172
L23.5649 23.6172
" />
<path d="M23.5649 23.6172
L23.7464 23.6777
" />
<path d="M23.7464 23.6777
L23.8068 23.7382
" />
</g><path d="M36.8300 27.9400
L22.8600 27.9400
" />
</g>
<g style="fill:none; 
stroke:#FFEBF9; stroke-width:0.1524; stroke-opacity:1; 
stroke-linecap:round; stroke-linejoin:round;">
<path d="M20.3200 25.4000
L36.8300 25.4000
" />
</g>
<g style="fill:none; 
stroke:#FCFCFC; stroke-width:0.1524; stroke-opacity:1; 
stroke-linecap:round; stroke-linejoin:round;">
<path d="M36.8300 26.6700
L20.3200 26.6700
" />
<path d="M22.8600 27.9400
L22.8600 30.4800
" />
<path d="M22.8600 30.4800
L20.3200 30.4800
" />
<path d="M20.3200 26.6700
L20.3200 27.9400
" />
</g> 
</svg>
