<?xml version="1.0" standalone="no"?>
 <!DOCTYPE svg PUBLIC "-//W3C//DTD SVG 1.1//EN" 
 "http://www.w3.org/Graphics/SVG/1.1/DTD/svg11.dtd"> 
<svg
  xmlns:svg="http://www.w3.org/2000/svg"
  xmlns="http://www.w3.org/2000/svg"
  xmlns:xlink="http://www.w3.org/1999/xlink"
  xmlns:inkscape="http://www.inkscape.org/namespaces/inkscape"
  version="1.1"
  width="50.8000mm" height="63.5000mm" viewBox="0.0000 0.0000 50.8000 63.5000">
<title>SVG Image created as gifsystem.svg date 2026-04-01T22:44:52 </title>
  <desc>Image generated by Eeschema-SVG </desc>
<g style="fill:#000000; fill-opacity:1.0000;stroke:#000000; stroke-opacity:1.0000;
stroke-linecap:round; stroke-linejoin:round;"
 transform="translate(0 0) scale(1 1)">
</g>
<g style="fill:#000000; fill-opacity:1.0000; 
stroke:#000000; stroke-width:0.0001; stroke-opacity:1; 
stroke-linecap:round; stroke-linejoin:round;">
<rect x="0.000000" y="0.000000" width="50.800000" height="63.500000" rx="0.000000" />
</g>
<g style="fill:none; 
stroke:#FCFCFC; stroke-width:0.2540; stroke-opacity:1; 
stroke-linecap:round; stroke-linejoin:round;">
<rect x="12.700000" y="16.510000" width="25.400000" height="15.240000" rx="0.000000" />
</g>
<g style="fill:none; 
stroke:#FCFCFC; stroke-width:0.1524; stroke-opacity:1; 
stroke-linecap:round; stroke-linejoin:round;">
<path d="M17.7800 31.7500
L17.7800 34.2900
" />
<g transform="rotate(-90.000000 17.7800 31.2420)">
<text x="17.7800" y="31.5595"
textLength="2.0841" font-size="0.8466" lengthAdjust="spacingAndGlyphs"
text-anchor="start" opacity="0" stroke-opacity="0">3V3</text>
</g>
<g class="stroked-text"><desc>3V3</desc>
<path d="M17.4308 31.0510
L17.4308 30.6579
" />
<path d="M17.4308 30.6579
L17.6727 30.8696
" />
<path d="M17.6727 30.8696
L17.6727 30.7789
" />
<path d="M17.6727 30.7789
L17.7029 30.7184
" />
<path d="M17.7029 30.7184
L17.7332 30.6882
" />
<path d="M17.7332 30.6882
L17.7936 30.6579
" />
<path d="M17.7936 30.6579
L17.9448 30.6579
" />
<path d="M17.9448 30.6579
L18.0053 30.6882
" />
<path d="M18.0053 30.6882
L18.0356 30.7184
" />
<path d="M18.0356 30.7184
L18.0658 30.7789
" />
<path d="M18.0658 30.7789
L18.0658 30.9603
" />
<path d="M18.0658 30.9603
L18.0356 31.0208
" />
<path d="M18.0356 31.0208
L18.0053 31.0510
" />
<path d="M17.4308 30.4765
L18.0658 30.2648
" />
<path d="M18.0658 30.2648
L17.4308 30.0531
" />
<path d="M17.4308 29.9019
L17.4308 29.5088
" />
<path d="M17.4308 29.5088
L17.6727 29.7205
" />
<path d="M17.6727 29.7205
L17.6727 29.6298
" />
<path d="M17.6727 29.6298
L17.7029 29.5693
" />
<path d="M17.7029 29.5693
L17.7332 29.5391
" />
<path d="M17.7332 29.5391
L17.7936 29.5088
" />
<path d="M17.7936 29.5088
L17.9448 29.5088
" />
<path d="M17.9448 29.5088
L18.0053 29.5391
" />
<path d="M18.0053 29.5391
L18.0356 29.5693
" />
<path d="M18.0356 29.5693
L18.0658 29.6298
" />
<path d="M18.0658 29.6298
L18.0658 29.8112
" />
<path d="M18.0658 29.8112
L18.0356 29.8717
" />
<path d="M18.0356 29.8717
L18.0053 29.9019
" />
</g><path d="M19.0500 31.7500
L19.0500 34.2900
" />
<g transform="rotate(-90.000000 19.0500 31.2420)">
<text x="19.0500" y="31.5595"
textLength="2.2654" font-size="0.8466" lengthAdjust="spacingAndGlyphs"
text-anchor="start" opacity="0" stroke-opacity="0">GND</text>
</g>
<g class="stroked-text"><desc>GND</desc>
<path d="M18.7310 30.6579
L18.7008 30.7184
" />
<path d="M18.7008 30.7184
L18.7008 30.8091
" />
<path d="M18.7008 30.8091
L18.7310 30.8998
" />
<path d="M18.7310 30.8998
L18.7915 30.9603
" />
<path d="M18.7915 30.9603
L18.8520 30.9906
" />
<path d="M18.8520 30.9906
L18.9729 31.0208
" />
<path d="M18.9729 31.0208
L19.0636 31.0208
" />
<path d="M19.0636 31.0208
L19.1846 30.9906
" />
<path d="M19.1846 30.9906
L19.2451 30.9603
" />
<path d="M19.2451 30.9603
L19.3056 30.8998
" />
<path d="M19.3056 30.8998
L19.3358 30.8091
" />
<path d="M19.3358 30.8091
L19.3358 30.7487
" />
<path d="M19.3358 30.7487
L19.3056 30.6579
" />
<path d="M19.3056 30.6579
L19.2753 30.6277
" />
<path d="M19.2753 30.6277
L19.0636 30.6277
" />
<path d="M19.0636 30.6277
L19.0636 30.7487
" />
<path d="M19.3358 30.3556
L18.7008 30.3556
" />
<path d="M18.7008 30.3556
L19.3358 29.9927
" />
<path d="M19.3358 29.9927
L18.7008 29.9927
" />
<path d="M19.3358 29.6904
L18.7008 29.6904
" />
<path d="M18.7008 29.6904
L18.7008 29.5392
" />
<path d="M18.7008 29.5392
L18.7310 29.4485
" />
<path d="M18.7310 29.4485
L18.7915 29.3880
" />
<path d="M18.7915 29.3880
L18.8520 29.3577
" />
<path d="M18.8520 29.3577
L18.9729 29.3275
" />
<path d="M18.9729 29.3275
L19.0636 29.3275
" />
<path d="M19.0636 29.3275
L19.1846 29.3577
" />
<path d="M19.1846 29.3577
L19.2451 29.3880
" />
<path d="M19.2451 29.3880
L19.3056 29.4485
" />
<path d="M19.3056 29.4485
L19.3358 29.5392
" />
<path d="M19.3358 29.5392
L19.3358 29.6904
" />
</g><path d="M20.3200 31.7500
L20.3200 34.2900
" />
<g transform="rotate(-90.000000 20.3200 31.2420)">
<text x="20.3200" y="31.5595"
textLength="2.1748" font-size="0.8466" lengthAdjust="spacingAndGlyphs"
text-anchor="start" opacity="0" stroke-opacity="0">D15</text>
</g>
<g class="stroked-text"><desc>D15</desc>
<path d="M20.6058 30.9906
L19.9708 30.9906
" />
<path d="M19.9708 30.9906
L19.9708 30.8394
" />
<path d="M19.9708 30.8394
L20.0010 30.7487
" />
<path d="M20.0010 30.7487
L20.0615 30.6882
" />
<path d="M20.0615 30.6882
L20.1220 30.6579
" />
<path d="M20.1220 30.6579
L20.2429 30.6277
" />
<path d="M20.2429 30.6277
L20.3336 30.6277
" />
<path d="M20.3336 30.6277
L20.4546 30.6579
" />
<path d="M20.4546 30.6579
L20.5151 30.6882
" />
<path d="M20.5151 30.6882
L20.5756 30.7487
" />
<path d="M20.5756 30.7487
L20.6058 30.8394
" />
<path d="M20.6058 30.8394
L20.6058 30.9906
" />
<path d="M20.6058 30.0229
L20.6058 30.3858
" />
<path d="M20.6058 30.2044
L19.9708 30.2044
" />
<path d="M19.9708 30.2044
L20.0615 30.2648
" />
<path d="M20.0615 30.2648
L20.1220 30.3253
" />
<path d="M20.1220 30.3253
L20.1522 30.3858
" />
<path d="M19.9708 29.4484
L19.9708 29.7508
" />
<path d="M19.9708 29.7508
L20.2732 29.7810
" />
<path d="M20.2732 29.7810
L20.2429 29.7508
" />
<path d="M20.2429 29.7508
L20.2127 29.6903
" />
<path d="M20.2127 29.6903
L20.2127 29.5391
" />
<path d="M20.2127 29.5391
L20.2429 29.4786
" />
<path d="M20.2429 29.4786
L20.2732 29.4484
" />
<path d="M20.2732 29.4484
L20.3336 29.4181
" />
<path d="M20.3336 29.4181
L20.4848 29.4181
" />
<path d="M20.4848 29.4181
L20.5453 29.4484
" />
<path d="M20.5453 29.4484
L20.5756 29.4786
" />
<path d="M20.5756 29.4786
L20.6058 29.5391
" />
<path d="M20.6058 29.5391
L20.6058 29.6903
" />
<path d="M20.6058 29.6903
L20.5756 29.7508
" />
<path d="M20.5756 29.7508
L20.5453 29.7810
" />
</g><path d="M20.3200 31.7500
L20.3200 34.2900
" />
<g transform="rotate(-90.000000 20.3200 31.2420)">
<text x="20.3200" y="31.5595"
textLength="2.1748" font-size="0.8466" lengthAdjust="spacingAndGlyphs"
text-anchor="start" opacity="0" stroke-opacity="0">D15</text>
</g>
<g class="stroked-text"><desc>D15</desc>
<path d="M20.6058 30.9906
L19.9708 30.9906
" />
<path d="M19.9708 30.9906
L19.9708 30.8394
" />
<path d="M19.9708 30.8394
L20.0010 30.7487
" />
<path d="M20.0010 30.7487
L20.0615 30.6882
" />
<path d="M20.0615 30.6882
L20.1220 30.6579
" />
<path d="M20.1220 30.6579
L20.2429 30.6277
" />
<path d="M20.2429 30.6277
L20.3336 30.6277
" />
<path d="M20.3336 30.6277
L20.4546 30.6579
" />
<path d="M20.4546 30.6579
L20.5151 30.6882
" />
<path d="M20.5151 30.6882
L20.5756 30.7487
" />
<path d="M20.5756 30.7487
L20.6058 30.8394
" />
<path d="M20.6058 30.8394
L20.6058 30.9906
" />
<path d="M20.6058 30.0229
L20.6058 30.3858
" />
<path d="M20.6058 30.2044
L19.9708 30.2044
" />
<path d="M19.9708 30.2044
L20.0615 30.2648
" />
<path d="M20.0615 30.2648
L20.1220 30.3253
" />
<path d="M20.1220 30.3253
L20.1522 30.3858
" />
<path d="M19.9708 29.4484
L19.9708 29.7508
" />
<path d="M19.9708 29.7508
L20.2732 29.7810
" />
<path d="M20.2732 29.7810
L20.2429 29.7508
" />
<path d="M20.2429 29.7508
L20.2127 29.6903
" />
<path d="M20.2127 29.6903
L20.2127 29.5391
" />
<path d="M20.2127 29.5391
L20.2429 29.4786
" />
<path d="M20.2429 29.4786
L20.2732 29.4484
" />
<path d="M20.2732 29.4484
L20.3336 29.4181
" />
<path d="M20.3336 29.4181
L20.4848 29.4181
" />
<path d="M20.4848 29.4181
L20.5453 29.4484
" />
<path d="M20.5453 29.4484
L20.5756 29.4786
" />
<path d="M20.5756 29.4786
L20.6058 29.5391
" />
<path d="M20.6058 29.5391
L20.6058 29.6903
" />
<path d="M20.6058 29.6903
L20.5756 29.7508
" />
<path d="M20.5756 29.7508
L20.5453 29.7810
" />
</g><path d="M21.5900 31.7500
L21.5900 34.2900
" />
<g transform="rotate(-90.000000 21.5900 31.2420)">
<text x="21.5900" y="31.5595"
textLength="1.5700" font-size="0.8466" lengthAdjust="spacingAndGlyphs"
text-anchor="start" opacity="0" stroke-opacity="0">D2</text>
</g>
<g class="stroked-text"><desc>D2</desc>
<path d="M21.8758 30.9906
L21.2408 30.9906
" />
<path d="M21.2408 30.9906
L21.2408 30.8394
" />
<path d="M21.2408 30.8394
L21.2710 30.7487
" />
<path d="M21.2710 30.7487
L21.3315 30.6882
" />
<path d="M21.3315 30.6882
L21.3920 30.6579
" />
<path d="M21.3920 30.6579
L21.5129 30.6277
" />
<path d="M21.5129 30.6277
L21.6036 30.6277
" />
<path d="M21.6036 30.6277
L21.7246 30.6579
" />
<path d="M21.7246 30.6579
L21.7851 30.6882
" />
<path d="M21.7851 30.6882
L21.8456 30.7487
" />
<path d="M21.8456 30.7487
L21.8758 30.8394
" />
<path d="M21.8758 30.8394
L21.8758 30.9906
" />
<path d="M21.3013 30.3858
L21.2710 30.3556
" />
<path d="M21.2710 30.3556
L21.2408 30.2951
" />
<path d="M21.2408 30.2951
L21.2408 30.1439
" />
<path d="M21.2408 30.1439
L21.2710 30.0834
" />
<path d="M21.2710 30.0834
L21.3013 30.0532
" />
<path d="M21.3013 30.0532
L21.3617 30.0229
" />
<path d="M21.3617 30.0229
L21.4222 30.0229
" />
<path d="M21.4222 30.0229
L21.5129 30.0532
" />
<path d="M21.5129 30.0532
L21.8758 30.4160
" />
<path d="M21.8758 30.4160
L21.8758 30.0229
" />
</g><path d="M22.8600 31.7500
L22.8600 34.2900
" />
<g transform="rotate(-90.000000 22.8600 31.2420)">
<text x="22.8600" y="31.5595"
textLength="1.5700" font-size="0.8466" lengthAdjust="spacingAndGlyphs"
text-anchor="start" opacity="0" stroke-opacity="0">D4</text>
</g>
<g class="stroked-text"><desc>D4</desc>
<path d="M23.1458 30.9906
L22.5108 30.9906
" />
<path d="M22.5108 30.9906
L22.5108 30.8394
" />
<path d="M22.5108 30.8394
L22.5410 30.7487
" />
<path d="M22.5410 30.7487
L22.6015 30.6882
" />
<path d="M22.6015 30.6882
L22.6620 30.6579
" />
<path d="M22.6620 30.6579
L22.7829 30.6277
" />
<path d="M22.7829 30.6277
L22.8736 30.6277
" />
<path d="M22.8736 30.6277
L22.9946 30.6579
" />
<path d="M22.9946 30.6579
L23.0551 30.6882
" />
<path d="M23.0551 30.6882
L23.1156 30.7487
" />
<path d="M23.1156 30.7487
L23.1458 30.8394
" />
<path d="M23.1458 30.8394
L23.1458 30.9906
" />
<path d="M22.7225 30.0834
L23.1458 30.0834
" />
<path d="M22.4806 30.2346
L22.9341 30.3858
" />
<path d="M22.9341 30.3858
L22.9341 29.9927
" />
</g><path d="M24.1300 31.7500
L24.1300 34.2900
" />
<g transform="rotate(-90.000000 24.1300 31.2420)">
<text x="24.1300" y="31.5595"
textLength="2.1748" font-size="0.8466" lengthAdjust="spacingAndGlyphs"
text-anchor="start" opacity="0" stroke-opacity="0">RX2</text>
</g>
<g class="stroked-text"><desc>RX2</desc>
<path d="M24.4158 30.6277
L24.1134 30.8394
" />
<path d="M24.4158 30.9906
L23.7808 30.9906
" />
<path d="M23.7808 30.9906
L23.7808 30.7487
" />
<path d="M23.7808 30.7487
L23.8110 30.6882
" />
<path d="M23.8110 30.6882
L23.8413 30.6579
" />
<path d="M23.8413 30.6579
L23.9017 30.6277
" />
<path d="M23.9017 30.6277
L23.9925 30.6277
" />
<path d="M23.9925 30.6277
L24.0529 30.6579
" />
<path d="M24.0529 30.6579
L24.0832 30.6882
" />
<path d="M24.0832 30.6882
L24.1134 30.7487
" />
<path d="M24.1134 30.7487
L24.1134 30.9906
" />
<path d="M23.7808 30.4160
L24.4158 29.9927
" />
<path d="M23.7808 29.9927
L24.4158 30.4160
" />
<path d="M23.8413 29.7810
L23.8110 29.7508
" />
<path d="M23.8110 29.7508
L23.7808 29.6903
" />
<path d="M23.7808 29.6903
L23.7808 29.5391
" />
<path d="M23.7808 29.5391
L23.8110 29.4786
" />
<path d="M23.8110 29.4786
L23.8413 29.4484
" />
<path d="M23.8413 29.4484
L23.9017 29.4181
" />
<path d="M23.9017 29.4181
L23.9622 29.4181
" />
<path d="M23.9622 29.4181
L24.0529 29.4484
" />
<path d="M24.0529 29.4484
L24.4158 29.8112
" />
<path d="M24.4158 29.8112
L24.4158 29.4181
" />
</g><path d="M25.4000 31.7500
L25.4000 34.2900
" />
<g transform="rotate(-90.000000 25.4000 31.2420)">
<text x="25.4000" y="31.5595"
textLength="2.0236" font-size="0.8466" lengthAdjust="spacingAndGlyphs"
text-anchor="start" opacity="0" stroke-opacity="0">TX2</text>
</g>
<g class="stroked-text"><desc>TX2</desc>
<path d="M25.0508 31.0813
L25.0508 30.7184
" />
<path d="M25.6858 30.8998
L25.0508 30.8998
" />
<path d="M25.0508 30.5672
L25.6858 30.1439
" />
<path d="M25.0508 30.1439
L25.6858 30.5672
" />
<path d="M25.1113 29.9322
L25.0810 29.9020
" />
<path d="M25.0810 29.9020
L25.0508 29.8415
" />
<path d="M25.0508 29.8415
L25.0508 29.6903
" />
<path d="M25.0508 29.6903
L25.0810 29.6298
" />
<path d="M25.0810 29.6298
L25.1113 29.5996
" />
<path d="M25.1113 29.5996
L25.1717 29.5693
" />
<path d="M25.1717 29.5693
L25.2322 29.5693
" />
<path d="M25.2322 29.5693
L25.3229 29.5996
" />
<path d="M25.3229 29.5996
L25.6858 29.9624
" />
<path d="M25.6858 29.9624
L25.6858 29.5693
" />
</g><path d="M26.6700 31.7500
L26.6700 34.2900
" />
<g transform="rotate(-90.000000 26.6700 31.2420)">
<text x="26.6700" y="31.5595"
textLength="1.5700" font-size="0.8466" lengthAdjust="spacingAndGlyphs"
text-anchor="start" opacity="0" stroke-opacity="0">D5</text>
</g>
<g class="stroked-text"><desc>D5</desc>
<path d="M26.9558 30.9906
L26.3208 30.9906
" />
<path d="M26.3208 30.9906
L26.3208 30.8394
" />
<path d="M26.3208 30.8394
L26.3510 30.7487
" />
<path d="M26.3510 30.7487
L26.4115 30.6882
" />
<path d="M26.4115 30.6882
L26.4720 30.6579
" />
<path d="M26.4720 30.6579
L26.5929 30.6277
" />
<path d="M26.5929 30.6277
L26.6836 30.6277
" />
<path d="M26.6836 30.6277
L26.8046 30.6579
" />
<path d="M26.8046 30.6579
L26.8651 30.6882
" />
<path d="M26.8651 30.6882
L26.9256 30.7487
" />
<path d="M26.9256 30.7487
L26.9558 30.8394
" />
<path d="M26.9558 30.8394
L26.9558 30.9906
" />
<path d="M26.3208 30.0532
L26.3208 30.3556
" />
<path d="M26.3208 30.3556
L26.6232 30.3858
" />
<path d="M26.6232 30.3858
L26.5929 30.3556
" />
<path d="M26.5929 30.3556
L26.5627 30.2951
" />
<path d="M26.5627 30.2951
L26.5627 30.1439
" />
<path d="M26.5627 30.1439
L26.5929 30.0834
" />
<path d="M26.5929 30.0834
L26.6232 30.0532
" />
<path d="M26.6232 30.0532
L26.6836 30.0229
" />
<path d="M26.6836 30.0229
L26.8348 30.0229
" />
<path d="M26.8348 30.0229
L26.8953 30.0532
" />
<path d="M26.8953 30.0532
L26.9256 30.0834
" />
<path d="M26.9256 30.0834
L26.9558 30.1439
" />
<path d="M26.9558 30.1439
L26.9558 30.2951
" />
<path d="M26.9558 30.2951
L26.9256 30.3556
" />
<path d="M26.9256 30.3556
L26.8953 30.3858
" />
</g><path d="M27.9400 31.7500
L27.9400 34.2900
" />
<g transform="rotate(-90.000000 27.9400 31.2420)">
<text x="27.9400" y="31.5595"
textLength="2.1748" font-size="0.8466" lengthAdjust="spacingAndGlyphs"
text-anchor="start" opacity="0" stroke-opacity="0">D18</text>
</g>
<g class="stroked-text"><desc>D18</desc>
<path d="M28.2258 30.9906
L27.5908 30.9906
" />
<path d="M27.5908 30.9906
L27.5908 30.8394
" />
<path d="M27.5908 30.8394
L27.6210 30.7487
" />
<path d="M27.6210 30.7487
L27.6815 30.6882
" />
<path d="M27.6815 30.6882
L27.7420 30.6579
" />
<path d="M27.7420 30.6579
L27.8629 30.6277
" />
<path d="M27.8629 30.6277
L27.9536 30.6277
" />
<path d="M27.9536 30.6277
L28.0746 30.6579
" />
<path d="M28.0746 30.6579
L28.1351 30.6882
" />
<path d="M28.1351 30.6882
L28.1956 30.7487
" />
<path d="M28.1956 30.7487
L28.2258 30.8394
" />
<path d="M28.2258 30.8394
L28.2258 30.9906
" />
<path d="M28.2258 30.0229
L28.2258 30.3858
" />
<path d="M28.2258 30.2044
L27.5908 30.2044
" />
<path d="M27.5908 30.2044
L27.6815 30.2648
" />
<path d="M27.6815 30.2648
L27.7420 30.3253
" />
<path d="M27.7420 30.3253
L27.7722 30.3858
" />
<path d="M27.8629 29.6600
L27.8327 29.7205
" />
<path d="M27.8327 29.7205
L27.8025 29.7508
" />
<path d="M27.8025 29.7508
L27.7420 29.7810
" />
<path d="M27.7420 29.7810
L27.7117 29.7810
" />
<path d="M27.7117 29.7810
L27.6513 29.7508
" />
<path d="M27.6513 29.7508
L27.6210 29.7205
" />
<path d="M27.6210 29.7205
L27.5908 29.6600
" />
<path d="M27.5908 29.6600
L27.5908 29.5391
" />
<path d="M27.5908 29.5391
L27.6210 29.4786
" />
<path d="M27.6210 29.4786
L27.6513 29.4484
" />
<path d="M27.6513 29.4484
L27.7117 29.4181
" />
<path d="M27.7117 29.4181
L27.7420 29.4181
" />
<path d="M27.7420 29.4181
L27.8025 29.4484
" />
<path d="M27.8025 29.4484
L27.8327 29.4786
" />
<path d="M27.8327 29.4786
L27.8629 29.5391
" />
<path d="M27.8629 29.5391
L27.8629 29.6600
" />
<path d="M27.8629 29.6600
L27.8932 29.7205
" />
<path d="M27.8932 29.7205
L27.9234 29.7508
" />
<path d="M27.9234 29.7508
L27.9839 29.7810
" />
<path d="M27.9839 29.7810
L28.1048 29.7810
" />
<path d="M28.1048 29.7810
L28.1653 29.7508
" />
<path d="M28.1653 29.7508
L28.1956 29.7205
" />
<path d="M28.1956 29.7205
L28.2258 29.6600
" />
<path d="M28.2258 29.6600
L28.2258 29.5391
" />
<path d="M28.2258 29.5391
L28.1956 29.4786
" />
<path d="M28.1956 29.4786
L28.1653 29.4484
" />
<path d="M28.1653 29.4484
L28.1048 29.4181
" />
<path d="M28.1048 29.4181
L27.9839 29.4181
" />
<path d="M27.9839 29.4181
L27.9234 29.4484
" />
<path d="M27.9234 29.4484
L27.8932 29.4786
" />
<path d="M27.8932 29.4786
L27.8629 29.5391
" />
</g><path d="M29.2100 31.7500
L29.2100 34.2900
" />
<g transform="rotate(-90.000000 29.2100 31.2420)">
<text x="29.2100" y="31.5595"
textLength="2.1748" font-size="0.8466" lengthAdjust="spacingAndGlyphs"
text-anchor="start" opacity="0" stroke-opacity="0">D19</text>
</g>
<g class="stroked-text"><desc>D19</desc>
<path d="M29.4958 30.9906
L28.8608 30.9906
" />
<path d="M28.8608 30.9906
L28.8608 30.8394
" />
<path d="M28.8608 30.8394
L28.8910 30.7487
" />
<path d="M28.8910 30.7487
L28.9515 30.6882
" />
<path d="M28.9515 30.6882
L29.0120 30.6579
" />
<path d="M29.0120 30.6579
L29.1329 30.6277
" />
<path d="M29.1329 30.6277
L29.2236 30.6277
" />
<path d="M29.2236 30.6277
L29.3446 30.6579
" />
<path d="M29.3446 30.6579
L29.4051 30.6882
" />
<path d="M29.4051 30.6882
L29.4656 30.7487
" />
<path d="M29.4656 30.7487
L29.4958 30.8394
" />
<path d="M29.4958 30.8394
L29.4958 30.9906
" />
<path d="M29.4958 30.0229
L29.4958 30.3858
" />
<path d="M29.4958 30.2044
L28.8608 30.2044
" />
<path d="M28.8608 30.2044
L28.9515 30.2648
" />
<path d="M28.9515 30.2648
L29.0120 30.3253
" />
<path d="M29.0120 30.3253
L29.0422 30.3858
" />
<path d="M29.4958 29.7205
L29.4958 29.5996
" />
<path d="M29.4958 29.5996
L29.4656 29.5391
" />
<path d="M29.4656 29.5391
L29.4353 29.5089
" />
<path d="M29.4353 29.5089
L29.3446 29.4484
" />
<path d="M29.3446 29.4484
L29.2236 29.4181
" />
<path d="M29.2236 29.4181
L28.9817 29.4181
" />
<path d="M28.9817 29.4181
L28.9213 29.4484
" />
<path d="M28.9213 29.4484
L28.8910 29.4786
" />
<path d="M28.8910 29.4786
L28.8608 29.5391
" />
<path d="M28.8608 29.5391
L28.8608 29.6600
" />
<path d="M28.8608 29.6600
L28.8910 29.7205
" />
<path d="M28.8910 29.7205
L28.9213 29.7508
" />
<path d="M28.9213 29.7508
L28.9817 29.7810
" />
<path d="M28.9817 29.7810
L29.1329 29.7810
" />
<path d="M29.1329 29.7810
L29.1934 29.7508
" />
<path d="M29.1934 29.7508
L29.2236 29.7205
" />
<path d="M29.2236 29.7205
L29.2539 29.6600
" />
<path d="M29.2539 29.6600
L29.2539 29.5391
" />
<path d="M29.2539 29.5391
L29.2236 29.4786
" />
<path d="M29.2236 29.4786
L29.1934 29.4484
" />
<path d="M29.1934 29.4484
L29.1329 29.4181
" />
</g><path d="M30.4800 31.7500
L30.4800 34.2900
" />
<g transform="rotate(-90.000000 30.4800 31.2420)">
<text x="30.4800" y="31.5595"
textLength="2.1748" font-size="0.8466" lengthAdjust="spacingAndGlyphs"
text-anchor="start" opacity="0" stroke-opacity="0">D21</text>
</g>
<g class="stroked-text"><desc>D21</desc>
<path d="M30.7658 30.9906
L30.1308 30.9906
" />
<path d="M30.1308 30.9906
L30.1308 30.8394
" />
<path d="M30.1308 30.8394
L30.1610 30.7487
" />
<path d="M30.1610 30.7487
L30.2215 30.6882
" />
<path d="M30.2215 30.6882
L30.2820 30.6579
" />
<path d="M30.2820 30.6579
L30.4029 30.6277
" />
<path d="M30.4029 30.6277
L30.4936 30.6277
" />
<path d="M30.4936 30.6277
L30.6146 30.6579
" />
<path d="M30.6146 30.6579
L30.6751 30.6882
" />
<path d="M30.6751 30.6882
L30.7356 30.7487
" />
<path d="M30.7356 30.7487
L30.7658 30.8394
" />
<path d="M30.7658 30.8394
L30.7658 30.9906
" />
<path d="M30.1913 30.3858
L30.1610 30.3556
" />
<path d="M30.1610 30.3556
L30.1308 30.2951
" />
<path d="M30.1308 30.2951
L30.1308 30.1439
" />
<path d="M30.1308 30.1439
L30.1610 30.0834
" />
<path d="M30.1610 30.0834
L30.1913 30.0532
" />
<path d="M30.1913 30.0532
L30.2517 30.0229
" />
<path d="M30.2517 30.0229
L30.3122 30.0229
" />
<path d="M30.3122 30.0229
L30.4029 30.0532
" />
<path d="M30.4029 30.0532
L30.7658 30.4160
" />
<path d="M30.7658 30.4160
L30.7658 30.0229
" />
<path d="M30.7658 29.4181
L30.7658 29.7810
" />
<path d="M30.7658 29.5996
L30.1308 29.5996
" />
<path d="M30.1308 29.5996
L30.2215 29.6600
" />
<path d="M30.2215 29.6600
L30.2820 29.7205
" />
<path d="M30.2820 29.7205
L30.3122 29.7810
" />
</g><path d="M31.7500 31.7500
L31.7500 34.2900
" />
<g transform="rotate(-90.000000 31.7500 31.2420)">
<text x="31.7500" y="31.5595"
textLength="2.1748" font-size="0.8466" lengthAdjust="spacingAndGlyphs"
text-anchor="start" opacity="0" stroke-opacity="0">RX0</text>
</g>
<g class="stroked-text"><desc>RX0</desc>
<path d="M32.0358 30.6277
L31.7334 30.8394
" />
<path d="M32.0358 30.9906
L31.4008 30.9906
" />
<path d="M31.4008 30.9906
L31.4008 30.7487
" />
<path d="M31.4008 30.7487
L31.4310 30.6882
" />
<path d="M31.4310 30.6882
L31.4613 30.6579
" />
<path d="M31.4613 30.6579
L31.5217 30.6277
" />
<path d="M31.5217 30.6277
L31.6125 30.6277
" />
<path d="M31.6125 30.6277
L31.6729 30.6579
" />
<path d="M31.6729 30.6579
L31.7032 30.6882
" />
<path d="M31.7032 30.6882
L31.7334 30.7487
" />
<path d="M31.7334 30.7487
L31.7334 30.9906
" />
<path d="M31.4008 30.4160
L32.0358 29.9927
" />
<path d="M31.4008 29.9927
L32.0358 30.4160
" />
<path d="M31.4008 29.6298
L31.4008 29.5693
" />
<path d="M31.4008 29.5693
L31.4310 29.5089
" />
<path d="M31.4310 29.5089
L31.4613 29.4786
" />
<path d="M31.4613 29.4786
L31.5217 29.4484
" />
<path d="M31.5217 29.4484
L31.6427 29.4181
" />
<path d="M31.6427 29.4181
L31.7939 29.4181
" />
<path d="M31.7939 29.4181
L31.9148 29.4484
" />
<path d="M31.9148 29.4484
L31.9753 29.4786
" />
<path d="M31.9753 29.4786
L32.0056 29.5089
" />
<path d="M32.0056 29.5089
L32.0358 29.5693
" />
<path d="M32.0358 29.5693
L32.0358 29.6298
" />
<path d="M32.0358 29.6298
L32.0056 29.6903
" />
<path d="M32.0056 29.6903
L31.9753 29.7205
" />
<path d="M31.9753 29.7205
L31.9148 29.7508
" />
<path d="M31.9148 29.7508
L31.7939 29.7810
" />
<path d="M31.7939 29.7810
L31.6427 29.7810
" />
<path d="M31.6427 29.7810
L31.5217 29.7508
" />
<path d="M31.5217 29.7508
L31.4613 29.7205
" />
<path d="M31.4613 29.7205
L31.4310 29.6903
" />
<path d="M31.4310 29.6903
L31.4008 29.6298
" />
</g><path d="M33.0200 31.7500
L33.0200 34.2900
" />
<g transform="rotate(-90.000000 33.0200 31.2420)">
<text x="33.0200" y="31.5595"
textLength="2.0236" font-size="0.8466" lengthAdjust="spacingAndGlyphs"
text-anchor="start" opacity="0" stroke-opacity="0">TX0</text>
</g>
<g class="stroked-text"><desc>TX0</desc>
<path d="M32.6708 31.0813
L32.6708 30.7184
" />
<path d="M33.3058 30.8998
L32.6708 30.8998
" />
<path d="M32.6708 30.5672
L33.3058 30.1439
" />
<path d="M32.6708 30.1439
L33.3058 30.5672
" />
<path d="M32.6708 29.7810
L32.6708 29.7205
" />
<path d="M32.6708 29.7205
L32.7010 29.6601
" />
<path d="M32.7010 29.6601
L32.7313 29.6298
" />
<path d="M32.7313 29.6298
L32.7917 29.5996
" />
<path d="M32.7917 29.5996
L32.9127 29.5693
" />
<path d="M32.9127 29.5693
L33.0639 29.5693
" />
<path d="M33.0639 29.5693
L33.1848 29.5996
" />
<path d="M33.1848 29.5996
L33.2453 29.6298
" />
<path d="M33.2453 29.6298
L33.2756 29.6601
" />
<path d="M33.2756 29.6601
L33.3058 29.7205
" />
<path d="M33.3058 29.7205
L33.3058 29.7810
" />
<path d="M33.3058 29.7810
L33.2756 29.8415
" />
<path d="M33.2756 29.8415
L33.2453 29.8717
" />
<path d="M33.2453 29.8717
L33.1848 29.9020
" />
<path d="M33.1848 29.9020
L33.0639 29.9322
" />
<path d="M33.0639 29.9322
L32.9127 29.9322
" />
<path d="M32.9127 29.9322
L32.7917 29.9020
" />
<path d="M32.7917 29.9020
L32.7313 29.8717
" />
<path d="M32.7313 29.8717
L32.7010 29.8415
" />
<path d="M32.7010 29.8415
L32.6708 29.7810
" />
</g><path d="M34.2900 31.7500
L34.2900 34.2900
" />
<g transform="rotate(-90.000000 34.2900 31.2420)">
<text x="34.2900" y="31.5595"
textLength="2.1748" font-size="0.8466" lengthAdjust="spacingAndGlyphs"
text-anchor="start" opacity="0" stroke-opacity="0">D22</text>
</g>
<g class="stroked-text"><desc>D22</desc>
<path d="M34.5758 30.9906
L33.9408 30.9906
" />
<path d="M33.9408 30.9906
L33.9408 30.8394
" />
<path d="M33.9408 30.8394
L33.9710 30.7487
" />
<path d="M33.9710 30.7487
L34.0315 30.6882
" />
<path d="M34.0315 30.6882
L34.0920 30.6579
" />
<path d="M34.0920 30.6579
L34.2129 30.6277
" />
<path d="M34.2129 30.6277
L34.3036 30.6277
" />
<path d="M34.3036 30.6277
L34.4246 30.6579
" />
<path d="M34.4246 30.6579
L34.4851 30.6882
" />
<path d="M34.4851 30.6882
L34.5456 30.7487
" />
<path d="M34.5456 30.7487
L34.5758 30.8394
" />
<path d="M34.5758 30.8394
L34.5758 30.9906
" />
<path d="M34.0013 30.3858
L33.9710 30.3556
" />
<path d="M33.9710 30.3556
L33.9408 30.2951
" />
<path d="M33.9408 30.2951
L33.9408 30.1439
" />
<path d="M33.9408 30.1439
L33.9710 30.0834
" />
<path d="M33.9710 30.0834
L34.0013 30.0532
" />
<path d="M34.0013 30.0532
L34.0617 30.0229
" />
<path d="M34.0617 30.0229
L34.1222 30.0229
" />
<path d="M34.1222 30.0229
L34.2129 30.0532
" />
<path d="M34.2129 30.0532
L34.5758 30.4160
" />
<path d="M34.5758 30.4160
L34.5758 30.0229
" />
<path d="M34.0013 29.7810
L33.9710 29.7508
" />
<path d="M33.9710 29.7508
L33.9408 29.6903
" />
<path d="M33.9408 29.6903
L33.9408 29.5391
" />
<path d="M33.9408 29.5391
L33.9710 29.4786
" />
<path d="M33.9710 29.4786
L34.0013 29.4484
" />
<path d="M34.0013 29.4484
L34.0617 29.4181
" />
<path d="M34.0617 29.4181
L34.1222 29.4181
" />
<path d="M34.1222 29.4181
L34.2129 29.4484
" />
<path d="M34.2129 29.4484
L34.5758 29.8112
" />
<path d="M34.5758 29.8112
L34.5758 29.4181
" />
</g><path d="M35.5600 31.7500
L35.5600 34.2900
" />
<g transform="rotate(-90.000000 35.5600 31.2420)">
<text x="35.5600" y="31.5595"
textLength="2.1748" font-size="0.8466" lengthAdjust="spacingAndGlyphs"
text-anchor="start" opacity="0" stroke-opacity="0">D23</text>
</g>
<g class="stroked-text"><desc>D23</desc>
<path d="M35.8458 30.9906
L35.2108 30.9906
" />
<path d="M35.2108 30.9906
L35.2108 30.8394
" />
<path d="M35.2108 30.8394
L35.2410 30.7487
" />
<path d="M35.2410 30.7487
L35.3015 30.6882
" />
<path d="M35.3015 30.6882
L35.3620 30.6579
" />
<path d="M35.3620 30.6579
L35.4829 30.6277
" />
<path d="M35.4829 30.6277
L35.5736 30.6277
" />
<path d="M35.5736 30.6277
L35.6946 30.6579
" />
<path d="M35.6946 30.6579
L35.7551 30.6882
" />
<path d="M35.7551 30.6882
L35.8156 30.7487
" />
<path d="M35.8156 30.7487
L35.8458 30.8394
" />
<path d="M35.8458 30.8394
L35.8458 30.9906
" />
<path d="M35.2713 30.3858
L35.2410 30.3556
" />
<path d="M35.2410 30.3556
L35.2108 30.2951
" />
<path d="M35.2108 30.2951
L35.2108 30.1439
" />
<path d="M35.2108 30.1439
L35.2410 30.0834
" />
<path d="M35.2410 30.0834
L35.2713 30.0532
" />
<path d="M35.2713 30.0532
L35.3317 30.0229
" />
<path d="M35.3317 30.0229
L35.3922 30.0229
" />
<path d="M35.3922 30.0229
L35.4829 30.0532
" />
<path d="M35.4829 30.0532
L35.8458 30.4160
" />
<path d="M35.8458 30.4160
L35.8458 30.0229
" />
<path d="M35.2108 29.8112
L35.2108 29.4181
" />
<path d="M35.2108 29.4181
L35.4527 29.6298
" />
<path d="M35.4527 29.6298
L35.4527 29.5391
" />
<path d="M35.4527 29.5391
L35.4829 29.4786
" />
<path d="M35.4829 29.4786
L35.5132 29.4484
" />
<path d="M35.5132 29.4484
L35.5736 29.4181
" />
<path d="M35.5736 29.4181
L35.7248 29.4181
" />
<path d="M35.7248 29.4181
L35.7853 29.4484
" />
<path d="M35.7853 29.4484
L35.8156 29.4786
" />
<path d="M35.8156 29.4786
L35.8458 29.5391
" />
<path d="M35.8458 29.5391
L35.8458 29.7205
" />
<path d="M35.8458 29.7205
L35.8156 29.7810
" />
<path d="M35.8156 29.7810
L35.7853 29.8112
" />
</g><path d="M17.7800 16.5100
L17.7800 13.9700
" />
<g transform="rotate(-90.000000 17.7800 17.0180)">
<text x="17.7800" y="17.3355"
textLength="1.4793" font-size="0.8466" lengthAdjust="spacingAndGlyphs"
text-anchor="end" opacity="0" stroke-opacity="0">5V</text>
</g>
<g class="stroked-text"><desc>5V</desc>
<path d="M17.4308 17.8137
L17.4308 18.1161
" />
<path d="M17.4308 18.1161
L17.7332 18.1463
" />
<path d="M17.7332 18.1463
L17.7029 18.1161
" />
<path d="M17.7029 18.1161
L17.6727 18.0556
" />
<path d="M17.6727 18.0556
L17.6727 17.9044
" />
<path d="M17.6727 17.9044
L17.7029 17.8439
" />
<path d="M17.7029 17.8439
L17.7332 17.8137
" />
<path d="M17.7332 17.8137
L17.7936 17.7834
" />
<path d="M17.7936 17.7834
L17.9448 17.7834
" />
<path d="M17.9448 17.7834
L18.0053 17.8137
" />
<path d="M18.0053 17.8137
L18.0356 17.8439
" />
<path d="M18.0356 17.8439
L18.0658 17.9044
" />
<path d="M18.0658 17.9044
L18.0658 18.0556
" />
<path d="M18.0658 18.0556
L18.0356 18.1161
" />
<path d="M18.0356 18.1161
L18.0053 18.1463
" />
<path d="M17.4308 17.6020
L18.0658 17.3903
" />
<path d="M18.0658 17.3903
L17.4308 17.1786
" />
</g><path d="M19.0500 16.5100
L19.0500 13.9700
" />
<g transform="rotate(-90.000000 19.0500 17.0180)">
<text x="19.0500" y="17.3355"
textLength="2.2654" font-size="0.8466" lengthAdjust="spacingAndGlyphs"
text-anchor="end" opacity="0" stroke-opacity="0">GND</text>
</g>
<g class="stroked-text"><desc>GND</desc>
<path d="M18.7310 18.5695
L18.7008 18.6300
" />
<path d="M18.7008 18.6300
L18.7008 18.7207
" />
<path d="M18.7008 18.7207
L18.7310 18.8114
" />
<path d="M18.7310 18.8114
L18.7915 18.8719
" />
<path d="M18.7915 18.8719
L18.8520 18.9022
" />
<path d="M18.8520 18.9022
L18.9729 18.9324
" />
<path d="M18.9729 18.9324
L19.0636 18.9324
" />
<path d="M19.0636 18.9324
L19.1846 18.9022
" />
<path d="M19.1846 18.9022
L19.2451 18.8719
" />
<path d="M19.2451 18.8719
L19.3056 18.8114
" />
<path d="M19.3056 18.8114
L19.3358 18.7207
" />
<path d="M19.3358 18.7207
L19.3358 18.6603
" />
<path d="M19.3358 18.6603
L19.3056 18.5695
" />
<path d="M19.3056 18.5695
L19.2753 18.5393
" />
<path d="M19.2753 18.5393
L19.0636 18.5393
" />
<path d="M19.0636 18.5393
L19.0636 18.6603
" />
<path d="M19.3358 18.2672
L18.7008 18.2672
" />
<path d="M18.7008 18.2672
L19.3358 17.9043
" />
<path d="M19.3358 17.9043
L18.7008 17.9043
" />
<path d="M19.3358 17.6020
L18.7008 17.6020
" />
<path d="M18.7008 17.6020
L18.7008 17.4508
" />
<path d="M18.7008 17.4508
L18.7310 17.3601
" />
<path d="M18.7310 17.3601
L18.7915 17.2996
" />
<path d="M18.7915 17.2996
L18.8520 17.2693
" />
<path d="M18.8520 17.2693
L18.9729 17.2391
" />
<path d="M18.9729 17.2391
L19.0636 17.2391
" />
<path d="M19.0636 17.2391
L19.1846 17.2693
" />
<path d="M19.1846 17.2693
L19.2451 17.2996
" />
<path d="M19.2451 17.2996
L19.3056 17.3601
" />
<path d="M19.3056 17.3601
L19.3358 17.4508
" />
<path d="M19.3358 17.4508
L19.3358 17.6020
" />
</g><path d="M20.3200 16.5100
L20.3200 13.9700
" />
<g transform="rotate(-90.000000 20.3200 17.0180)">
<text x="20.3200" y="17.3355"
textLength="2.1748" font-size="0.8466" lengthAdjust="spacingAndGlyphs"
text-anchor="end" opacity="0" stroke-opacity="0">D13</text>
</g>
<g class="stroked-text"><desc>D13</desc>
<path d="M20.6058 18.8116
L19.9708 18.8116
" />
<path d="M19.9708 18.8116
L19.9708 18.6604
" />
<path d="M19.9708 18.6604
L20.0010 18.5697
" />
<path d="M20.0010 18.5697
L20.0615 18.5092
" />
<path d="M20.0615 18.5092
L20.1220 18.4789
" />
<path d="M20.1220 18.4789
L20.2429 18.4487
" />
<path d="M20.2429 18.4487
L20.3336 18.4487
" />
<path d="M20.3336 18.4487
L20.4546 18.4789
" />
<path d="M20.4546 18.4789
L20.5151 18.5092
" />
<path d="M20.5151 18.5092
L20.5756 18.5697
" />
<path d="M20.5756 18.5697
L20.6058 18.6604
" />
<path d="M20.6058 18.6604
L20.6058 18.8116
" />
<path d="M20.6058 17.8439
L20.6058 18.2068
" />
<path d="M20.6058 18.0254
L19.9708 18.0254
" />
<path d="M19.9708 18.0254
L20.0615 18.0858
" />
<path d="M20.0615 18.0858
L20.1220 18.1463
" />
<path d="M20.1220 18.1463
L20.1522 18.2068
" />
<path d="M19.9708 17.6322
L19.9708 17.2391
" />
<path d="M19.9708 17.2391
L20.2127 17.4508
" />
<path d="M20.2127 17.4508
L20.2127 17.3601
" />
<path d="M20.2127 17.3601
L20.2429 17.2996
" />
<path d="M20.2429 17.2996
L20.2732 17.2694
" />
<path d="M20.2732 17.2694
L20.3336 17.2391
" />
<path d="M20.3336 17.2391
L20.4848 17.2391
" />
<path d="M20.4848 17.2391
L20.5453 17.2694
" />
<path d="M20.5453 17.2694
L20.5756 17.2996
" />
<path d="M20.5756 17.2996
L20.6058 17.3601
" />
<path d="M20.6058 17.3601
L20.6058 17.5415
" />
<path d="M20.6058 17.5415
L20.5756 17.6020
" />
<path d="M20.5756 17.6020
L20.5453 17.6322
" />
</g><path d="M21.5900 16.5100
L21.5900 13.9700
" />
<g transform="rotate(-90.000000 21.5900 17.0180)">
<text x="21.5900" y="17.3355"
textLength="2.1748" font-size="0.8466" lengthAdjust="spacingAndGlyphs"
text-anchor="end" opacity="0" stroke-opacity="0">D12</text>
</g>
<g class="stroked-text"><desc>D12</desc>
<path d="M21.8758 18.8116
L21.2408 18.8116
" />
<path d="M21.2408 18.8116
L21.2408 18.6604
" />
<path d="M21.2408 18.6604
L21.2710 18.5697
" />
<path d="M21.2710 18.5697
L21.3315 18.5092
" />
<path d="M21.3315 18.5092
L21.3920 18.4789
" />
<path d="M21.3920 18.4789
L21.5129 18.4487
" />
<path d="M21.5129 18.4487
L21.6036 18.4487
" />
<path d="M21.6036 18.4487
L21.7246 18.4789
" />
<path d="M21.7246 18.4789
L21.7851 18.5092
" />
<path d="M21.7851 18.5092
L21.8456 18.5697
" />
<path d="M21.8456 18.5697
L21.8758 18.6604
" />
<path d="M21.8758 18.6604
L21.8758 18.8116
" />
<path d="M21.8758 17.8439
L21.8758 18.2068
" />
<path d="M21.8758 18.0254
L21.2408 18.0254
" />
<path d="M21.2408 18.0254
L21.3315 18.0858
" />
<path d="M21.3315 18.0858
L21.3920 18.1463
" />
<path d="M21.3920 18.1463
L21.4222 18.2068
" />
<path d="M21.3013 17.6020
L21.2710 17.5718
" />
<path d="M21.2710 17.5718
L21.2408 17.5113
" />
<path d="M21.2408 17.5113
L21.2408 17.3601
" />
<path d="M21.2408 17.3601
L21.2710 17.2996
" />
<path d="M21.2710 17.2996
L21.3013 17.2694
" />
<path d="M21.3013 17.2694
L21.3617 17.2391
" />
<path d="M21.3617 17.2391
L21.4222 17.2391
" />
<path d="M21.4222 17.2391
L21.5129 17.2694
" />
<path d="M21.5129 17.2694
L21.8758 17.6322
" />
<path d="M21.8758 17.6322
L21.8758 17.2391
" />
</g><path d="M22.8600 16.5100
L22.8600 13.9700
" />
<g transform="rotate(-90.000000 22.8600 17.0180)">
<text x="22.8600" y="17.3355"
textLength="2.1748" font-size="0.8466" lengthAdjust="spacingAndGlyphs"
text-anchor="end" opacity="0" stroke-opacity="0">D14</text>
</g>
<g class="stroked-text"><desc>D14</desc>
<path d="M23.1458 18.8116
L22.5108 18.8116
" />
<path d="M22.5108 18.8116
L22.5108 18.6604
" />
<path d="M22.5108 18.6604
L22.5410 18.5697
" />
<path d="M22.5410 18.5697
L22.6015 18.5092
" />
<path d="M22.6015 18.5092
L22.6620 18.4789
" />
<path d="M22.6620 18.4789
L22.7829 18.4487
" />
<path d="M22.7829 18.4487
L22.8736 18.4487
" />
<path d="M22.8736 18.4487
L22.9946 18.4789
" />
<path d="M22.9946 18.4789
L23.0551 18.5092
" />
<path d="M23.0551 18.5092
L23.1156 18.5697
" />
<path d="M23.1156 18.5697
L23.1458 18.6604
" />
<path d="M23.1458 18.6604
L23.1458 18.8116
" />
<path d="M23.1458 17.8439
L23.1458 18.2068
" />
<path d="M23.1458 18.0254
L22.5108 18.0254
" />
<path d="M22.5108 18.0254
L22.6015 18.0858
" />
<path d="M22.6015 18.0858
L22.6620 18.1463
" />
<path d="M22.6620 18.1463
L22.6922 18.2068
" />
<path d="M22.7225 17.2996
L23.1458 17.2996
" />
<path d="M22.4806 17.4508
L22.9341 17.6020
" />
<path d="M22.9341 17.6020
L22.9341 17.2089
" />
</g><path d="M24.1300 16.5100
L24.1300 13.9700
" />
<g transform="rotate(-90.000000 24.1300 17.0180)">
<text x="24.1300" y="17.3355"
textLength="2.1748" font-size="0.8466" lengthAdjust="spacingAndGlyphs"
text-anchor="end" opacity="0" stroke-opacity="0">D27</text>
</g>
<g class="stroked-text"><desc>D27</desc>
<path d="M24.4158 18.8116
L23.7808 18.8116
" />
<path d="M23.7808 18.8116
L23.7808 18.6604
" />
<path d="M23.7808 18.6604
L23.8110 18.5697
" />
<path d="M23.8110 18.5697
L23.8715 18.5092
" />
<path d="M23.8715 18.5092
L23.9320 18.4789
" />
<path d="M23.9320 18.4789
L24.0529 18.4487
" />
<path d="M24.0529 18.4487
L24.1436 18.4487
" />
<path d="M24.1436 18.4487
L24.2646 18.4789
" />
<path d="M24.2646 18.4789
L24.3251 18.5092
" />
<path d="M24.3251 18.5092
L24.3856 18.5697
" />
<path d="M24.3856 18.5697
L24.4158 18.6604
" />
<path d="M24.4158 18.6604
L24.4158 18.8116
" />
<path d="M23.8413 18.2068
L23.8110 18.1766
" />
<path d="M23.8110 18.1766
L23.7808 18.1161
" />
<path d="M23.7808 18.1161
L23.7808 17.9649
" />
<path d="M23.7808 17.9649
L23.8110 17.9044
" />
<path d="M23.8110 17.9044
L23.8413 17.8742
" />
<path d="M23.8413 17.8742
L23.9017 17.8439
" />
<path d="M23.9017 17.8439
L23.9622 17.8439
" />
<path d="M23.9622 17.8439
L24.0529 17.8742
" />
<path d="M24.0529 17.8742
L24.4158 18.2370
" />
<path d="M24.4158 18.2370
L24.4158 17.8439
" />
<path d="M23.7808 17.6322
L23.7808 17.2089
" />
<path d="M23.7808 17.2089
L24.4158 17.4810
" />
</g><path d="M25.4000 16.5100
L25.4000 13.9700
" />
<g transform="rotate(-90.000000 25.4000 17.0180)">
<text x="25.4000" y="17.3355"
textLength="2.1748" font-size="0.8466" lengthAdjust="spacingAndGlyphs"
text-anchor="end" opacity="0" stroke-opacity="0">D26</text>
</g>
<g class="stroked-text"><desc>D26</desc>
<path d="M25.6858 18.8116
L25.0508 18.8116
" />
<path d="M25.0508 18.8116
L25.0508 18.6604
" />
<path d="M25.0508 18.6604
L25.0810 18.5697
" />
<path d="M25.0810 18.5697
L25.1415 18.5092
" />
<path d="M25.1415 18.5092
L25.2020 18.4789
" />
<path d="M25.2020 18.4789
L25.3229 18.4487
" />
<path d="M25.3229 18.4487
L25.4136 18.4487
" />
<path d="M25.4136 18.4487
L25.5346 18.4789
" />
<path d="M25.5346 18.4789
L25.5951 18.5092
" />
<path d="M25.5951 18.5092
L25.6556 18.5697
" />
<path d="M25.6556 18.5697
L25.6858 18.6604
" />
<path d="M25.6858 18.6604
L25.6858 18.8116
" />
<path d="M25.1113 18.2068
L25.0810 18.1766
" />
<path d="M25.0810 18.1766
L25.0508 18.1161
" />
<path d="M25.0508 18.1161
L25.0508 17.9649
" />
<path d="M25.0508 17.9649
L25.0810 17.9044
" />
<path d="M25.0810 17.9044
L25.1113 17.8742
" />
<path d="M25.1113 17.8742
L25.1717 17.8439
" />
<path d="M25.1717 17.8439
L25.2322 17.8439
" />
<path d="M25.2322 17.8439
L25.3229 17.8742
" />
<path d="M25.3229 17.8742
L25.6858 18.2370
" />
<path d="M25.6858 18.2370
L25.6858 17.8439
" />
<path d="M25.0508 17.2996
L25.0508 17.4206
" />
<path d="M25.0508 17.4206
L25.0810 17.4810
" />
<path d="M25.0810 17.4810
L25.1113 17.5113
" />
<path d="M25.1113 17.5113
L25.2020 17.5718
" />
<path d="M25.2020 17.5718
L25.3229 17.6020
" />
<path d="M25.3229 17.6020
L25.5648 17.6020
" />
<path d="M25.5648 17.6020
L25.6253 17.5718
" />
<path d="M25.6253 17.5718
L25.6556 17.5415
" />
<path d="M25.6556 17.5415
L25.6858 17.4810
" />
<path d="M25.6858 17.4810
L25.6858 17.3601
" />
<path d="M25.6858 17.3601
L25.6556 17.2996
" />
<path d="M25.6556 17.2996
L25.6253 17.2694
" />
<path d="M25.6253 17.2694
L25.5648 17.2391
" />
<path d="M25.5648 17.2391
L25.4136 17.2391
" />
<path d="M25.4136 17.2391
L25.3532 17.2694
" />
<path d="M25.3532 17.2694
L25.3229 17.2996
" />
<path d="M25.3229 17.2996
L25.2927 17.3601
" />
<path d="M25.2927 17.3601
L25.2927 17.4810
" />
<path d="M25.2927 17.4810
L25.3229 17.5415
" />
<path d="M25.3229 17.5415
L25.3532 17.5718
" />
<path d="M25.3532 17.5718
L25.4136 17.6020
" />
</g><path d="M26.6700 16.5100
L26.6700 13.9700
" />
<g transform="rotate(-90.000000 26.6700 17.0180)">
<text x="26.6700" y="17.3355"
textLength="2.1748" font-size="0.8466" lengthAdjust="spacingAndGlyphs"
text-anchor="end" opacity="0" stroke-opacity="0">D25</text>
</g>
<g class="stroked-text"><desc>D25</desc>
<path d="M26.9558 18.8116
L26.3208 18.8116
" />
<path d="M26.3208 18.8116
L26.3208 18.6604
" />
<path d="M26.3208 18.6604
L26.3510 18.5697
" />
<path d="M26.3510 18.5697
L26.4115 18.5092
" />
<path d="M26.4115 18.5092
L26.4720 18.4789
" />
<path d="M26.4720 18.4789
L26.5929 18.4487
" />
<path d="M26.5929 18.4487
L26.6836 18.4487
" />
<path d="M26.6836 18.4487
L26.8046 18.4789
" />
<path d="M26.8046 18.4789
L26.8651 18.5092
" />
<path d="M26.8651 18.5092
L26.9256 18.5697
" />
<path d="M26.9256 18.5697
L26.9558 18.6604
" />
<path d="M26.9558 18.6604
L26.9558 18.8116
" />
<path d="M26.3813 18.2068
L26.3510 18.1766
" />
<path d="M26.3510 18.1766
L26.3208 18.1161
" />
<path d="M26.3208 18.1161
L26.3208 17.9649
" />
<path d="M26.3208 17.9649
L26.3510 17.9044
" />
<path d="M26.3510 17.9044
L26.3813 17.8742
" />
<path d="M26.3813 17.8742
L26.4417 17.8439
" />
<path d="M26.4417 17.8439
L26.5022 17.8439
" />
<path d="M26.5022 17.8439
L26.5929 17.8742
" />
<path d="M26.5929 17.8742
L26.9558 18.2370
" />
<path d="M26.9558 18.2370
L26.9558 17.8439
" />
<path d="M26.3208 17.2694
L26.3208 17.5718
" />
<path d="M26.3208 17.5718
L26.6232 17.6020
" />
<path d="M26.6232 17.6020
L26.5929 17.5718
" />
<path d="M26.5929 17.5718
L26.5627 17.5113
" />
<path d="M26.5627 17.5113
L26.5627 17.3601
" />
<path d="M26.5627 17.3601
L26.5929 17.2996
" />
<path d="M26.5929 17.2996
L26.6232 17.2694
" />
<path d="M26.6232 17.2694
L26.6836 17.2391
" />
<path d="M26.6836 17.2391
L26.8348 17.2391
" />
<path d="M26.8348 17.2391
L26.8953 17.2694
" />
<path d="M26.8953 17.2694
L26.9256 17.2996
" />
<path d="M26.9256 17.2996
L26.9558 17.3601
" />
<path d="M26.9558 17.3601
L26.9558 17.5113
" />
<path d="M26.9558 17.5113
L26.9256 17.5718
" />
<path d="M26.9256 17.5718
L26.8953 17.6020
" />
</g><path d="M27.9400 16.5100
L27.9400 13.9700
" />
<g transform="rotate(-90.000000 27.9400 17.0180)">
<text x="27.9400" y="17.3355"
textLength="2.1748" font-size="0.8466" lengthAdjust="spacingAndGlyphs"
text-anchor="end" opacity="0" stroke-opacity="0">D33</text>
</g>
<g class="stroked-text"><desc>D33</desc>
<path d="M28.2258 18.8116
L27.5908 18.8116
" />
<path d="M27.5908 18.8116
L27.5908 18.6604
" />
<path d="M27.5908 18.6604
L27.6210 18.5697
" />
<path d="M27.6210 18.5697
L27.6815 18.5092
" />
<path d="M27.6815 18.5092
L27.7420 18.4789
" />
<path d="M27.7420 18.4789
L27.8629 18.4487
" />
<path d="M27.8629 18.4487
L27.9536 18.4487
" />
<path d="M27.9536 18.4487
L28.0746 18.4789
" />
<path d="M28.0746 18.4789
L28.1351 18.5092
" />
<path d="M28.1351 18.5092
L28.1956 18.5697
" />
<path d="M28.1956 18.5697
L28.2258 18.6604
" />
<path d="M28.2258 18.6604
L28.2258 18.8116
" />
<path d="M27.5908 18.2370
L27.5908 17.8439
" />
<path d="M27.5908 17.8439
L27.8327 18.0556
" />
<path d="M27.8327 18.0556
L27.8327 17.9649
" />
<path d="M27.8327 17.9649
L27.8629 17.9044
" />
<path d="M27.8629 17.9044
L27.8932 17.8742
" />
<path d="M27.8932 17.8742
L27.9536 17.8439
" />
<path d="M27.9536 17.8439
L28.1048 17.8439
" />
<path d="M28.1048 17.8439
L28.1653 17.8742
" />
<path d="M28.1653 17.8742
L28.1956 17.9044
" />
<path d="M28.1956 17.9044
L28.2258 17.9649
" />
<path d="M28.2258 17.9649
L28.2258 18.1463
" />
<path d="M28.2258 18.1463
L28.1956 18.2068
" />
<path d="M28.1956 18.2068
L28.1653 18.2370
" />
<path d="M27.5908 17.6322
L27.5908 17.2391
" />
<path d="M27.5908 17.2391
L27.8327 17.4508
" />
<path d="M27.8327 17.4508
L27.8327 17.3601
" />
<path d="M27.8327 17.3601
L27.8629 17.2996
" />
<path d="M27.8629 17.2996
L27.8932 17.2694
" />
<path d="M27.8932 17.2694
L27.9536 17.2391
" />
<path d="M27.9536 17.2391
L28.1048 17.2391
" />
<path d="M28.1048 17.2391
L28.1653 17.2694
" />
<path d="M28.1653 17.2694
L28.1956 17.2996
" />
<path d="M28.1956 17.2996
L28.2258 17.3601
" />
<path d="M28.2258 17.3601
L28.2258 17.5415
" />
<path d="M28.2258 17.5415
L28.1956 17.6020
" />
<path d="M28.1956 17.6020
L28.1653 17.6322
" />
</g><path d="M29.2100 16.5100
L29.2100 13.9700
" />
<g transform="rotate(-90.000000 29.2100 17.0180)">
<text x="29.2100" y="17.3355"
textLength="2.1748" font-size="0.8466" lengthAdjust="spacingAndGlyphs"
text-anchor="end" opacity="0" stroke-opacity="0">D32</text>
</g>
<g class="stroked-text"><desc>D32</desc>
<path d="M29.4958 18.8116
L28.8608 18.8116
" />
<path d="M28.8608 18.8116
L28.8608 18.6604
" />
<path d="M28.8608 18.6604
L28.8910 18.5697
" />
<path d="M28.8910 18.5697
L28.9515 18.5092
" />
<path d="M28.9515 18.5092
L29.0120 18.4789
" />
<path d="M29.0120 18.4789
L29.1329 18.4487
" />
<path d="M29.1329 18.4487
L29.2236 18.4487
" />
<path d="M29.2236 18.4487
L29.3446 18.4789
" />
<path d="M29.3446 18.4789
L29.4051 18.5092
" />
<path d="M29.4051 18.5092
L29.4656 18.5697
" />
<path d="M29.4656 18.5697
L29.4958 18.6604
" />
<path d="M29.4958 18.6604
L29.4958 18.8116
" />
<path d="M28.8608 18.2370
L28.8608 17.8439
" />
<path d="M28.8608 17.8439
L29.1027 18.0556
" />
<path d="M29.1027 18.0556
L29.1027 17.9649
" />
<path d="M29.1027 17.9649
L29.1329 17.9044
" />
<path d="M29.1329 17.9044
L29.1632 17.8742
" />
<path d="M29.1632 17.8742
L29.2236 17.8439
" />
<path d="M29.2236 17.8439
L29.3748 17.8439
" />
<path d="M29.3748 17.8439
L29.4353 17.8742
" />
<path d="M29.4353 17.8742
L29.4656 17.9044
" />
<path d="M29.4656 17.9044
L29.4958 17.9649
" />
<path d="M29.4958 17.9649
L29.4958 18.1463
" />
<path d="M29.4958 18.1463
L29.4656 18.2068
" />
<path d="M29.4656 18.2068
L29.4353 18.2370
" />
<path d="M28.9213 17.6020
L28.8910 17.5718
" />
<path d="M28.8910 17.5718
L28.8608 17.5113
" />
<path d="M28.8608 17.5113
L28.8608 17.3601
" />
<path d="M28.8608 17.3601
L28.8910 17.2996
" />
<path d="M28.8910 17.2996
L28.9213 17.2694
" />
<path d="M28.9213 17.2694
L28.9817 17.2391
" />
<path d="M28.9817 17.2391
L29.0422 17.2391
" />
<path d="M29.0422 17.2391
L29.1329 17.2694
" />
<path d="M29.1329 17.2694
L29.4958 17.6322
" />
<path d="M29.4958 17.6322
L29.4958 17.2391
" />
</g><path d="M30.4800 16.5100
L30.4800 13.9700
" />
<g transform="rotate(-90.000000 30.4800 17.0180)">
<text x="30.4800" y="17.3355"
textLength="2.1748" font-size="0.8466" lengthAdjust="spacingAndGlyphs"
text-anchor="end" opacity="0" stroke-opacity="0">D35</text>
</g>
<g class="stroked-text"><desc>D35</desc>
<path d="M30.7658 18.8116
L30.1308 18.8116
" />
<path d="M30.1308 18.8116
L30.1308 18.6604
" />
<path d="M30.1308 18.6604
L30.1610 18.5697
" />
<path d="M30.1610 18.5697
L30.2215 18.5092
" />
<path d="M30.2215 18.5092
L30.2820 18.4789
" />
<path d="M30.2820 18.4789
L30.4029 18.4487
" />
<path d="M30.4029 18.4487
L30.4936 18.4487
" />
<path d="M30.4936 18.4487
L30.6146 18.4789
" />
<path d="M30.6146 18.4789
L30.6751 18.5092
" />
<path d="M30.6751 18.5092
L30.7356 18.5697
" />
<path d="M30.7356 18.5697
L30.7658 18.6604
" />
<path d="M30.7658 18.6604
L30.7658 18.8116
" />
<path d="M30.1308 18.2370
L30.1308 17.8439
" />
<path d="M30.1308 17.8439
L30.3727 18.0556
" />
<path d="M30.3727 18.0556
L30.3727 17.9649
" />
<path d="M30.3727 17.9649
L30.4029 17.9044
" />
<path d="M30.4029 17.9044
L30.4332 17.8742
" />
<path d="M30.4332 17.8742
L30.4936 17.8439
" />
<path d="M30.4936 17.8439
L30.6448 17.8439
" />
<path d="M30.6448 17.8439
L30.7053 17.8742
" />
<path d="M30.7053 17.8742
L30.7356 17.9044
" />
<path d="M30.7356 17.9044
L30.7658 17.9649
" />
<path d="M30.7658 17.9649
L30.7658 18.1463
" />
<path d="M30.7658 18.1463
L30.7356 18.2068
" />
<path d="M30.7356 18.2068
L30.7053 18.2370
" />
<path d="M30.1308 17.2694
L30.1308 17.5718
" />
<path d="M30.1308 17.5718
L30.4332 17.6020
" />
<path d="M30.4332 17.6020
L30.4029 17.5718
" />
<path d="M30.4029 17.5718
L30.3727 17.5113
" />
<path d="M30.3727 17.5113
L30.3727 17.3601
" />
<path d="M30.3727 17.3601
L30.4029 17.2996
" />
<path d="M30.4029 17.2996
L30.4332 17.2694
" />
<path d="M30.4332 17.2694
L30.4936 17.2391
" />
<path d="M30.4936 17.2391
L30.6448 17.2391
" />
<path d="M30.6448 17.2391
L30.7053 17.2694
" />
<path d="M30.7053 17.2694
L30.7356 17.2996
" />
<path d="M30.7356 17.2996
L30.7658 17.3601
" />
<path d="M30.7658 17.3601
L30.7658 17.5113
" />
<path d="M30.7658 17.5113
L30.7356 17.5718
" />
<path d="M30.7356 17.5718
L30.7053 17.6020
" />
</g><path d="M31.7500 16.5100
L31.7500 13.9700
" />
<g transform="rotate(-90.000000 31.7500 17.0180)">
<text x="31.7500" y="17.3355"
textLength="2.1748" font-size="0.8466" lengthAdjust="spacingAndGlyphs"
text-anchor="end" opacity="0" stroke-opacity="0">D34</text>
</g>
<g class="stroked-text"><desc>D34</desc>
<path d="M32.0358 18.8116
L31.4008 18.8116
" />
<path d="M31.4008 18.8116
L31.4008 18.6604
" />
<path d="M31.4008 18.6604
L31.4310 18.5697
" />
<path d="M31.4310 18.5697
L31.4915 18.5092
" />
<path d="M31.4915 18.5092
L31.5520 18.4789
" />
<path d="M31.5520 18.4789
L31.6729 18.4487
" />
<path d="M31.6729 18.4487
L31.7636 18.4487
" />
<path d="M31.7636 18.4487
L31.8846 18.4789
" />
<path d="M31.8846 18.4789
L31.9451 18.5092
" />
<path d="M31.9451 18.5092
L32.0056 18.5697
" />
<path d="M32.0056 18.5697
L32.0358 18.6604
" />
<path d="M32.0358 18.6604
L32.0358 18.8116
" />
<path d="M31.4008 18.2370
L31.4008 17.8439
" />
<path d="M31.4008 17.8439
L31.6427 18.0556
" />
<path d="M31.6427 18.0556
L31.6427 17.9649
" />
<path d="M31.6427 17.9649
L31.6729 17.9044
" />
<path d="M31.6729 17.9044
L31.7032 17.8742
" />
<path d="M31.7032 17.8742
L31.7636 17.8439
" />
<path d="M31.7636 17.8439
L31.9148 17.8439
" />
<path d="M31.9148 17.8439
L31.9753 17.8742
" />
<path d="M31.9753 17.8742
L32.0056 17.9044
" />
<path d="M32.0056 17.9044
L32.0358 17.9649
" />
<path d="M32.0358 17.9649
L32.0358 18.1463
" />
<path d="M32.0358 18.1463
L32.0056 18.2068
" />
<path d="M32.0056 18.2068
L31.9753 18.2370
" />
<path d="M31.6125 17.2996
L32.0358 17.2996
" />
<path d="M31.3706 17.4508
L31.8241 17.6020
" />
<path d="M31.8241 17.6020
L31.8241 17.2089
" />
</g><path d="M33.0200 16.5100
L33.0200 13.9700
" />
<g transform="rotate(-90.000000 33.0200 17.0180)">
<text x="33.0200" y="17.3355"
textLength="1.5397" font-size="0.8466" lengthAdjust="spacingAndGlyphs"
text-anchor="end" opacity="0" stroke-opacity="0">VN</text>
</g>
<g class="stroked-text"><desc>VN</desc>
<path d="M32.6708 18.2672
L33.3058 18.0555
" />
<path d="M33.3058 18.0555
L32.6708 17.8438
" />
<path d="M33.3058 17.6322
L32.6708 17.6322
" />
<path d="M32.6708 17.6322
L33.3058 17.2693
" />
<path d="M33.3058 17.2693
L32.6708 17.2693
" />
</g><path d="M34.2900 16.5100
L34.2900 13.9700
" />
<g transform="rotate(-90.000000 34.2900 17.0180)">
<text x="34.2900" y="17.3355"
textLength="1.5095" font-size="0.8466" lengthAdjust="spacingAndGlyphs"
text-anchor="end" opacity="0" stroke-opacity="0">VP</text>
</g>
<g class="stroked-text"><desc>VP</desc>
<path d="M33.9408 18.2370
L34.5758 18.0253
" />
<path d="M34.5758 18.0253
L33.9408 17.8136
" />
<path d="M34.5758 17.6020
L33.9408 17.6020
" />
<path d="M33.9408 17.6020
L33.9408 17.3601
" />
<path d="M33.9408 17.3601
L33.9710 17.2996
" />
<path d="M33.9710 17.2996
L34.0013 17.2693
" />
<path d="M34.0013 17.2693
L34.0617 17.2391
" />
<path d="M34.0617 17.2391
L34.1525 17.2391
" />
<path d="M34.1525 17.2391
L34.2129 17.2693
" />
<path d="M34.2129 17.2693
L34.2432 17.2996
" />
<path d="M34.2432 17.2996
L34.2734 17.3601
" />
<path d="M34.2734 17.3601
L34.2734 17.6020
" />
</g><path d="M35.5600 16.5100
L35.5600 13.9700
" />
<g transform="rotate(-90.000000 35.5600 17.0180)">
<text x="35.5600" y="17.3355"
textLength="1.5699" font-size="0.8466" lengthAdjust="spacingAndGlyphs"
text-anchor="end" opacity="0" stroke-opacity="0">EN</text>
</g>
<g class="stroked-text"><desc>EN</desc>
<path d="M35.5132 18.2067
L35.5132 17.9950
" />
<path d="M35.8458 17.9043
L35.8458 18.2067
" />
<path d="M35.8458 18.2067
L35.2108 18.2067
" />
<path d="M35.2108 18.2067
L35.2108 17.9043
" />
<path d="M35.8458 17.6322
L35.2108 17.6322
" />
<path d="M35.2108 17.6322
L35.8458 17.2693
" />
<path d="M35.8458 17.2693
L35.2108 17.2693
" />
</g><g transform="rotate(-90.000000 26.6700 24.1300)">
<text x="26.6700" y="24.4475"
textLength="1.9932" font-size="0.8466" lengthAdjust="spacingAndGlyphs"
text-anchor="middle" opacity="0" stroke-opacity="0">Esp</text>
</g>
<g class="stroked-text"><desc>Esp</desc>
<path d="M26.6232 24.8103
L26.6232 24.5986
" />
<path d="M26.9558 24.5079
L26.9558 24.8103
" />
<path d="M26.9558 24.8103
L26.3208 24.8103
" />
<path d="M26.3208 24.8103
L26.3208 24.5079
" />
<path d="M26.9256 24.2660
L26.9558 24.2055
" />
<path d="M26.9558 24.2055
L26.9558 24.0846
" />
<path d="M26.9558 24.0846
L26.9256 24.0241
" />
<path d="M26.9256 24.0241
L26.8651 23.9939
" />
<path d="M26.8651 23.9939
L26.8348 23.9939
" />
<path d="M26.8348 23.9939
L26.7744 24.0241
" />
<path d="M26.7744 24.0241
L26.7441 24.0846
" />
<path d="M26.7441 24.0846
L26.7441 24.1753
" />
<path d="M26.7441 24.1753
L26.7139 24.2358
" />
<path d="M26.7139 24.2358
L26.6534 24.2660
" />
<path d="M26.6534 24.2660
L26.6232 24.2660
" />
<path d="M26.6232 24.2660
L26.5627 24.2358
" />
<path d="M26.5627 24.2358
L26.5325 24.1753
" />
<path d="M26.5325 24.1753
L26.5325 24.0846
" />
<path d="M26.5325 24.0846
L26.5627 24.0241
" />
<path d="M26.5325 23.7218
L27.1675 23.7218
" />
<path d="M26.5627 23.7218
L26.5325 23.6613
" />
<path d="M26.5325 23.6613
L26.5325 23.5403
" />
<path d="M26.5325 23.5403
L26.5627 23.4799
" />
<path d="M26.5627 23.4799
L26.5929 23.4496
" />
<path d="M26.5929 23.4496
L26.6534 23.4194
" />
<path d="M26.6534 23.4194
L26.8348 23.4194
" />
<path d="M26.8348 23.4194
L26.8953 23.4496
" />
<path d="M26.8953 23.4496
L26.9256 23.4799
" />
<path d="M26.9256 23.4799
L26.9558 23.5403
" />
<path d="M26.9558 23.5403
L26.9558 23.6613
" />
<path d="M26.9558 23.6613
L26.9256 23.7218
" />
</g><rect x="15.087600" y="43.738800" width="13.004800" height="6.502400" rx="0.000000" />
<path d="M17.7800 44.4500
L17.7800 41.9100
" />
<g transform="rotate(-90.000000 17.7800 44.9580)">
<text x="17.7800" y="45.2755"
textLength="2.1445" font-size="0.8466" lengthAdjust="spacingAndGlyphs"
text-anchor="end" opacity="0" stroke-opacity="0">VCC</text>
</g>
<g class="stroked-text"><desc>VCC</desc>
<path d="M17.4308 46.8120
L18.0658 46.6003
" />
<path d="M18.0658 46.6003
L17.4308 46.3886
" />
<path d="M18.0053 45.8141
L18.0356 45.8443
" />
<path d="M18.0356 45.8443
L18.0658 45.9351
" />
<path d="M18.0658 45.9351
L18.0658 45.9955
" />
<path d="M18.0658 45.9955
L18.0356 46.0862
" />
<path d="M18.0356 46.0862
L17.9751 46.1467
" />
<path d="M17.9751 46.1467
L17.9146 46.1770
" />
<path d="M17.9146 46.1770
L17.7936 46.2072
" />
<path d="M17.7936 46.2072
L17.7029 46.2072
" />
<path d="M17.7029 46.2072
L17.5820 46.1770
" />
<path d="M17.5820 46.1770
L17.5215 46.1467
" />
<path d="M17.5215 46.1467
L17.4610 46.0862
" />
<path d="M17.4610 46.0862
L17.4308 45.9955
" />
<path d="M17.4308 45.9955
L17.4308 45.9351
" />
<path d="M17.4308 45.9351
L17.4610 45.8443
" />
<path d="M17.4610 45.8443
L17.4913 45.8141
" />
<path d="M18.0053 45.1791
L18.0356 45.2093
" />
<path d="M18.0356 45.2093
L18.0658 45.3001
" />
<path d="M18.0658 45.3001
L18.0658 45.3605
" />
<path d="M18.0658 45.3605
L18.0356 45.4512
" />
<path d="M18.0356 45.4512
L17.9751 45.5117
" />
<path d="M17.9751 45.5117
L17.9146 45.5420
" />
<path d="M17.9146 45.5420
L17.7936 45.5722
" />
<path d="M17.7936 45.5722
L17.7029 45.5722
" />
<path d="M17.7029 45.5722
L17.5820 45.5420
" />
<path d="M17.5820 45.5420
L17.5215 45.5117
" />
<path d="M17.5215 45.5117
L17.4610 45.4512
" />
<path d="M17.4610 45.4512
L17.4308 45.3605
" />
<path d="M17.4308 45.3605
L17.4308 45.3001
" />
<path d="M17.4308 45.3001
L17.4610 45.2093
" />
<path d="M17.4610 45.2093
L17.4913 45.1791
" />
</g><path d="M20.3200 44.4500
L20.3200 41.9100
" />
<g transform="rotate(-90.000000 20.3200 44.9580)">
<text x="20.3200" y="45.2755"
textLength="2.2654" font-size="0.8466" lengthAdjust="spacingAndGlyphs"
text-anchor="end" opacity="0" stroke-opacity="0">GND</text>
</g>
<g class="stroked-text"><desc>GND</desc>
<path d="M20.0010 46.5095
L19.9708 46.5700
" />
<path d="M19.9708 46.5700
L19.9708 46.6607
" />
<path d="M19.9708 46.6607
L20.0010 46.7514
" />
<path d="M20.0010 46.7514
L20.0615 46.8119
" />
<path d="M20.0615 46.8119
L20.1220 46.8422
" />
<path d="M20.1220 46.8422
L20.2429 46.8724
" />
<path d="M20.2429 46.8724
L20.3336 46.8724
" />
<path d="M20.3336 46.8724
L20.4546 46.8422
" />
<path d="M20.4546 46.8422
L20.5151 46.8119
" />
<path d="M20.5151 46.8119
L20.5756 46.7514
" />
<path d="M20.5756 46.7514
L20.6058 46.6607
" />
<path d="M20.6058 46.6607
L20.6058 46.6003
" />
<path d="M20.6058 46.6003
L20.5756 46.5095
" />
<path d="M20.5756 46.5095
L20.5453 46.4793
" />
<path d="M20.5453 46.4793
L20.3336 46.4793
" />
<path d="M20.3336 46.4793
L20.3336 46.6003
" />
<path d="M20.6058 46.2072
L19.9708 46.2072
" />
<path d="M19.9708 46.2072
L20.6058 45.8443
" />
<path d="M20.6058 45.8443
L19.9708 45.8443
" />
<path d="M20.6058 45.5420
L19.9708 45.5420
" />
<path d="M19.9708 45.5420
L19.9708 45.3908
" />
<path d="M19.9708 45.3908
L20.0010 45.3001
" />
<path d="M20.0010 45.3001
L20.0615 45.2396
" />
<path d="M20.0615 45.2396
L20.1220 45.2093
" />
<path d="M20.1220 45.2093
L20.2429 45.1791
" />
<path d="M20.2429 45.1791
L20.3336 45.1791
" />
<path d="M20.3336 45.1791
L20.4546 45.2093
" />
<path d="M20.4546 45.2093
L20.5151 45.2396
" />
<path d="M20.5151 45.2396
L20.5756 45.3001
" />
<path d="M20.5756 45.3001
L20.6058 45.3908
" />
<path d="M20.6058 45.3908
L20.6058 45.5420
" />
</g><path d="M22.8600 44.4500
L22.8600 41.9100
" />
<g transform="rotate(-90.000000 22.8600 44.9580)">
<text x="22.8600" y="45.2755"
textLength="2.0840" font-size="0.8466" lengthAdjust="spacingAndGlyphs"
text-anchor="end" opacity="0" stroke-opacity="0">SCL</text>
</g>
<g class="stroked-text"><desc>SCL</desc>
<path d="M23.1156 46.6910
L23.1458 46.6003
" />
<path d="M23.1458 46.6003
L23.1458 46.4491
" />
<path d="M23.1458 46.4491
L23.1156 46.3886
" />
<path d="M23.1156 46.3886
L23.0853 46.3584
" />
<path d="M23.0853 46.3584
L23.0248 46.3281
" />
<path d="M23.0248 46.3281
L22.9644 46.3281
" />
<path d="M22.9644 46.3281
L22.9039 46.3584
" />
<path d="M22.9039 46.3584
L22.8736 46.3886
" />
<path d="M22.8736 46.3886
L22.8434 46.4491
" />
<path d="M22.8434 46.4491
L22.8132 46.5700
" />
<path d="M22.8132 46.5700
L22.7829 46.6305
" />
<path d="M22.7829 46.6305
L22.7527 46.6608
" />
<path d="M22.7527 46.6608
L22.6922 46.6910
" />
<path d="M22.6922 46.6910
L22.6317 46.6910
" />
<path d="M22.6317 46.6910
L22.5713 46.6608
" />
<path d="M22.5713 46.6608
L22.5410 46.6305
" />
<path d="M22.5410 46.6305
L22.5108 46.5700
" />
<path d="M22.5108 46.5700
L22.5108 46.4189
" />
<path d="M22.5108 46.4189
L22.5410 46.3281
" />
<path d="M23.0853 45.6931
L23.1156 45.7233
" />
<path d="M23.1156 45.7233
L23.1458 45.8141
" />
<path d="M23.1458 45.8141
L23.1458 45.8745
" />
<path d="M23.1458 45.8745
L23.1156 45.9652
" />
<path d="M23.1156 45.9652
L23.0551 46.0257
" />
<path d="M23.0551 46.0257
L22.9946 46.0560
" />
<path d="M22.9946 46.0560
L22.8736 46.0862
" />
<path d="M22.8736 46.0862
L22.7829 46.0862
" />
<path d="M22.7829 46.0862
L22.6620 46.0560
" />
<path d="M22.6620 46.0560
L22.6015 46.0257
" />
<path d="M22.6015 46.0257
L22.5410 45.9652
" />
<path d="M22.5410 45.9652
L22.5108 45.8745
" />
<path d="M22.5108 45.8745
L22.5108 45.8141
" />
<path d="M22.5108 45.8141
L22.5410 45.7233
" />
<path d="M22.5410 45.7233
L22.5713 45.6931
" />
<path d="M23.1458 45.1186
L23.1458 45.4210
" />
<path d="M23.1458 45.4210
L22.5108 45.4210
" />
</g><path d="M25.4000 44.4500
L25.4000 41.9100
" />
<g transform="rotate(-90.000000 25.4000 44.9580)">
<text x="25.4000" y="45.2755"
textLength="2.1143" font-size="0.8466" lengthAdjust="spacingAndGlyphs"
text-anchor="end" opacity="0" stroke-opacity="0">SDA</text>
</g>
<g class="stroked-text"><desc>SDA</desc>
<path d="M25.6556 46.7213
L25.6858 46.6306
" />
<path d="M25.6858 46.6306
L25.6858 46.4794
" />
<path d="M25.6858 46.4794
L25.6556 46.4189
" />
<path d="M25.6556 46.4189
L25.6253 46.3887
" />
<path d="M25.6253 46.3887
L25.5648 46.3584
" />
<path d="M25.5648 46.3584
L25.5044 46.3584
" />
<path d="M25.5044 46.3584
L25.4439 46.3887
" />
<path d="M25.4439 46.3887
L25.4136 46.4189
" />
<path d="M25.4136 46.4189
L25.3834 46.4794
" />
<path d="M25.3834 46.4794
L25.3532 46.6003
" />
<path d="M25.3532 46.6003
L25.3229 46.6608
" />
<path d="M25.3229 46.6608
L25.2927 46.6911
" />
<path d="M25.2927 46.6911
L25.2322 46.7213
" />
<path d="M25.2322 46.7213
L25.1717 46.7213
" />
<path d="M25.1717 46.7213
L25.1113 46.6911
" />
<path d="M25.1113 46.6911
L25.0810 46.6608
" />
<path d="M25.0810 46.6608
L25.0508 46.6003
" />
<path d="M25.0508 46.6003
L25.0508 46.4492
" />
<path d="M25.0508 46.4492
L25.0810 46.3584
" />
<path d="M25.6858 46.0863
L25.0508 46.0863
" />
<path d="M25.0508 46.0863
L25.0508 45.9351
" />
<path d="M25.0508 45.9351
L25.0810 45.8444
" />
<path d="M25.0810 45.8444
L25.1415 45.7839
" />
<path d="M25.1415 45.7839
L25.2020 45.7536
" />
<path d="M25.2020 45.7536
L25.3229 45.7234
" />
<path d="M25.3229 45.7234
L25.4136 45.7234
" />
<path d="M25.4136 45.7234
L25.5346 45.7536
" />
<path d="M25.5346 45.7536
L25.5951 45.7839
" />
<path d="M25.5951 45.7839
L25.6556 45.8444
" />
<path d="M25.6556 45.8444
L25.6858 45.9351
" />
<path d="M25.6858 45.9351
L25.6858 46.0863
" />
<path d="M25.5044 45.4815
L25.5044 45.1791
" />
<path d="M25.6858 45.5420
L25.0508 45.3303
" />
<path d="M25.0508 45.3303
L25.6858 45.1186
" />
</g></g>
<g style="fill:none; 
stroke:#FCFCFC; stroke-width:0.1270; stroke-opacity:1; 
stroke-linecap:round; stroke-linejoin:round;">
<text x="21.8401" y="47.2440"
textLength="5.7706" font-size="0.6773" lengthAdjust="spacingAndGlyphs"
text-anchor="middle" opacity="0" stroke-opacity="0">OLED(128X64)</text>
<g class="stroked-text"><desc>OLED(128X64)</desc>
<path d="M19.3122 46.7103
L19.4089 46.7103
" />
<path d="M19.4089 46.7103
L19.4573 46.7345
" />
<path d="M19.4573 46.7345
L19.5057 46.7829
" />
<path d="M19.5057 46.7829
L19.5299 46.8797
" />
<path d="M19.5299 46.8797
L19.5299 47.0490
" />
<path d="M19.5299 47.0490
L19.5057 47.1458
" />
<path d="M19.5057 47.1458
L19.4573 47.1942
" />
<path d="M19.4573 47.1942
L19.4089 47.2183
" />
<path d="M19.4089 47.2183
L19.3122 47.2183
" />
<path d="M19.3122 47.2183
L19.2638 47.1942
" />
<path d="M19.2638 47.1942
L19.2154 47.1458
" />
<path d="M19.2154 47.1458
L19.1912 47.0490
" />
<path d="M19.1912 47.0490
L19.1912 46.8797
" />
<path d="M19.1912 46.8797
L19.2154 46.7829
" />
<path d="M19.2154 46.7829
L19.2638 46.7345
" />
<path d="M19.2638 46.7345
L19.3122 46.7103
" />
<path d="M19.9895 47.2183
L19.7476 47.2183
" />
<path d="M19.7476 47.2183
L19.7476 46.7103
" />
<path d="M20.1588 46.9522
L20.3281 46.9522
" />
<path d="M20.4007 47.2183
L20.1588 47.2183
" />
<path d="M20.1588 47.2183
L20.1588 46.7103
" />
<path d="M20.1588 46.7103
L20.4007 46.7103
" />
<path d="M20.6184 47.2183
L20.6184 46.7103
" />
<path d="M20.6184 46.7103
L20.7394 46.7103
" />
<path d="M20.7394 46.7103
L20.8119 46.7345
" />
<path d="M20.8119 46.7345
L20.8603 46.7829
" />
<path d="M20.8603 46.7829
L20.8845 46.8313
" />
<path d="M20.8845 46.8313
L20.9087 46.9281
" />
<path d="M20.9087 46.9281
L20.9087 47.0006
" />
<path d="M20.9087 47.0006
L20.8845 47.0974
" />
<path d="M20.8845 47.0974
L20.8603 47.1458
" />
<path d="M20.8603 47.1458
L20.8119 47.1942
" />
<path d="M20.8119 47.1942
L20.7394 47.2183
" />
<path d="M20.7394 47.2183
L20.6184 47.2183
" />
<path d="M21.2715 47.4119
L21.2474 47.3877
" />
<path d="M21.2474 47.3877
L21.1990 47.3151
" />
<path d="M21.1990 47.3151
L21.1748 47.2667
" />
<path d="M21.1748 47.2667
L21.1506 47.1942
" />
<path d="M21.1506 47.1942
L21.1264 47.0732
" />
<path d="M21.1264 47.0732
L21.1264 46.9764
" />
<path d="M21.1264 46.9764
L21.1506 46.8555
" />
<path d="M21.1506 46.8555
L21.1748 46.7829
" />
<path d="M21.1748 46.7829
L21.1990 46.7345
" />
<path d="M21.1990 46.7345
L21.2474 46.6620
" />
<path d="M21.2474 46.6620
L21.2715 46.6378
" />
<path d="M21.7312 47.2183
L21.4409 47.2183
" />
<path d="M21.5861 47.2183
L21.5861 46.7103
" />
<path d="M21.5861 46.7103
L21.5377 46.7829
" />
<path d="M21.5377 46.7829
L21.4893 46.8313
" />
<path d="M21.4893 46.8313
L21.4409 46.8555
" />
<path d="M21.9247 46.7587
L21.9489 46.7345
" />
<path d="M21.9489 46.7345
L21.9973 46.7103
" />
<path d="M21.9973 46.7103
L22.1182 46.7103
" />
<path d="M22.1182 46.7103
L22.1666 46.7345
" />
<path d="M22.1666 46.7345
L22.1908 46.7587
" />
<path d="M22.1908 46.7587
L22.2150 46.8071
" />
<path d="M22.2150 46.8071
L22.2150 46.8555
" />
<path d="M22.2150 46.8555
L22.1908 46.9281
" />
<path d="M22.1908 46.9281
L21.9005 47.2183
" />
<path d="M21.9005 47.2183
L22.2150 47.2183
" />
<path d="M22.5053 46.9281
L22.4569 46.9039
" />
<path d="M22.4569 46.9039
L22.4327 46.8797
" />
<path d="M22.4327 46.8797
L22.4085 46.8313
" />
<path d="M22.4085 46.8313
L22.4085 46.8071
" />
<path d="M22.4085 46.8071
L22.4327 46.7587
" />
<path d="M22.4327 46.7587
L22.4569 46.7345
" />
<path d="M22.4569 46.7345
L22.5053 46.7103
" />
<path d="M22.5053 46.7103
L22.6020 46.7103
" />
<path d="M22.6020 46.7103
L22.6504 46.7345
" />
<path d="M22.6504 46.7345
L22.6746 46.7587
" />
<path d="M22.6746 46.7587
L22.6988 46.8071
" />
<path d="M22.6988 46.8071
L22.6988 46.8313
" />
<path d="M22.6988 46.8313
L22.6746 46.8797
" />
<path d="M22.6746 46.8797
L22.6504 46.9039
" />
<path d="M22.6504 46.9039
L22.6020 46.9281
" />
<path d="M22.6020 46.9281
L22.5053 46.9281
" />
<path d="M22.5053 46.9281
L22.4569 46.9522
" />
<path d="M22.4569 46.9522
L22.4327 46.9764
" />
<path d="M22.4327 46.9764
L22.4085 47.0248
" />
<path d="M22.4085 47.0248
L22.4085 47.1216
" />
<path d="M22.4085 47.1216
L22.4327 47.1700
" />
<path d="M22.4327 47.1700
L22.4569 47.1942
" />
<path d="M22.4569 47.1942
L22.5053 47.2183
" />
<path d="M22.5053 47.2183
L22.6020 47.2183
" />
<path d="M22.6020 47.2183
L22.6504 47.1942
" />
<path d="M22.6504 47.1942
L22.6746 47.1700
" />
<path d="M22.6746 47.1700
L22.6988 47.1216
" />
<path d="M22.6988 47.1216
L22.6988 47.0248
" />
<path d="M22.6988 47.0248
L22.6746 46.9764
" />
<path d="M22.6746 46.9764
L22.6504 46.9522
" />
<path d="M22.6504 46.9522
L22.6020 46.9281
" />
<path d="M22.8681 46.7103
L23.2068 47.2183
" />
<path d="M23.2068 46.7103
L22.8681 47.2183
" />
<path d="M23.6180 46.7103
L23.5213 46.7103
" />
<path d="M23.5213 46.7103
L23.4729 46.7345
" />
<path d="M23.4729 46.7345
L23.4487 46.7587
" />
<path d="M23.4487 46.7587
L23.4003 46.8313
" />
<path d="M23.4003 46.8313
L23.3761 46.9281
" />
<path d="M23.3761 46.9281
L23.3761 47.1216
" />
<path d="M23.3761 47.1216
L23.4003 47.1700
" />
<path d="M23.4003 47.1700
L23.4245 47.1942
" />
<path d="M23.4245 47.1942
L23.4729 47.2183
" />
<path d="M23.4729 47.2183
L23.5696 47.2183
" />
<path d="M23.5696 47.2183
L23.6180 47.1942
" />
<path d="M23.6180 47.1942
L23.6422 47.1700
" />
<path d="M23.6422 47.1700
L23.6664 47.1216
" />
<path d="M23.6664 47.1216
L23.6664 47.0006
" />
<path d="M23.6664 47.0006
L23.6422 46.9522
" />
<path d="M23.6422 46.9522
L23.6180 46.9281
" />
<path d="M23.6180 46.9281
L23.5696 46.9039
" />
<path d="M23.5696 46.9039
L23.4729 46.9039
" />
<path d="M23.4729 46.9039
L23.4245 46.9281
" />
<path d="M23.4245 46.9281
L23.4003 46.9522
" />
<path d="M23.4003 46.9522
L23.3761 47.0006
" />
<path d="M24.1018 46.8797
L24.1018 47.2183
" />
<path d="M23.9809 46.6862
L23.8599 47.0490
" />
<path d="M23.8599 47.0490
L24.1744 47.0490
" />
<path d="M24.3195 47.4119
L24.3437 47.3877
" />
<path d="M24.3437 47.3877
L24.3921 47.3151
" />
<path d="M24.3921 47.3151
L24.4163 47.2667
" />
<path d="M24.4163 47.2667
L24.4405 47.1942
" />
<path d="M24.4405 47.1942
L24.4647 47.0732
" />
<path d="M24.4647 47.0732
L24.4647 46.9764
" />
<path d="M24.4647 46.9764
L24.4405 46.8555
" />
<path d="M24.4405 46.8555
L24.4163 46.7829
" />
<path d="M24.4163 46.7829
L24.3921 46.7345
" />
<path d="M24.3921 46.7345
L24.3437 46.6620
" />
<path d="M24.3437 46.6620
L24.3195 46.6378
" />
</g></g>
<g style="fill:none; 
stroke:#FCFCFC; stroke-width:0.1524; stroke-opacity:1; 
stroke-linecap:round; stroke-linejoin:round;">
<path d="M25.4000 39.3700
L30.4800 34.2900
" />
<path d="M27.9400 40.6400
L34.2900 34.2900
" />
<path d="M22.8600 40.6400
L27.9400 40.6400
" />
<path d="M17.7800 34.2900
L17.7800 41.9100
" />
<path d="M19.0500 34.2900
L19.0500 40.6400
" />
<path d="M25.4000 41.9100
L25.4000 39.3700
" />
<path d="M22.8600 40.6400
L22.8600 41.9100
" />
<path d="M19.0500 40.6400
L20.3200 41.9100
" />
</g> 
</svg>
