<svg id="schematic" width="662.6990030428244" height="544.1733926912618" viewBox="625.0118652343749 959.6823120117188 662.6990030428244 544.1733926912618" xmlns="http://www.w3.org/2000/svg">
        <rect id="svg-bg" width="100%" height="100%" fill="black"/>
        <g id="wires-layer"><path d="M 1186.5374755859375 1169.6823120117188 V 1149.6823120117188 H 716.411865234375 V 1171.2199096679688" stroke="white" fill="none" stroke-width="1.2" opacity="0.8" style="cursor: pointer;"/><path d="M 1164.5374755859375 1169.6823120117188 V 1137.6823120117188 H 738.411865234375 V 1171.2199096679688" stroke="white" fill="none" stroke-width="1.2" opacity="0.8" style="cursor: pointer;"/><path d="M 900.5374755859375 1169.6823120117188 V 1125.6823120117188 H 760.411865234375 V 1171.2199096679688" stroke="white" fill="none" stroke-width="1.2" opacity="0.8" style="cursor: pointer;"/><path d="M 966.5374755859375 1169.6823120117188 V 1113.6823120117188 H 782.411865234375 V 1171.2199096679688" stroke="white" fill="none" stroke-width="1.2" opacity="0.8" style="cursor: pointer;"/></g>
        <g id="comps-layer"><g transform="translate(953.5374755859375,1067.6823120117188) rotate(90, 78, 180)"><rect width="156" height="360" fill="black" stroke="white" stroke-width="2"/><text x="78" y="-10" fill="white" text-anchor="middle" font-size="12" font-weight="bold">ESP32</text><circle cx="0" cy="25" r="2" fill="white"/><text x="6" y="28" fill="white" font-size="8" text-anchor="start">3V3</text><circle cx="0" cy="47" r="2" fill="white"/><text x="6" y="50" fill="white" font-size="8" text-anchor="start">GND</text><circle cx="0" cy="69" r="2" fill="white"/><text x="6" y="72" fill="white" font-size="8" text-anchor="start">D15</text><circle cx="0" cy="91" r="2" fill="white"/><text x="6" y="94" fill="white" font-size="8" text-anchor="start">D2</text><circle cx="0" cy="113" r="2" fill="white"/><text x="6" y="116" fill="white" font-size="8" text-anchor="start">D4</text><circle cx="0" cy="135" r="2" fill="white"/><text x="6" y="138" fill="white" font-size="8" text-anchor="start">RX2</text><circle cx="0" cy="157" r="2" fill="white"/><text x="6" y="160" fill="white" font-size="8" text-anchor="start">TX2</text><circle cx="0" cy="179" r="2" fill="white"/><text x="6" y="182" fill="white" font-size="8" text-anchor="start">D5</text><circle cx="0" cy="201" r="2" fill="white"/><text x="6" y="204" fill="white" font-size="8" text-anchor="start">D18</text><circle cx="0" cy="223" r="2" fill="white"/><text x="6" y="226" fill="white" font-size="8" text-anchor="start">D19</text><circle cx="0" cy="245" r="2" fill="white"/><text x="6" y="248" fill="white" font-size="8" text-anchor="start">D21</text><circle cx="0" cy="267" r="2" fill="white"/><text x="6" y="270" fill="white" font-size="8" text-anchor="start">RX0</text><circle cx="0" cy="289" r="2" fill="white"/><text x="6" y="292" fill="white" font-size="8" text-anchor="start">TX0</text><circle cx="0" cy="311" r="2" fill="white"/><text x="6" y="314" fill="white" font-size="8" text-anchor="start">D22</text><circle cx="0" cy="333" r="2" fill="white"/><text x="6" y="336" fill="white" font-size="8" text-anchor="start">D23</text><circle cx="156" cy="25" r="2" fill="white"/><text x="150" y="28" fill="white" font-size="8" text-anchor="end">5V</text><circle cx="156" cy="47" r="2" fill="white"/><text x="150" y="50" fill="white" font-size="8" text-anchor="end">GND</text><circle cx="156" cy="69" r="2" fill="white"/><text x="150" y="72" fill="white" font-size="8" text-anchor="end">D13</text><circle cx="156" cy="91" r="2" fill="white"/><text x="150" y="94" fill="white" font-size="8" text-anchor="end">D12</text><circle cx="156" cy="113" r="2" fill="white"/><text x="150" y="116" fill="white" font-size="8" text-anchor="end">D14</text><circle cx="156" cy="135" r="2" fill="white"/><text x="150" y="138" fill="white" font-size="8" text-anchor="end">D27</text><circle cx="156" cy="157" r="2" fill="white"/><text x="150" y="160" fill="white" font-size="8" text-anchor="end">D26</text><circle cx="156" cy="179" r="2" fill="white"/><text x="150" y="182" fill="white" font-size="8" text-anchor="end">D25</text><circle cx="156" cy="201" r="2" fill="white"/><text x="150" y="204" fill="white" font-size="8" text-anchor="end">D33</text><circle cx="156" cy="223" r="2" fill="white"/><text x="150" y="226" fill="white" font-size="8" text-anchor="end">D32</text><circle cx="156" cy="245" r="2" fill="white"/><text x="150" y="248" fill="white" font-size="8" text-anchor="end">D35</text><circle cx="156" cy="267" r="2" fill="white"/><text x="150" y="270" fill="white" font-size="8" text-anchor="end">D34</text><circle cx="156" cy="289" r="2" fill="white"/><text x="150" y="292" fill="white" font-size="8" text-anchor="end">VN</text><circle cx="156" cy="311" r="2" fill="white"/><text x="150" y="314" fill="white" font-size="8" text-anchor="end">VP</text><circle cx="156" cy="333" r="2" fill="white"/><text x="150" y="336" fill="white" font-size="8" text-anchor="end">EN</text></g><g transform="translate(691.411865234375,1171.2199096679688) rotate(0, 76.8, 32)"><rect width="153.6" height="64" fill="black" stroke="white" stroke-width="2"/><text x="76.8" y="-10" fill="white" text-anchor="middle" font-size="12" font-weight="bold">OLED (128x64)</text><circle cx="25" cy="0" r="2" fill="white"/><text x="25" y="10" fill="white" font-size="8" text-anchor="middle">VCC</text><circle cx="47" cy="0" r="2" fill="white"/><text x="47" y="10" fill="white" font-size="8" text-anchor="middle">GND</text><circle cx="69" cy="0" r="2" fill="white"/><text x="69" y="10" fill="white" font-size="8" text-anchor="middle">SCL</text><circle cx="91" cy="0" r="2" fill="white"/><text x="91" y="10" fill="white" font-size="8" text-anchor="middle">SDA</text></g></g>
        <g id="junctions-layer"/>
    </svg>